<?xml version="1.0" encoding="UTF-8"?>
<svg xmlns="http://www.w3.org/2000/svg" version="1.1" viewBox="0 0 175.66 296.14">
  <defs>
    <style>
      .cls-1 {
        fill: #a6cff0;
      }
    </style>
  </defs>
  <!-- Generator: Adobe Illustrator 28.7.1, SVG Export Plug-In . SVG Version: 1.2.0 Build 142)  -->
  <g>
    <g id="Capa_1">
      <path class="cls-1" d="M171.99,266.3c-6.07-5.13-4.5-8.55-4.5-8.55,12.39-13.25-4.74-26.87-4.74-26.87,0,0-12.04-2.98-18.71-14.08,2.44,14.54-1.39,21.06-1.57,21.34l-.58-.49-.58-.48c.04-.07,4.01-6.91.94-22.18l.69-.19c-2.75-5.53-4.15-12.83-2.54-22.39,5.34-31.64-7.29-39.34-7.29-39.34l-19.92-61.86s-12.87-25.37-14.57-46.46c-1.7-21.09-6.8-22.52-6.8-22.52,0,0,.97-16.82-6.07-21.68-7.04-4.86-17.97,12.84-17.97,12.84,0,0-1.94,9.98-11.17,11.69-9.23,1.71-13.6-5.99-13.6-5.99C43.02,19.09,29.42-.01,22.86.56c-6.56.57-5.59,43.04-5.59,43.04v11.12s-.36,18.24-4.74,47.32C8.16,131.11.15,184.56.15,184.56c0,0-1.46,16.25,4.74,33.35,6.19,17.1,0,30.36,0,30.36,0,0-.55,2.67-3.34,19.92-2.79,17.25,14.27,20.95,14.27,20.95h0l.6-.45c-.11-.19-.25-.26-.35-.28-.15-.03-.27.03-.3.05.3-.26,1.98-2.71,5.39-24.87,4.17-27.16,2.18-31.95,2.09-32.14l1.21-.88c.26.47,2.4,5.36-1.9,33.31-3.93,25.59-5.72,26.01-6.4,26.17-.06.02-.13.02-.19.02-.05,0-.09-.01-.13-.02,1.12,8.15,26.93,5.36,26.93,5.36l33-4.6-.67-.28c.05-.15,4.5-15.15,2.36-44.79l1.42-.14c2.17,30.05-2.25,44.88-2.44,45.5l-.67-.28c2.83,5.47,9.05,5.14,9.05,5.14,12.27,1.57,15.81-2.93,15.81-2.93,4.01,5.56,35.7-1.5,35.7-1.5,26.96,1.71,38.44-9.41,38.44-9.41,0,0,3.28-10.69-2.79-15.82ZM63.6,59.08c.41-3.47,2.19-3.47,2.19-3.47,0,0,3.55-.32,3.51,3.47-.02,1.78-.79,2.94-1.6,3.68-1.17,1.06-2.92.72-3.65-.79-.35-.73-.58-1.68-.43-2.9ZM53.22,82.8c4.55,1.5,4.07,5.99,4.07,5.99,0,0-1.64,4.99-3.52,7.2-1.88,2.21-3.83.36-3.83.36,0,0-4.8-1.92-5.1-7.55-.3-5.63,6.25-5.99,6.25-5.99h2.13ZM42.33,55.61s1.78,0,2.19,3.47c.14,1.22-.08,2.17-.43,2.9-.73,1.51-2.48,1.85-3.65.79-.81-.74-1.58-1.91-1.6-3.68-.05-3.79,3.51-3.47,3.51-3.47ZM29.75,69.93l.19.81c-.3.1-7.39,2.6-5.86,17.25l-1.42.2c-1.7-16.16,6.55-18.96,6.9-19.07l.19.81ZM24.57,9.64c.61-.55,1.34-.67,2.12-.36l-.47,1.58c-.4-.16-.62-.04-.78.1-1.8,1.62-1.92,11.02-1.57,16.57l-1.42.12c-.1-1.56-.87-15.33,2.13-18.02ZM30.42,183.97c-4.39,13.38-8.04,17.22-10.32,18.08-.43.16-.82.22-1.14.22-.76,0-1.21-.32-1.28-.37l.78-1.4s.46.28,1.31-.09c1.62-.69,4.98-3.82,9.32-17.05,6.68-20.33-3.75-31.09-4.2-31.54l.92-1.28c.12.12,11.66,11.95,4.61,33.42ZM25.16,128.53l-.87-1.33c6.43-5.77,9.65-14.54,9.69-14.63l1.31.65c-.14.37-3.39,9.25-10.13,15.3ZM56.97,108.22c-1.51.79-2.93,1.1-4.23,1.1-4.97,0-8.19-4.64-8.54-5.17-.27-.34-2.05-2.71-3.6-7.21l-1.03.38c-2.35-8.76-6.02-9.48-6.06-9.48l.18-1.66c.15.02,3.1.5,5.62,6.02-.25-1.2-.47-2.48-.64-3.86-1.32-10.75,10.62-20.9,11.13-21.32l.83,1.36c-.12.1-11.74,9.98-10.55,19.72,1.22,9.94,5.14,14.89,5.18,14.93l.06.08c.18.29,4.5,6.99,11.07,3.58,6.42-3.34,9.03-15.43,9.31-16.81-.13-1.29-1.47-12.34-9.63-19.6l.86-1.33c9.16,8.15,10.17,20.39,10.21,20.91v.13s-.01.12-.01.12c-.11.58-2.71,14.24-10.15,18.11ZM65.59,102.35l-1.36-.5c2.66-9.9,7.06-10.62,7.25-10.64l.08.83.09.83s-3.71.73-6.06,9.48ZM123.94,168.18l1.3.7c-6.41,16.49-23.47,18.99-23.64,19.01l-.16-1.66c.16-.02,16.44-2.43,22.51-18.04ZM96.86,126.16l1.43.06c0,.07-.17,7.08,3.29,11.11,1.75,2.03,4.15,2.99,7.14,2.85l.06,1.67c-.22.01-.44.02-.65.02-3.11,0-5.65-1.13-7.56-3.35-3.9-4.56-3.71-12.04-3.7-12.35ZM84.86,9.04c3.1,3.97,1.05,14.06.96,14.48l-1.39-.4c.55-2.67,1.52-10.21-.63-12.96-.71-.91-1.71-1.23-3.06-.98l-.22-1.66c1.84-.33,3.29.18,4.33,1.51ZM84.62,120.94c-14.28-7.5-11.16-18.26-11.13-18.37l.67.28.67.28c-.11.38-2.65,9.44,10.37,16.27l-.58,1.53ZM94.58,85.18l-1.42-.14c.86-11.94-7.78-18.61-7.87-18.68l.77-1.41c.09.07,9.46,7.26,8.52,20.23ZM99.49,285.93l-1.41-.22c.16-1.38,1.66-13.49,6.09-14.08l.16,1.66c-2.51.34-4.3,7.93-4.84,12.64ZM129.24,263.05l-5.59-31.07c-5.39-30-27.97-29.74-28.92-29.71l-.03-1.67c.25,0,24.7-.36,30.35,31.03l5.59,31.07-1.4.35Z"/>
    </g>
  </g>
</svg>