<?xml version="1.0" encoding="UTF-8"?>
<svg xmlns="http://www.w3.org/2000/svg" version="1.1" viewBox="0 0 175.66 296.14">
  <defs>
    <style>
      .cls-1 {
        fill: #a6cff0;
      }
    </style>
  </defs>
  <!-- Generator: Adobe Illustrator 28.7.1, SVG Export Plug-In . SVG Version: 1.2.0 Build 142)  -->
  <g>
    <g id="Capa_1">
      <g>
        <path class="cls-1" d="M107.51,291.08c-.02-.06-2.4-5.91-.68-9.52.61-1.29,1.7-2.15,3.23-2.55,7.06-1.88,12.94-.72,13-.71.23.03,4.89.66,5.26,4.76.4,4.36-.53,8.04-.54,8.07l.58.16c-7.79,2.58-21.22-.05-21.23-.05l.37-.16Z"/>
        <path class="cls-1" d="M4.14,284.08c4.76-2.35,8.07-10.05,8.07-10.05l-1.66-5.35c-7.25-19.25,5.18-40.21,5.18-40.21-1.24-2.78.21-22.24.21-22.24,0,0,4.76-4.92-1.03-16.25-5.8-11.34-9.9-29.87-9.9-29.87l-.69-46.62c-2.35-7.13,1.52-14.26,1.52-14.26l-1.66-10.55C.31,78.83.21,63.61.21,63.61c-1.14-8.88,3.52-24.49,3.52-24.49l-.62-2.57s-.83-24.38.93-31.55c1.76-7.16,7.8-1.78,7.8-1.78,0,0,11.08,13.79,11.59,14.44.52.64,1.86,1.28,1.86,1.28,0,0,.39.01,1.08.03-2.08.82-6.86,2.95-8.46,5.71l.7.43c1.87-3.22,8.92-5.69,9-5.71l-.13-.4c6.37.18,24.63.67,26.59.58,2.38-.11,2.38-.96,2.38-.96l6.21-7.16c6.62-9.52,9.52-7.16,9.52-7.16,7.87-.86,3.93,28.66,3.93,28.66,0,0-1.45,10.48-1.45,16.68s7.66,34.22,7.66,34.22l2.42,5.06c7.45,5.7,5.83,11.34,5.83,11.34,0,0-1.69,4.87-1.91,10.32-.83-.19-4.88-.27-12.08,12.62l.7.42c7.36-13.18,11.21-12.22,11.25-12.21l.12-.37c-.13,5.22,1.15,10.86,6.58,13.17,11.28,4.81,10.49,16.29,10.49,16.29,0,0,.1,13.58,2.79,25.88,2.69,12.3.72,25.56.72,25.56,0,0-5.38,17.75.62,29.3,5.96,11.46,16.64,37.41,16.8,37.81,2-.15,6.14-.46,14.19-1.06.15-.01.3-.02.45-.03-7.6,2.67-10.58,12.64-10.62,12.76l.78.24c.04-.13,3.83-12.81,13.69-12.81v-.42c8.49-.25,11.46,1.59,11.46,1.59,0,0,9.25,2.57,17.11,15.97,7.87,13.4-10.77,15.97-10.77,15.97h-34.36c.15-.64.92-4.1.54-8.26-.44-4.77-5.89-5.5-5.94-5.51-.22-.05-6.08-1.2-13.33.72-1.77.47-3.03,1.48-3.75,2.99-1.74,3.66.21,9.07.6,10.06l-30.52.74s1.14,3.42-12.32,3.85c-13.46.43-14.39-5.67-14.39-5.67h0s.4-.09.4-.09c-.36-1.75,2.62-7.23,3.8-9.2l.05-.09v-.1s.83-12.62.83-12.62l1.66-31.52-.55-32.68c-.31-18.09-4.59-25.81-8.14-29.11-3.2-2.98-6.12-2.75-6.24-2.74l.07.83s2.73-.19,5.66,2.56c3.41,3.19,7.54,10.73,7.84,28.47l.55,32.65-1.66,31.48-.82,12.51c-.62,1.05-4.09,6.99-3.89,9.48l-5.06-1.87c-8.4-2.86-13.59,1.74-15.26,3.57.68-2.94,2.96-13.31,3.2-19.98.27-7.73,3.28-26.85,3.31-27.04l2.07-22.13c0-.15.7-13.09,2.03-15.97l-.73-.36c-1.4,3.03-2.08,15.73-2.11,16.27l-2.07,22.08c-.03.17-3.04,19.34-3.31,27.12-.27,7.71-3.33,20.48-3.36,20.61l.39.1c-10.97,9.62-28.13-1.07-28.13-1.07,0,0-.65-4.92,4.11-7.27ZM8.23,37.92c-.18.21-4.33,5.1-5.07,9.76l.8.13c.7-4.42,4.83-9.29,4.87-9.34l-.61-.56ZM19.75,42.05c-.17.12-4.21,2.9-4.43,7.43-.04.86-.34,1.51-.93,1.99-1.66,1.37-4.99.86-5.3.81-.26-.08-1.93-.54-3.31.5-1.2.91-1.78,2.64-1.74,5.16.1,6.78.82,13.9.83,13.97v.04c.03.12.65,3.06,2.62,7.95,3.89,9.68,9.82,18.49,9.88,18.58l.67-.48c-.06-.09-5.94-8.83-9.79-18.42-1.85-4.6-2.5-7.51-2.56-7.78-.05-.45-.72-7.32-.82-13.88-.03-2.23.44-3.74,1.41-4.48,1.13-.86,2.59-.38,2.61-.37h.06c.16.04,3.95.71,5.97-.96.77-.63,1.18-1.51,1.23-2.6.19-4.11,4.02-6.75,4.06-6.77l-.44-.7ZM19.6,113.03c.63,1.58,6.22,15.47,9.61,16.64.26.09.54.13.82.13,3.46,0,8.14-6.34,8.7-7.12l-.65-.5c-1.55,2.15-6.12,7.56-8.61,6.7-2.57-.89-7.46-11.96-9.12-16.16l-.75.32ZM26.83,45.49c-4.29-.23-4.59,2.17-4.59,2.17,0,0-1.07,4.32,4.19,4.74,0,0,2.79.24,3.21-1.55,0,0,1.47-5.13-2.82-5.36ZM43.4,33.19l-3.57,9.12v-6.27l-1.87,8.98-3.21-9.96c-.04-.21-.25-1.16-1.08-1.75-.67-.48-1.56-.61-2.62-.37l.17.82c.83-.18,1.5-.11,1.98.24.63.45.76,1.23.76,1.23l.02.07,4.16,12.9.89-4.28v2.71l5.13-13.12-.75-.31ZM44.84,67.72c-1.2-1.71-3.66-3.97-7.96-3.14-6.68,1.28-5.69,6.42-5.69,6.42,0,0,2.48,6.74,6.78,7.11s6.42-3.9,6.42-3.9c.69-.71,1.03-1.9,1.21-2.91.22-1.25-.04-2.54-.76-3.57ZM47.18,48.56s-1.34,4.74,3.9,4.07c5.24-.68,4.05-3.98,4.05-3.98,0,0-.03-.56-.56-1.14-.79-.88-1.39-.98-1.39-.98-3.69-1-6,2.03-6,2.03ZM55.48,21.95l-.46.69s3.17,2.27,4.97,5.09l.68-.46c-1.88-2.96-5.05-5.22-5.19-5.32ZM60.69,46.14c-2.9-6.23-6.35-7.1-7.52-7.21-.09-1.2-.46-4.56-1.85-5.71-.41-.34-.88-.47-1.39-.39l.13.83c.28-.05.51.02.75.21,1.12.93,1.52,4.28,1.58,5.49l.02.43.41-.03s3.93-.17,7.14,6.75c3.44,7.39,10.53,9.61,10.83,9.7l.23-.8c-.07-.02-7.05-2.22-10.32-9.26ZM74.68,41.54l-7.53-4.54,5.81,9.83.69-.44-4.13-6.99,4.75,2.87.41-.72ZM81.69,239.87c2.46-2.74,7.13-5.18,7.18-5.2l10.98-6.3c-7.03,5.89-2.82,14.58-2.77,14.67l.72-.38c-.19-.39-4.62-9.55,4.42-14.95l.08-.06,3.7-3.76-17.51,10.05c-.18.09-4.84,2.52-7.4,5.37l.6.57ZM73.7,187.41v.05c0,.07.02,7.56,2.1,14.8,2.03,7.09-3.93,38.37-3.99,38.69-.56,4.07-5.29,39.62-.77,42.98,4.25,3.17,4.74,8.05,4.74,8.1l.81-.08c-.02-.22-.53-5.31-5.07-8.7-3.49-2.6-.39-31.32,1.1-42.16.24-1.27,6.05-31.78,3.96-39.07-1.95-6.83-2.06-13.88-2.06-14.52l4.46-19.76h-.01c1.28-4.07,1.81-6.99,1.82-7.06l-.8-.15c-.03.16-2.84,15.68-11.35,25.03l.59.57c3.33-3.66,5.8-8.23,7.58-12.49l-3.11,13.76ZM58.91,110.37c7.76-4.29,14.78-19.09,15.08-19.72l-.73-.37c-.07.15-7.21,15.18-14.73,19.35l.38.74ZM54.93,96.67c.02-.05.8-1.84,8.97-8.18,8.66-6.74,8.36-15.24,8.34-15.59l-.81.04c0,.08.29,8.42-8.02,14.88-8.45,6.57-9.2,8.42-9.25,8.6l.77.25ZM54.33,73.04l-.77-.25c-.03.11-3.46,11-10.62,9.1-7.42-1.98-10.17.05-10.49.31-.13.08-1.88.99-5.54-2.97-3.97-4.31-4.34-7.35-4.35-7.38l-.81.09c.01.12.33,2.89,3.73,6.92.63,3.3,4.13,9.27,4.29,9.52l.69-.44c-.03-.05-2.64-4.49-3.76-7.74,2.37,2.44,4.06,2.97,5.07,2.97.73,0,1.12-.28,1.15-.3.05-.04,2.54-2.11,9.8-.17,3.74,1,6.53-1.09,8.44-3.57-.82,2.61-2.18,6.28-3.43,7.22-.82-1.77-1.69-2.78-1.77-2.86l-.6.56s3.47,4.02,3.02,10.38c-.45,6.36-2.6,8.01-2.63,8.03l-.08.08c-.14.19-3.6,4.53-8.75.31-5.3-4.35-5.4-9.2-5.4-9.24v-8.77h-.81v8.77c0,.21.08,5.28,5.71,9.9,1.86,1.52,3.53,2.01,4.92,2.01.86,0,1.61-.19,2.22-.44,1.57-.63,2.53-1.75,2.72-1.98.36-.3,2.47-2.31,2.91-8.61.22-3.07-.41-5.59-1.16-7.45l.04.07c2.19-1.44,4.2-8.85,4.42-9.69l-.17-.05c1.33-2.23,1.98-4.29,1.99-4.34ZM39.59,97.7l.8.12c.05-.34,1.13-8.34-.02-11.61l-.76.29c1.08,3.07,0,11.12-.02,11.2ZM29.99,144.81c.77.26,1.55.38,2.33.38,8.7,0,17.61-14.91,18.02-15.6l-.69-.44c-.11.18-10.65,17.82-19.4,14.86-8.87-3-14.75-18.1-14.81-18.26l-.75.31c.24.64,6.08,15.62,15.31,18.74Z"/>
      </g>
    </g>
  </g>
</svg>