<?xml version="1.0" encoding="UTF-8"?>
<svg xmlns="http://www.w3.org/2000/svg" version="1.1" viewBox="0 0 175.66 296.14">
  <defs>
    <style>
      .cls-1 {
        fill: #a6cff0;
      }
    </style>
  </defs>
  <!-- Generator: Adobe Illustrator 28.7.1, SVG Export Plug-In . SVG Version: 1.2.0 Build 142)  -->
  <g>
    <g id="Capa_1">
      <g>
        <path class="cls-1" d="M82.41,60.82c-.45.88-.9,1.79-1.31,2.68-.14.88-.02,1.65.36,2.34,1.24,2.26,4.8,2.82,5.11,2.86,1.35-.11,4.82-.85,5.13-2.95-.02-.35-.02-.62-.03-.78-.27-1.1-.62-2.35-1.01-3.61-3.38-2.18-7.58-.79-8.25-.55Z"/>
        <path class="cls-1" d="M90.33,60.32c-1.05-3.15-2.31-5.99-3.27-5.9-.95.09-2.57,2.51-4.14,5.43,1.42-.41,4.56-1.03,7.41.47Z"/>
        <path class="cls-1" d="M174.4,237.27l-.03-1.65c.47-6.14-5.68-15.27-5.68-15.27,0,0-3.31-1.89-5.09-5.35s-1.42-14.64-1.42-14.64c0,0-19.97-59.04-20.27-64.55-.3-5.51-7.04-21.33-7.04-21.33,0,0-1.26-15.38-2.05-25.98-.79-10.6-8.56-19.21-8.56-19.21,0,0,2.48-5.67,5.91-8.66,3.43-2.99,1.06-6.14,1.06-6.14,0,0-3.96-7.4-4.61-8.82-.65-1.42.35-1.5.35-1.5,5.26.16.35-7.58.35-7.58,3.04-1-11.14-16.06-11.14-16.06,0,0,2.31-4.25-12.36-14.41C89.18-4.03,71.24.91,71.24.91l-1.3,3.57s-2.05,2.52-9.38,6.66c-7.33,4.15-4.65,10.71-4.65,10.71l-1.89,1.68s-8.99,6.93-7.37,9.18c1.62,2.26,2.25,9.97,2.25,9.97l7.41,11.54c0,.07-.04.75-.2,5.62-.2,6.14,4.93,4.15,4.93,4.15v4.51l-2.25,1.1c-4.02,3.94-4.73,19.05-4.73,19.05-5.56,5.67-3.43,15.59-3.43,15.59-4.61,13.85.71,34.64.71,34.64,0,0,4.5,14.17,3.55,25.82-.95,11.65,1.54,16.69,1.54,16.69,0,0,.24,18.89,0,31.8-.24,12.91-4.61,18.58-4.61,18.58-8.75-4.25-21.88-6.93-21.88-6.93,0,0-24.84-3.31-29.34,12.28-4.49,15.58,18.69,15.27,18.69,15.27l.05-.38c.12.02,11.89,2.37,23.84-6.59,7.56-5.66,8.71-8.82,8.73-10.2,0-.87-.43-1.24-.45-1.25l.29-.67s.75.59.74,1.91c0,2.75-3.05,6.41-9.02,10.89-7.92,5.94-15.78,6.98-20.31,6.98-2.4,0-3.87-.29-3.91-.3l.05-.38c-7.39,1.81-7.12,11.2-7.12,11.2,3.23,12.91,19.16,6.61,19.16,6.61l17.35-5.77,1.14.5-.63.94c-.79,5.56-2.84,7.45-2.84,7.45,0,0-6.07,5.67-8.28,12.59-2.21,6.93,3.39,7.35,3.39,7.35l11.44-.1c8.28.73,10.25-9.16,10.25-9.16.65-.24,1.66-6.69,1.66-6.69,4.02,1.73,3.02-3.7,3.02-3.7l-.28-7.22.71.1c2.21,1.89,21.3,1.99,21.3,1.99l-1.27,3.78c-2.52,3.99.16,9.13.16,9.13-.71,9.55,9.98,6.74,9.98,6.74l.47.63c-1.12,7.64,4.85,6.22,4.85,6.22,12.18,4.72,17.17-1.23,17.17-1.23,6.86,1.36,3.35-10.44,3.35-10.44l-.71-4.3.1-4.22,6.55.26c6.06,2.11,18.1,1.12,22.93.61l-.13-.34c.08-.06,8.38-5.84,12.63-12.12l.43.52c-3.65,5.39-10.21,10.4-12.21,11.86.85-.1,1.35-.16,1.35-.16,0,0,7.57-2.57,13.05-4.83,5.48-2.26,3.86-12.02,3.86-12.02l.63-1.05c5.4-4.09,1.66-20.26,1.66-20.26ZM50.43,262.12l-.54-.31c.04-.11,3.57-11.06,3.64-22.52h.58c-.07,11.63-3.65,22.72-3.69,22.83ZM104.25,29.62c1.15,3.81,1.24,4.88,1.24,4.88l-1.45-2.48s-3.79,1.53-3.9-1.38c-.12-2.91.41-3.82.41-3.82,0,0,2.54-1.01,3.7,2.8ZM81.76,106.47l.58-.1c.34,3.39-1.38,4.55-1.46,4.6l-.08.05h-.09c-9.96-1.71-15.13-21.07-15.35-21.89l.55-.26c.05.2,5.23,19.61,14.77,21.35.29-.23,1.31-1.26,1.07-3.74ZM80.34,89.32c-.27.48-.65.77-1.14.84-2.34.37-6.59-4.35-6.77-4.55l.38-.59s4.25,4.71,6.33,4.38c.33-.05.57-.23.74-.53,1.51-2.7,3.25-5.25,3.4-5.47.07-.13.4-.64.86-.54.44.1.77.7,1.03,1.83.56,2.52,3.95,7.27,3.98,7.32.11.12,3.17,3.58,6.45-.57,3.39-4.28,3.91-6.64,3.91-6.67l.56.2c-.02.1-.53,2.56-4.07,7.03-1.34,1.69-2.66,2.23-3.8,2.23-1.99,0-3.43-1.64-3.46-1.67-.16-.22-3.53-4.96-4.14-7.66-.26-1.17-.51-1.28-.56-1.29-.11-.03-.25.16-.3.25l-.02.04s-1.82,2.64-3.37,5.43ZM76.11,70.67c.24-.28,2.57-4.1,3.99-6.46.02-.06.09-.2.19-.43,1.36-2.98,4.74-9.94,6.73-10.13,2.36-.23,4.94,9.98,5.23,11.14v.11c.09,3.11.75,11.34,2.87,12.06,2.55.86,3.89-1.82,3.94-1.93l.49.42s-1.21,2.46-3.46,2.46c-.35,0-.72-.06-1.12-.19-2.22-.75-2.95-7.04-3.19-10.55-1.38,2-5.02,2.31-5.2,2.32h-.02s-.02,0-.02,0c-.17-.02-4.1-.54-5.55-3.18-.26-.47-.42-.99-.49-1.53-3.9,6.5-4.04,6.55-4.16,6.59l-.07-.38-.17-.32ZM83.41,107.52c.01.22.35,5.29,4.19,4.94,4-.35,13.14-6.69,13.55-6.98.31-.28,5.98-5.35,7.79-7.81l.42.54c-1.89,2.57-7.65,7.71-7.89,7.92l-.03.02c-.39.27-9.61,6.71-13.8,7.08-.14.01-.27.02-.4.02-4.04,0-4.4-5.62-4.4-5.68l.58-.06ZM101.72,44.77c-.52-7.54-2.28-10.39-2.3-10.42l.44-.5c.08.12,1.9,3.03,2.44,10.85.51,7.41.59,11.25.59,11.57l.83,8.59-.58.1-.83-8.65s-.07-3.86-.59-11.54ZM95.47,19.38c2.14-5.44,5.32-5.66,5.45-5.67l.02.78c-.12,0-2.98.23-4.96,5.25-1.97,5,1.47,10.55,1.5,10.6l-.45.5c-.15-.24-3.73-5.99-1.57-11.46ZM96.6,40.74s-2.9,3.59-8.14,4.12c-5.24.52-7.63-9.08-7.63-9.08v-.29s.96-6.4,8.72-6.4,7.05,11.65,7.05,11.65ZM78.49,22.43s2.48,2.52,0,4.84c-2.48,2.32-3.55-.55-3.46-1.42.09-.87.15-1.69.15-1.69l.06-.31-3.9,3.19s4.14-5,7.16-4.6ZM71.97,43.76c.26-1.24,2.18-10.17,5.33-13.2,3.28-3.15,5.18-3.91,5.25-3.94l1.39-.47c.23-.12,2.8-1.62,3.37-7.21.71-6.86-.52-9.23-.66-9.48-.14-.14-.6-.69-.62-1.54-.02-.77.31-1.55,1-2.3l1.77-1.94.37.6-1.77,1.94c-.53.58-.8,1.15-.79,1.66.02.59.41.97.41.98l.05.06c.07.1,1.62,2.45.82,10.13-.64,6.22-3.63,7.78-3.76,7.84h-.03s-1.39.48-1.39.48c0,0-1.88.76-5.07,3.82-3.15,3.03-5.11,12.81-5.13,12.9l-.03.13-.08.08c-3.94,3.88-4.37,15.18-4.38,15.29l-.58-.04c.02-.48.44-11.63,4.53-15.8ZM63.17,70.28l-.57-.15c.08-.71,2-2.45,3.6-3.79l.31.66c-1.5,1.25-3.21,2.86-3.34,3.28ZM64.45,145.78l.34-.63c.07.06,6.6,6.22,11.98,6.22s28.51-11.82,28.74-11.94l.21.73c-.95.49-23.42,11.99-28.95,11.99s-12.05-6.11-12.32-6.37ZM78.97,216.75c.56-9.2-1.35-14.85-2.12-16.7l-3.46,12.92c-3.61,13.49-5.29,48.66-5.31,49.01l-.58-.05c.02-.35,1.7-35.63,5.34-49.23l3.67-13.7.28.13.24-.23c.13.25,3.25,6.23,2.54,17.89-.68,11.24,13.05,18.74,13.19,18.82l-.22.72c-.58-.31-14.27-7.8-13.55-19.6ZM110.9,213.35c-.68,11.62-3.54,20.2-3.77,20.87-.06.39-.57,4.42-.02,19.38.05,1.44.03,2.89-.04,4.33.03.08.04.16.04.23,0,.1-.01.19-.06.25-.9,14.49-7.59,28.64-7.66,28.8l-.49-.42c.07-.15,6.62-14.01,7.56-28.22-.57.03-1.63,0-3.65-.07-4.57-.15-11.45,7.01-11.52,7.08l-.36-.61c.29-.3,6.97-7.25,11.74-7.25.05,0,.11,0,.16,0,2.36.08,3.31.08,3.69.06.07-1.38.09-2.77.04-4.14-.59-15.93.01-19.49.04-19.63l.02-.07c.03-.09,3.03-8.74,3.73-20.65.7-11.94,0-19.84,0-19.92l.58-.09c0,.08.7,8.05,0,20.07ZM107.65,200.32l-.48-.45c.04-.08,4.09-7.89,4.21-16.94h.58c-.12,9.31-4.27,17.31-4.31,17.39ZM118.16,74.1c-.67.41-1.13,1.24-1.24,2.21l-.89,7.96c-.07.6-.32,1.14-.7,1.47-.27.24-.58.36-.9.36-.13,0-.26-.02-.39-.06l-.11-.04-.06-.13c-.9-1.9-2.18-4.57-2.76-5.75-.4,1.28-1.28,3.63-1.98,4.13-.32.23-.56.1-.68,0-.84-.72-5.35-6.24-5.54-6.47l.4-.57c1.61,1.97,4.82,5.84,5.46,6.39.41.12,1.68-3.2,1.98-4.38v-.23l.21-.08q.23-.09,1.88,3.35c.63,1.31,1.26,2.63,1.46,3.05.25.05.5-.03.72-.22.25-.22.41-.55.45-.94l.89-7.96c.14-1.23.73-2.28,1.57-2.8l2.99-1.85.25.7-2.99,1.85ZM136.68,244.79c-6.84,1.59-11.22,8.24-11.73,9.04-.68,5.94-1.34,11.06-1.4,11.5l-.58-.13c.03-.23,3.07-23.48,2.83-29.19-.23-5.78.01-15.83.01-15.93v-.09c.05-.2,4.01-20.49,3.89-27.29-.11-6.69.66-15.1.71-15.62v-5.64h.58v5.72c-.01.09-.83,8.71-.71,15.53.12,6.81-3.64,26.15-3.89,27.46-.02.72-.24,10.28-.01,15.82.12,2.9-.56,9.99-1.28,16.48,1.53-2.12,5.6-7.04,11.43-8.41l3.63-2.49.27.69-3.75,2.56Z"/>
      </g>
    </g>
  </g>
</svg>