<?xml version="1.0" encoding="UTF-8"?>
<svg xmlns="http://www.w3.org/2000/svg" version="1.1" viewBox="0 0 175.66 296.14">
  <defs>
    <style>
      .cls-1 {
        fill: #a6cff0;
      }
    </style>
  </defs>
  <!-- Generator: Adobe Illustrator 28.7.1, SVG Export Plug-In . SVG Version: 1.2.0 Build 142)  -->
  <g>
    <g id="Capa_1">
      <g>
        <path class="cls-1" d="M135.08,263.48l-5.56-5.31-2.51-28.65-.57.09c-.07-.2-6.5-19.78-3.52-33.87l.58.06s2.71-23.84-5.56-29.47c0,0-2.56-3.42-.9-6.34,1.65-2.92,2.56-6.04,2.56-6.04,0,0-.15-12.47-3.61-23.94-3.46-11.47-4.36-14.28-4.36-14.28,0,0-8.12-15.49-12.48-20.92-4.36-5.43-5.26-8.95-5.26-8.95l-7.67-9.15,2.71-17.6s3.91,3.82,8.72,3.12c4.81-.7,11.43-4.22,11.43-4.22,0,0,15.78-6.54,16.01-14.28.23-7.75-14.96-22.23-14.96-22.23,0,0-.75-5.43-8.42-6.84,0,0-11.88-8.45-30.52-12.88,0,0-13.98-1.46-19.77-1.46,0,0-2.18-4.28-24.13,6.72l-9.52,4.29s-6.11,2.21-5.81,10.53c.3,8.32-.01,11.33-.01,11.33,0,0,1.81,8.58,10.74,8.72,6.75.1,9.31-2.79,10.15-4.2-1.97,4.09-10.88,23.35-4.34,23.11l2.31-.47s.03,1.19-.03,3.02l.46-.24s1.84,1.52,4.2,1.52c.04,0,.08,0,.12,0,1.55-.03,3.02-.72,4.39-2.04l5.76-5.54.12,1.11c0,.08.91,7.63,6.58,10.47,1.96.98,4.3,1.29,6.95.91h.08s.09,0,.09,0h0c.07,0,4.59-.06,9.01-9.32l1.12.24c-4.48,9.37-9.18,9.87-10.11,9.87h-.02c-.8.11-1.57.17-2.31.17-2.04,0-3.89-.41-5.51-1.23-4.82-2.42-6.4-7.72-6.87-9.98l-3.92,3.77c-1.6,1.53-3.39,2.33-5.33,2.37-.05,0-.1,0-.15,0-2.19,0-3.91-.97-4.68-1.49-.21,4.53-1.03,12.24-4.15,16.46-4.61,6.24-10.02,20.25-10.02,20.25,0,0-10.12,15.49-6.31,26.49,0,0-.3,25.35,5.91,33.33,0,0-3.31,18.78,1.8,27.7,0,0,.4,1.01-2.41,2.28-2.81,1.27-9.42,9.05-9.42,9.05,0,0-6.11,14.15.9,18.51,7.02,4.36,12.53,3.82,12.53,3.82l.52,4.1v-.06s1.17-.03,1.17-.03l.9,16.13-1.18.03-.86-15.39c-.95.23-20.69,4.97-20.1,11.26.6,6.44,7.42,5.5,7.42,5.5,0,0,12.13.2,14.13-1.37,0,0,3.71,17.27-4.71,22.77-8.42,5.5-2.81,15.56-2.81,15.56,0,0,12.83,8.32,29.67.94,0,0,9.82,1.74,8.82-4.16-1-5.9-3.81-18.37-3.81-18.37,0,0-7.02-15.69-5.81-22.26,1.2-6.57.8-8.99.8-8.99,0,0,9.5.29,14.23,0,0,0,9.51-.23,16.54-1.68,4.21-.5,19.34-1.94,19.34-1.94,0,0,7.55-1.05,9.55-2.23-.09-1.42-.74-4.97-4.2-12.41-2.85-6.12-3.67-17.75-3.86-26.52-2.19-.54-10.26-3.02-7.49-9.94.35-.88.71-1.62,1.07-2.25-3.73,4.1-13.68,13.66-26.73,15.33-1.29.17-2.58.25-3.86.25-5.01,0-9.91-1.27-14.64-3.79.01.22.02.43.03.65.2,4.49.19,9.63.08,14.75h.07c.41,1.2,5.11,1.84,7.97,1.96l-.08.79c-.69-.03-5.72-.29-7.99-1.54-.36,13.63-1.44,26.8-1.45,26.99l-1.18-.04c.02-.26,2.15-26.11,1.41-42.88-.3-6.82-1.03-11.25-2.17-13.15l1.09-.29c1.09,1.82,1.81,5.76,2.16,11.72,5.89,3.34,12.06,4.62,18.33,3.82,15.79-2.03,27.39-16.63,27.5-16.78l.85.3c2.34-2.39,4.33-.65,4.33-.65,0,0,.55,1.24.94,3.34l1.01.02c-.01.27-1.14,27.22,3.73,37.69,4.95,10.63,4.25,13.46,4.22,13.58l-.58-.07,2.21,32.01s-2.36,11.84-2.36,17.47.45,10.36.45,10.36c0,0-1.95,12.27,9.62,8.15,0,0,5.86,8.05,15.49,3.22,0,0,10.07,1.81,11.88-3.92,0,0,6.62.6,3.01-8.15-3.61-8.75-9.17-18.11-9.17-18.11ZM50.08,14.25s.7,2.41-2.76,2.95c-3.46.54-4.01-2.11-4.01-2.11-.24-.61,1.05-1.21,1.05-1.21,2.41-1.44,5.71.37,5.71.37ZM32.8,33.8l-1.6-13.55c-.31-15.66,16.24-18.1,16.41-18.12l.24.77c-.64.09-15.76,2.35-15.47,17.31l1.6,13.52-1.17.06ZM54.76,61.97c-1.97-.4-3.04-2.34-3.16-2.56l-.02-.04c-.03-.07-2.56-7.41-3.53-9.64-.22-.5-.48-.7-.65-.72-.38-.04-1.1.46-1.45.82l-1.35,1.41c-3.15,4.13-10.34,7.71-10.65,7.86l-.7-.63c.07-.04,7.27-3.62,10.33-7.62l1.38-1.44c.21-.22,1.33-1.3,2.61-1.18.73.07,1.28.5,1.61,1.28.94,2.19,3.38,9.2,3.53,9.65.27.51,1.2,1.81,2.38,2.05l-.34.75ZM55.39,44.24c-9.92,3.82-16.39-2.62-16.39-2.62,0,0-2.78-3.22-.83-9,1.95-5.78,13.46-5.13,13.46-5.13l5.04.45c8.72,2.51,8.12,8.25,8.12,8.25,0,0,.53,4.22-9.4,8.05ZM19.47,219.53l-1.5-29.47,1.18-.03,1.5,29.47-1.18.03ZM86.68,188.66l1.15.16c-1.85,5.87-15.25,9.77-15.82,9.94l-.46-.72c.13-.04,13.41-3.91,15.14-9.38ZM99.69,20.28l1.12-.25c.18.35,4.24,8.69-.66,13.95-4.57,4.91-9.94,11.13-10.38,11.64-.26.53-3.27,6.79-1.37,10.31l-1.11.27c-2.12-3.91,1.24-10.59,1.38-10.87l.05-.07c.06-.07,5.67-6.59,10.44-11.7,4.61-4.95.58-13.2.54-13.28ZM81.4,23.62s3.47-.82,4.77,1.39c1.3,2.21-2.53,2.96-2.53,2.96-.87.25-1.94-.52-1.94-.52-2.48-1.38-.29-3.84-.29-3.84ZM92.79,34.68c4.03-6.17,4.96-12.03,4.97-12.09l1.17.08c0,.06-.96,6.04-5.06,12.32-4.11,6.3-15.81,13.64-16.31,13.95l-.8-.58c.12-.07,12.02-7.53,16.03-13.69ZM32.55,131.17c-1.39-2.05.46-4.65.54-4.76l.34-.46.58.34c1.4.82,4.1,1.98,5.34,1.63.52-.15.82-.6.87-1.35.28-3.73,8.36-7.96,10.35-8.95-.7-.94-2.36-3.77.25-6.92.69-.83,1.56-.98,2.16-.96.93.03,1.93.54,2.91,1.28l.7,1.94c-1.32-1.37-2.66-2.4-3.67-2.44-.14,0-.58-.02-1.07.56-2.79,3.36-.13,6.32-.01,6.44l.29.32-.45.21c-.1.05-9.99,4.77-10.28,8.55-.08,1.07-.61,1.76-1.59,2.03-1.86.53-4.67-.75-5.95-1.41-.43.78-1.09,2.38-.24,3.63.53.77,1.58,1.31,3.13,1.59,1.63.3,2.6.43,3.18.49,0-.03,0-.05,0-.07l-.11-.82,1.02.46c.69.31.95.63.75.93-.07.1-.16.2-.35.25.51,3.16,1.9,9.15,4.13,10.6l-.83.56c-2.78-1.89-4.08-8.58-4.48-11.1-.74-.05-1.87-.21-3.61-.53-1.91-.35-3.22-1.03-3.9-2.02ZM93.66,131.79c-.34.86-1.27,1.46-2.75,1.79-6.77,1.51-8.01,7.46-8.02,7.52l-.04.09c-.14.23-3.44,5.78-9.24,8.43-2.13.98-4.09,1.32-5.83,1.04-.11-.02-.21-.04-.31-.06l-.15-.89c.23.08.48.15.76.19,1.4.22,3.04-.09,4.87-.93,5.24-2.4,8.46-7.51,8.78-8.03.14-.66,1.6-6.51,8.81-8.12,1.1-.25,1.75-.65,1.98-1.25.86-2.17-3.85-6.32-5.77-7.75l-10.1-6.09-.05-.1s-1.04-1.96-3.22-2.44c-1.17-.26-2.51-.05-3.98.62-.02.01-.04.02-.06.03l-1.11-.45c.17-.07.33-.15.51-.23,1.79-.82,3.48-1.06,5.02-.72,2.44.54,3.64,2.37,3.9,2.83l9.95,6c.3.22,7.25,5.46,6.05,8.5Z"/>
        <path class="cls-1" d="M170.26,232.4c-6.77-2.92-14.58-3.72-14.58-3.72,0,0-18.19-6.74-19.4-10.86-1.2-4.12-.45-8.95-.45-8.95,0,0,1.05-4.33-11.73-11.47l-.21-.56c-2.47,13.86,3.63,32.41,3.69,32.6l-.57.09s15.64,13.14,30.07,13.48c14.43.34,18.44-5.63,18.44-5.63,0,0,1.5-2.05-5.26-4.96Z"/>
      </g>
    </g>
  </g>
</svg>