<?xml version="1.0" encoding="UTF-8"?>
<svg xmlns="http://www.w3.org/2000/svg" version="1.1" viewBox="0 0 175.66 296.14">
  <defs>
    <style>
      .cls-1 {
        fill: #f190b8;
      }
    </style>
  </defs>
  <!-- Generator: Adobe Illustrator 28.7.1, SVG Export Plug-In . SVG Version: 1.2.0 Build 142)  -->
  <g>
    <g id="Capa_1">
      <path class="cls-1" d="M173.59,280.84s-6.78-4.37-10.38-5.51c-3.6-1.14-5.51-5.7-5.51-5.7l-10.17-27.16-2.76-28.87s0-14.44-4.66-20.51c-4.66-6.08-4.87-8.36-4.87-8.36,0,0-.21-4.37,2.33-21.08,2.54-16.71-6.12-26.4-6.12-26.4l-23.13-42.96c2.53-6.01.36-13.49.36-13.49,0,0-3.69-8.75-6.27-15.42-2.59-6.66,1.1-17.48,1.1-17.48l-.49.35c-.09-.1-6.96-7.91-8.51-18.43-.18.47-.66.83-1.45,1.07-.62.19-1.4.27-2.25.27-3.28,0-7.61-1.15-7.84-1.21l.36-1.07c1.85.5,7.13,1.63,9.33.96.49-.15.67-.32.68-.41.04-.33-.79-1.07-1.56-1.51l-1.09-.62,1.22-.38c.24-.08.33-.15.33-.17.05-.36-1.14-1.4-2.44-2.14l-.07-.04-.06-.06s-4.7-4.65-11.16-4.34c-6.16.28-5.84,8.39-5.84,8.47l-1.24.05c-.16-3.21,1.11-9.36,7.02-9.64,6.73-.31,11.48,4.06,12.09,4.65.82.47,3.1,1.92,2.93,3.17-.02.18-.1.39-.28.59.42.31.89.73,1.16,1.2-.24-2.28-.23-4.68.17-7.15.93-5.76-.51-10.12-4.3-12.96-2.82-2.12-5.92-2.56-5.96-2.56l.19-1.1c.14.02,13.69,2.03,11.3,16.78-2.26,13.96,8.12,25.77,8.23,25.88l-.49.35s6.21.62,7.16-4.17c.95-4.79,3.88-4.79,3.88-4.79,8.45.23,12.42-5.33,12.42-5.33,7.16-12.36,3.62-14.45,3.62-14.45,0,0-3.79-2.32-8.62-1.47-4.83.85-4.74.08-4.74.08C108.02,4.44,98.32,1.42,98.32,1.42c0,0-10.09-2.09-15.91,0-5.82,2.09,1.03,11.36,1.03,11.36,0,0-2.46-.58-14.1-.58s-16.94.58-16.94.58l3.88-4.52s.52-4.52-12.42-5.45c-12.93-.93-13.19,10.43-13.19,10.43,0,0-8.02,4.98-16.68,7.53-8.67,2.55,2.33,14.03,2.33,14.03,0,0,6.65,5.03,11.89,10.96.37-.3,7.81-6.58,9.28-24.6v-.07c.1-.38,2.19-9.32,8.82-12.89l.64.96c-5.97,3.21-8.08,11.53-8.22,12.12-1.54,18.88-9.39,25.09-9.73,25.34l-.4-.41c1.76,2.03,3.33,4.16,4.4,6.21,2.44,4.7,2.13,11.64,1.42,16.73-.64,4.6.28,9.26,2.68,13.36l.04.06s-1.03,5.8,1.98,15.07c3.01,9.26,10.5,6.58,10.52,6.57l.56-.24,3.4,6.27c1.62,5,3.39,6.09,4.3,6.29,1.07.24,1.87-.47,1.9-.5l.68-.62.35.81c2.38,5.59,10.35,9.92,12,10.76l1.3-.68c12.49-8.13,16.34-19.96,16.38-20.08l.29-.9.75.66c.61.54,1.3.76,2.09.67,2.98-.32,6.71-4.8,7.89-6.5l1.06.59c-.19.27-4.63,6.57-8.8,7.02-.86.09-1.65-.06-2.36-.45-1.1,2.83-5.6,12.78-16.59,19.92l-.05.03-1.94,1.01-.31-.15c-.4-.19-9.42-4.57-12.56-10.83-.55.28-1.37.54-2.36.33-2.07-.46-3.82-2.82-5.2-7.02l-2.82-5.18-.57.11-8.8,15.8-14.2,25.07s-3.6,4.94.21,17.47c3.81,12.54.42,23.17.42,23.17,0,0-3.18,17.47-3.6,22.22-.42,4.75-11.23,11.02-11.23,11.02-19.07,13.68-9.4,45.08-9.4,45.08-3.92,10.54,4.13,14.43,4.13,14.43h13.99l-.59-.18c.06-.16,6.22-16.46,8-37.18,1.82-21.23.23-27.34.22-27.39l1.21-.27c.07.25,1.66,6.25-.18,27.75-1.79,20.87-8,37.3-8.06,37.46l-.59-.18c-2.65,4.84-2.12,12.25-2.12,12.25,0,0,4.45,2.75,21.09,3.61,16.64.85,21.4-4.46,21.4-4.46,0,0,2.97-8.26,3.18-9.59.02-.1.06-.2.11-.29l-.62-.09c.08-.41,7.64-41.12,3.48-68.45l-3.48-17.31,1.23-.2,3.48,17.33c3.87,25.37-2.29,62.1-3.34,68,1.11-.69,2.88-1.08,2.88-1.08h32.64l3.07.82c2.71,3.97,13.69,2.46,16.46,2.01-1.03-1.78-10.42-18.62-10.02-40.7.42-22.93-6.23-35.14-6.29-35.26l-6.58-12.74,1.13-.47,6.57,12.73c.06.11,6.84,12.53,6.42,35.76-.42,22.95,9.85,40.14,9.96,40.31l-.55.27c2.12,4.18,12.43,6.84,12.43,6.84,1.41,5.95,8.88,6.08,8.88,6.08,0,0,7.37,1.14,22.35,1.27,14.98.13,9.25-5.7,9.25-5.7,4.66-3.61,0-9.88,0-9.88ZM124.65,24.92l1.18.36c-3.56,9.24-10.28,13.17-10.57,13.34l-.67-.94c.07-.04,6.65-3.9,10.06-12.76ZM79.66,31.84s2.99-1.55,3.72.66c.73,2.21,2.93,3.81,2.93,3.81,0,0,.4,3.34-3.59,1.91-3.99-1.43-3.06-6.38-3.06-6.38ZM82.36,54.92l1.53,1.25-.84.83-1.55-1.27c-2.17-1.96-4.33-2.86-6.43-2.69-3.22.26-5.33,2.95-5.35,2.98l-1.03-.63c.1-.13,2.45-3.15,6.26-3.46,2.49-.2,4.99.81,7.41,3ZM68.22,70.95c-5.52.08-7.42-5.95-7.42-5.95,0,0-.69-1.55,0-4.1.69-2.55,8.28-3.09,8.28-3.09h1.08c4.4-.68,7.18.82,7.18.82,0,0,1.29.32,1.58,5.27.29,4.96-5.95,6.64-7.02,6.69-1.07.06-1.75,2.67-1.68,1.97.06-.7-2-1.62-2-1.62ZM77.76,46.83l-.14,1.11c-4.69-.46-8.61,6.37-8.65,6.44l-1.11-.5c.17-.31,4.34-7.61,9.9-7.05ZM41.53,28.58h-.03l-.09-.02c-.99-.27-1.25-.77-1.29-1.14-.17-1.53,3.47-3.6,5.6-4.67-.37-.54-.77-1.39-.37-2.12.41-.75,1.46-1.08,3.19-1.01.61.02,1.22.04,1.82.06,4.09.11,8.31.23,10.99,2.88,3.18,3.15,1.63,5.14,1.56,5.22l-.5-.33-.51-.32c.04-.06.98-1.39-1.47-3.82-2.32-2.3-6.1-2.4-10.11-2.51-.61-.02-1.23-.03-1.84-.06-1.3-.05-1.89.16-2.01.39-.17.32.26,1.05.64,1.45l.49.52-.67.33c-3.29,1.59-5.7,3.4-5.57,3.88,0,0,.05.08.33.16h3.11l-1.24.98c-2.34,1.85-4.35,3.83-4.65,4.56.14,0,.38-.02.77-.11l5.63-1.26.08.63s.07.38.45.56c.48.24,1.34.13,2.42-.31,3.44-1.38,8.25-3.03,8.3-3.05l.45,1.04s-4.83,1.66-8.23,3.03c-1.5.6-2.7.69-3.56.25-.43-.22-.69-.52-.84-.79l-4.39.98c-.23.05-.65.14-1.07.14-.46,0-.93-.11-1.17-.52-.49-.83.79-2.52,3.79-5.03ZM51.04,40.15c-4.15,1.49-3.73-1.98-3.73-1.98,0,0,2.28-1.67,3.04-3.96.76-2.29,3.87-.68,3.87-.68,0,0,.97,5.14-3.18,6.63ZM50.56,50.88l.14.54.15.54c-.06.01-3.39.8-6.54,4.37-.01.02-.02.05-.04.07h-.02c-2.55,2.92-4.97,7.68-5.39,15.36l-.63,9-1.24-.07.63-8.99c.44-8.11,3-13.12,5.72-16.18,4.3-8.73,12.25-13.65,12.59-13.86l.7.92c-.07.04-6.12,3.79-10.42,10.36,2.27-1.6,4.15-2.03,4.34-2.07ZM53.17,53.34c3.95-2.55,12.47,1.51,13.97,2.26-5.43-4.43-12.89-3.54-12.97-3.53l-.18-1.1c.33-.04,8.28-.99,14.15,3.94l-.82.78s.03.02.04.02l-.62.96c-2.56-1.33-9.84-4.36-12.83-2.43l-.73-.91ZM54.06,83.43c-.96-10.48,1.68-15.55,1.79-15.77l1.12.48s-2.6,5.06-1.68,15.19l-1.24.09ZM68.05,116.09c-.17-.11-1.86-1.39-8.75-11.17-7.15-10.16-1.09-18.66-1.03-18.74l1.04.61h0c-.24.33-5.67,8.01,1.04,17.53,6.77,9.61,8.42,10.86,8.44,10.87l-.74.9ZM69.15,79.33c-7.06,0-9.84-.07-9.76-.05l-.49-1.07c.1-.13,2.48,0,10.25,0s8.81.1,12.07.09l-.81.95c-3.03-.24-3.93.07-11.27.07ZM85.69,96.2c-1.28,5.28-3.61,8.16-3.71,8.28l-1-.66s2.27-2.83,3.5-7.86c1.19-4.89-2.59-9.08-2.63-9.12l.96-.71c.17.19,4.2,4.64,2.88,10.07ZM90.96,88.37l-1.2-.28c3.44-11.8-1.97-16.2-2.03-16.25l.81-.85c.25.19,6.08,4.83,2.42,17.37ZM91.93,55.91c-4.1-8.7-12.28-13.77-12.37-13.82l.7-.92c.35.21,8.56,5.3,12.81,14.31l-1.15.43ZM98.98,61.21c-1.21-5.79-6.78-9.29-6.83-9.32l.71-.92c.25.15,6.04,3.8,7.35,10.04l-1.22.21ZM82.65,142.75c-.39.11-.79.16-1.18.16-3.58,0-7.3-4.08-7.47-4.27l.97-.7c1.16,1.29,4.75,4.48,7.31,3.74,3.37-.97,8.91-5.17,8.97-5.21l.81.85c-.23.18-5.79,4.39-9.4,5.42Z"/>
    </g>
  </g>
</svg>