<?xml version="1.0" encoding="UTF-8"?>
<svg xmlns="http://www.w3.org/2000/svg" version="1.1" viewBox="0 0 175.66 296.14">
  <defs>
    <style>
      .cls-1 {
        fill: #f190b8;
      }
    </style>
  </defs>
  <!-- Generator: Adobe Illustrator 28.7.1, SVG Export Plug-In . SVG Version: 1.2.0 Build 142)  -->
  <g>
    <g id="Capa_1">
      <path class="cls-1" d="M169.26,211.88c-9.36-14.97-8.91-25.43-8.91-25.43,0,0-6.19-21.8-15.7-26.74,0,0-2.11-1.31-3.17-6.25-1.06-4.94-9.66-26.45-9.66-26.45l-11.17-26.74-.94-2.25,7.13-5.52-2.6,3.38s32.98,12.64,31.4-17.44c-1.59-30.09-20.6-46.66-20.6-46.66l-9.74-7.41S118.5,4.15,90.12.81c-28.38-3.34-52.08,11.92-52.08,11.92,0,0-10.53,8.61-14.6,17.04,0,0-56,68.06,5.13,70.02,0,0,5.85-.47,6-4.11.02-.55.08-.81.16-.85l-.58.18c-.08-.23-7.53-23.26-6.18-38.25l1.82-10.51,1.25.2-1.81,10.46c-1.33,14.7,6.06,37.5,6.13,37.73l-.62.19c.47-.1,1.63,6.24,1.63,6.24,0,0-.91,14.53-6.34,19.91-5.43,5.38-10.45,50.51-10.45,50.51,0,0-1.28,21.8,1.81,27.11l7.02,17.55s-8.83,1.74-11.09,12.64c-2.26,10.9-1.13,19.84-1.13,19.84,0,0,2.49,3.27,7.7,0,5.21-3.27,2.94.36,2.94.36,0,0-12.23,12.94-6.34,22.96,5.89,10.03,25.51,14.83,25.51,14.83,0,0,26.87,3.92,34.42-14.1,0,0,.29-.9.85-1.96l-.6-.19c.05-.15,5.13-14.86,2.37-20.19l1.14-.55c2.37,4.57-.31,14.72-1.64,19.08.73-.81,1.63-1.44,2.71-1.47.96-.02,1.51.53,1.8,1.3.77-4.3,2.75-14.03,5.22-16.14l.84.91c-2.25,1.93-4.47,13.16-5.13,17.33l-.63-.09c0,1.4-.29,2.72-.29,2.72,0,0,2.57,8.72,22.64,16.71,20.08,7.99,30.64,5.38,30.64,5.38,0,0,14.19-1.74,15.32-20.71,1.13-18.97,7.7-15.7,7.7-15.7,0,0,3.85,2.62,5.89-6.32,2.04-8.94,5.89-15.92,5.89-15.92,0,0,3.47-10.03-5.89-25ZM137.34,64.73l-2.94-13.26,1.24-.25,2.94,13.3c2.75,18.95-11.25,28.37-11.4,28.47l-.72-1.01c.14-.09,13.49-9.11,10.86-27.24ZM27.93,246.87l-1.16-.5c.06-.14,6.35-14,2.73-26.28l1.22-.33c3.75,12.71-2.52,26.53-2.79,27.11ZM84.12,47.16c9.8-3.06,17.06-1.67,19.96-.84-.27-1.62-.61-5.39,1.88-6.32l.46-.17c2.59-.97,5.51-.98,8.03.15,1.8.81,3.33,2.16,3.15,4.45-.41,5.33-5.19,6.25-5.19,6.25l-2.57.33s-2.86-2.77-4.64-3.66l-.25.56c-.08-.03-8.35-3.36-20.43.42-12.17,3.8-22.76,15.9-22.86,16.02l-.97-.78c.44-.51,10.93-12.49,23.45-16.4ZM100.61,59.04l-5.19,4.92-3.65-1.09c-4.24-1.12-6.71-2.7-8.13-4.03-1.36-1.27-1.48-3.33-.28-4.75,1.55-1.85,4.2-4.33,7.68-5.03,5.76-1.17,10.7,3.59,10.7,3.59,3.1,2.19-1.13,6.4-1.13,6.4ZM102.57,73.07l-.48,1.13c-6.46-2.53-10.98,2.73-11.02,2.78l-.99-.77c.05-.06,5.16-6.02,12.49-3.15ZM56.89,49.9c2.35-1.44,5.24-1.79,7.94-1.16l.48.11c3.32.78,2.67,6.79,2.67,6.79-1.38,0-5.03,4.61-5.03,4.61h-2.59s-4.86-.31-6-5.54c-.49-2.24.84-3.78,2.52-4.81ZM57.42,144.27c-.82.54-1.77.82-2.74.82-.45,0-.91-.06-1.36-.19-1.4-.39-2.53-1.35-3.11-2.64l-.78-1.72,1.17-.49.78,1.72c.43.95,1.27,1.66,2.3,1.95,1.03.29,2.14.12,3.02-.46l5.28-3.47.72,1.01-5.28,3.47ZM81.8,150.02c-.82.54-1.77.82-2.74.82-.45,0-.91-.06-1.36-.19-1.4-.39-2.53-1.35-3.11-2.64l-.78-1.72,1.17-.49.78,1.72c.43.95,1.27,1.66,2.3,1.95s2.13.12,3.02-.46l5.28-3.47.72,1.01-5.28,3.47ZM97.49,134.74c-.82.54-1.77.82-2.74.82-.45,0-.91-.06-1.36-.19-1.4-.39-2.53-1.35-3.11-2.64l-.78-1.72,1.17-.49.78,1.72c.43.95,1.27,1.66,2.3,1.95,1.03.29,2.13.12,3.02-.46l5.28-3.47.72,1.01-5.28,3.47ZM79.79,108.3c-2.58.28-5.02.4-7.31.4-13.22,0-21.73-4.22-26.76-8.09-6.42-4.94-8.65-10.27-8.75-10.5l1.18-.45c.09.21,9.01,20.91,41.49,17.41,32.57-3.5,38.99-8.5,39.05-8.55l.84.92c-.25.21-6.53,5.27-39.75,8.84ZM154.21,272.46c0-.08-.99-8.1-2.16-16.22-.67-4.66-1.73-11.41-2.5-16.25-.66-4.13-.93-8.33-.81-12.48.86-30.01-4.89-57.54-4.95-57.82l1.24-.24c.06.28,5.84,27.94,4.97,58.1-.12,4.08.15,8.2.8,12.27.77,4.84,1.83,11.6,2.51,16.26,1.18,8.13,2.15,16.17,2.16,16.25l-1.26.14Z"/>
    </g>
  </g>
</svg>