<?xml version="1.0" encoding="UTF-8"?>
<svg xmlns="http://www.w3.org/2000/svg" version="1.1" viewBox="0 0 175.66 296.14">
  <defs>
    <style>
      .cls-1 {
        fill: #f190b8;
      }
    </style>
  </defs>
  <!-- Generator: Adobe Illustrator 28.7.1, SVG Export Plug-In . SVG Version: 1.2.0 Build 142)  -->
  <g>
    <g id="Capa_1">
      <g>
        <path class="cls-1" d="M162.54,249.4c1.65.52,6.6-2.93,10.26-6.43l.13-.11c.1-.08,2.96-2.53,1.01-10.87-.4-1.68-1.04-2.67-1.97-3.01-2.3-.86-6.15,2.01-7.76,3.47-.56,3.09-1.16,4.64-1.84,5.36.75,2.8,1.48,7.33.14,11.58,0,0,.02.01.03.01Z"/>
        <path class="cls-1" d="M108.61,24.66c-2.36,1.36-3.74,2.97-4.08,4.78-.37,1.93.55,3.69.86,4.23,1.64,1.25,3.1,1.69,4.35,1.29,1.45-.46,2.74-2.03,3.85-4.68.86-2.07,1.28-4.4,1.23-6.78-2.02-.27-4.16-.02-6.21,1.16Z"/>
        <path class="cls-1" d="M20.14,236.75c.47-.66,1.31-.75,1.87-.2.56.55.64,1.54.17,2.2-.12.17-12.15,17.31-9.5,28.95.91,4.01,3.44,6.86,7.73,8.72l.57.25.22.67c.04.12,4.06,12.27,11.8,14.49,4.37,1.25,9.22-.88,14.41-6.33,13.47-14.14,15.51-21.92,15.8-24.3.05-4.09,0-8.34-.21-12.35-1.28-.27-2.43-.62-3.44-1-4.8-1.81-8.36-6.3-9.28-11.71-.47-2.78-.15-5.03.96-6.69,1.16-1.74,3.12-2.69,5.83-2.82,1.56-.08,2.92.62,4.09,2.06,2.52,3.13,3.8,9.85,4.37,17.41,3.38.37,7.5-.01,12.15-2.09.69-.31,1.45.1,1.71.9.26.81-.08,1.71-.77,2.02-4.89,2.19-9.27,2.64-12.9,2.33.64,12.59-.36,26.4-.62,29.57,1.39,6,3.75,9.81,7.04,11.33,5.76,2.68,12.68-2.37,12.75-2.42l1.28-.95.63,1.62c4.28,10.94,21.66,3.72,24.3,2.55.93-1.52,4.82-8.45,4.82-18.37,0-12.56,12.62-24.63,13.16-25.14.57-.54,1.4-.43,1.87.24.46.67.37,1.65-.2,2.2-.12.11-12.17,11.64-12.17,22.7,0,7.89-2.18,13.97-3.83,17.43h1.9s.15.01,1.07-.47c-1.15-2.39-.19.34,0,0,.4-.72,1.22-.92,1.84-.45,8.5,6.53,15.35,8.38,20.37,5.49,7.69-4.43,8.77-18.78,8.78-18.92l.14-1.98,1.61.63c2.95,1.15,5.16.97,6.57-.55,3.73-4.03,2.14-16.56,1.22-21.05l-.16-.79.46-.61c3.77-5.05,1.34-12.7.71-14.46-.08-.17-.14-.35-.19-.52l2.09-1.04h-.01c-.28,0-.47.15-.51.21.09-.12.94-1.4,1.85-9.67,1.53-14.01-7.25-17.57-7.63-17.72l-1.6-.62.88-1.69c4.17-7.93,3.6-16.41-1.81-26.67l-.18-.34c-1.06-1.94-2.5-3.46-4.18-4.45-.06,1.29-.16,2.6-.29,3.95-.34,3.46-1.23,6.58-2.66,9.27-.75,1.43-3.52,6.1-7.5,6.46-2.18.18-4.19-.95-5.98-3.4-2.94-4.04-2.66-9.18.78-14.47,2.67-4.12,6.92-6.47,11.33-6.25.6.03,1.18.1,1.75.21-.24-25.46-14.77-36.03-15.45-36.51-.63-.44-.29.8.09.06,0,0-1.65-1.5-1.65-1.51l-1.34-.92-6.94-4.53-2.14-.97c-.29.38,1.52,2.48,1.17,2.8-.24.23-.1-2.49-.38-2.49-.39,0-.78-.2-1.05-.6-.45-.68-.35-1.66.22-2.19,1.66-1.53,2.69-4.82,2.94-5.95l.86-3.84.14.3c1.26-5.77,2.15-17.61-9.45-23.95-.13-.08-4.8-3.1-9.49-3.27-.73-.03-1.31-.75-1.29-1.61.02-.84.61-1.51,1.33-1.51h.04c5.35.19,10.4,3.47,10.61,3.61,15.57,8.5,11.33,26.13,10.04,30.37,1.11.92,3.83.08,5.07-.54l.59-.29.56.35c4.93,3.12,9.36,3.83,13.18,2.1,6.31-2.86,8.99-11.53,9.02-11.61l.21-.7,2.79-1.17c2.2-1.93,3.44-4.32,3.8-7.31,1-8.3-5.34-17.95-5.41-18.04l-.29-.43v-.55c.33-23.98-18.1-29.24-18.29-29.29l-.97-.26-.06-1.16c-.63-11.88-9.08-19.93-9.17-20.01-.06-.05-3.13-2.94-7.19-4.33-.03,2.63-.54,5.21-1.5,7.52-1.46,3.49-3.33,5.62-5.55,6.32-2.06.66-4.32.02-6.7-1.86l-.29-.3c-.09-.13-2.21-3.21-1.51-7.01.52-2.8,2.37-5.14,5.51-6.95,2.36-1.36,4.77-1.74,7.04-1.55-.11-.54-.23-1.08-.39-1.61-2.42-5.51-5.75-8.88-9.89-10.01-9.08-2.49-19.35,6.37-19.46,6.46-.59.51-1.42.37-1.86-.32-.06-.09-.08-.19-.11-.28l-.77.51s-7.9-9.49-17.58-13.23c6.19,5.02,9.03,13.57,9.08,13.71.26.81-.09,1.71-.77,2.01-.16.07-.32.1-.47.1-.53,0-1.04-.38-1.24-1.01-.24-.72-5.91-17.69-18.87-14.97-.06.01-.12,0-.18,0-1.43,1.5-4.04,5.38-.36,10.97,4.56,3.51,8.09,8.92,8.32,9.28.44.69.33,1.67-.26,2.19-.59.52-1.42.38-1.86-.3-2.2-3.41-9.03-12-14.24-10.93-2.66.55-4.77,3.66-6.27,9.23v3.26l-1.09.23c-.6.13-14.68,3.3-13.33,15.41l.19,1.68-1.44.08c-.05,0-5.72.38-8.35,4.86-1.67,2.84-1.82,6.82-.44,11.84l.23.83-.48.66c-.15.2-14.68,20.34-11.81,33.09.89,3.95,3.35,6.72,7.52,8.48l.54.23.23.61c.09.23,2.31,5.59,9.66,4.86.35-7.26,4.1-14.21,7.14-18.05,9.3-12.44,19.94-3.89,20.05-3.8.6.5.75,1.47.32,2.17-.42.71-1.25.88-1.85.38-.38-.31-8.83-6.98-16.55,3.34-.54.69-12.56,16.2-2.62,27.34,0,0,2.2,2.17,4.78,3.25l3.86,1.79.04,1.01c.04.82,1.1,20.14,20.72,19.64,19.13-.54,20.07-6.86,20.07-6.93l.14-6.42,2.38,5.85c.21.49,5.29,12.13,19.17,5.61,14.46-6.8,17.81-13.97,17.85-14.04.34-.76,1.13-1.06,1.79-.66.65.39.91,1.32.58,2.09-.14.33-3.68,8.2-19.23,15.51-3.35,1.58-6.28,2.2-8.81,2.2-6.55,0-10.49-4.19-12.37-6.96-1.97,2.78-7.27,6.46-21.5,6.86-.3,0-.6.01-.89.01-7.96,0-13.11-3.11-16.45-7.02-.8.69-2,1.76-3.42,3.08.03.04.06.05.09.09.44.69.32,1.67-.26,2.19-6.54,5.77-16.5,16.89-15.42,22.2.35,1.69,1.99,2.85,4.9,3.45l2.21.45-1.4,2.06c-.1.14-9.72,14.44-8.78,24.02.23,2.3,1.04,4.07,2.49,5.41.58.53.67,1.51.22,2.19-.08.13-.2.2-.3.29.27.29.54.57.84.84,0,0-3.85,7.96-6.65,15.85,1.98-3.67,4.71-7.01,8.13-7.01.73,0,1.33.7,1.33,1.56s-.59,1.56-1.33,1.56c-4.45,0-9.63,8.68-10.7,12.62-.18.66-.04.13-.24,1.14-.03.15,0,.24-.02,1.42,0,0,0,0,0,0-.06,1.23.05,2.24.41,2.95,2.79,5.58,8.05,1.38,8.05,1.38M49.83,78.37c-1.24-.03-2.53-.53-3.72-1.85,0,0-3.21-2.39-3.05-6.25,0,0,.11-8.24,7.8-6.25,2.56.66,3.99,2.14,4.76,3.81,2.22,4.83-1.13,10.65-5.79,10.53ZM76.58,107.55s-12.21,3.09-12.81-4.68c-.59-7.77,7.97-7.67,7.97-7.67,0,0-1,.07,2.2,0,3.21-.07,6.61,2.59,6.61,7.18s-3.98,5.18-3.98,5.18ZM92.45,78.28s-5.19-5.54,1.16-11.01c2.12-1.82,4-2.12,5.58-1.69,4.55,1.22,6.07,8.03,2.91,12.07-.84,1.08-2.01,1.89-3.64,2.06,0,0-3.65,1.25-6.01-1.43Z"/>
        <path class="cls-1" d="M143.02,172.98c-3.43,0-6.56,1.81-8.64,5.03-4.03,6.21-1.65,9.48-.87,10.55,1.2,1.65,2.47,2.44,3.76,2.32,2.18-.19,4.29-2.81,5.45-4.99,1.22-2.3,1.98-4.99,2.28-7.98.16-1.6.26-3.15.32-4.66-.59-.14-1.2-.23-1.82-.26-.16,0-.31-.01-.46-.01Z"/>
        <path class="cls-1" d="M57.27,229.74s-.07,0-.11,0c-1.9.09-3.19.64-3.85,1.63-.6.9-.75,2.3-.44,4.14.73,4.3,3.6,7.88,7.49,9.35.73.27,1.54.53,2.42.75-.53-6.71-1.61-12.35-3.57-14.78-.6-.74-1.21-1.09-1.93-1.09Z"/>
      </g>
    </g>
  </g>
</svg>