<?xml version="1.0" encoding="UTF-8"?>
<svg xmlns="http://www.w3.org/2000/svg" version="1.1" viewBox="0 0 175.66 296.14">
  <defs>
    <style>
      .cls-1 {
        fill: #a6cff0;
      }
    </style>
  </defs>
  <!-- Generator: Adobe Illustrator 28.7.1, SVG Export Plug-In . SVG Version: 1.2.0 Build 142)  -->
  <g>
    <g id="Capa_1">
      <g>
        <path class="cls-1" d="M70.53,62.8c-.06,0-.12,0-.18,0l-.35,1.67c.65-.49,1.46-1.11,2.23-1.71-.54.03-1.11.05-1.7.05Z"/>
        <path class="cls-1" d="M175.65,286.06c-.3-6.65-8.14-10.41-8.14-10.41,0,0-2.56-2.46-1.51-14.32,1.06-11.86-7.77-22.4-7.77-22.4l-5.43-11.26s-1.56-3.57-1.01-5.11c.55-1.54.35-2.77.35-2.77,0,0-2.71-10.56-3.7-14.03-.98-3.47-3.32-4.27-3.32-4.27-7.99-3.04-7.84-14.18-7.84-14.18l-5.53-33.56s-.7-6.08-8.04-15.62-4.98-30.57-4.98-30.57l2.26-2.46s2.19-2.39-.53-5.64c-2.71-3.25-7.69-16.42-7.69-16.42,0,0,2.04.36-1.36-15.26-1-4.59-1.38-7.94-1.44-10.39-.44.22-1.14.33-2.12.33-.66,0-1.45-.05-2.36-.15-1.63-.18-2.92-1.38-3.92-2.9.15.36.08.53.02.68-.12.3-.42.44-.66.44v-1.13c-.2,0-.31.1-.37.16-.1.12-.1.24-.1.28-.02-.09-.32-1-4.77-4.96-5.88-5.23-12.66-3.63-12.72-3.62l-.29-1.1c.3-.07,7.47-1.76,13.82,3.88,2.66,2.36,3.97,3.75,4.6,4.6-1.61-2.87-2.32-6.4-2.37-6.64-.07-.55-1.62-12.69-1.11-17.02.47-4.06-2.09-7.81-2.12-7.84l.98-.63c.12.17,2.83,4.13,2.31,8.6-.49,4.2,1.09,16.59,1.1,16.72.48,2.45,2.45,8.99,5.72,9.34,3.26.36,3.82-.06,3.84-.08,0,0-.09.08-.09.26h.59c.04-5.2,1.69-5.82,1.69-5.82,0,0,6.23-9.06,9.85-11.96s3.62-8.49,3.62-8.49c0,0-2.41-7.52-14.08-11.19-11.66-3.66-19.21-12.39-19.21-12.39-.6.89-5.79,2.14-5.79,2.14-4.18.57-7.99.37-11.26-.19l.54.25-3.64,7.33s-3.38,8.42-3.77,11.76c-.3,2.62,4.28,7.89,6.08,9.71l.06.08c.27.39,6.53,9.54,6.93,15.89.03.54.03,1.04,0,1.52.93-1.19,2.36-2.64,3.94-2.83.93-.11,1.78.21,2.51.96,1.08,1.09,1.57,2.62,1.45,4.55-.15,2.58-1.36,5.06-3.42,6.97l-11.37,10.59c-.57.72-7.28,8.92-16.58,8.92-.4,0-.8-.01-1.21-.05-.64.05-5.94.32-7.5-3.92l1.11-.38c1.34,3.66,6.27,3.17,6.32,3.17h.06s.06,0,.06,0c9.52.75,16.75-8.36,16.82-8.45l.06-.07,11.4-10.62c1.84-1.72,2.93-3.93,3.07-6.23.09-1.61-.29-2.85-1.13-3.71-.47-.48-.96-.67-1.5-.61-1.69.21-3.56,2.84-4.14,3.84l-.25-.13c-.96,3.72-3.76,4.79-3.91,4.85l-.07.02c-.12.03-1.08.24-2.52.42l.13.14c-1.66,1.38-4.24,3.29-4.77,3.68l-.67,3.18c-.04.15-3.17,10.54-14.9,10.54-.67,0-1.38-.03-2.11-.11-3.13-.31-5.39-1.56-6.71-3.72-3.13-5.11.02-13.67.9-15.84-1.19-.63-1.82-1.47-1.85-1.52l-.08-.15c-3.97-11.91,2.24-19.77,2.51-20.1l.06-.06,12.67-11.59c.05-.05,5.08-4.63,4.26-8.22-.94-4.12,2.63-10.09,2.78-10.34l1.02.57c-.04.06-3.49,5.84-2.65,9.53.97,4.22-4.37,9.08-4.6,9.29l-12.63,11.56c-.41.54-5.92,8.02-2.32,18.93.22.27,1.23,1.36,2.93,1.62,1.66.25,3.51-.35,5.5-1.78.4-.38,2.66-2.05,8.36,1.49,5.26,3.27,13.72,1.52,14.38,1.38.38-.16,3.77-1.69,3.41-7.23-.37-5.85-6.26-14.62-6.71-15.29-.85-.87-6.77-7.02-6.36-10.58.41-3.49,3.72-11.73,3.86-12.08l3.59-7.23c-7.16-1.34-11.62-4.33-11.62-4.33C52.08-1.77,52.02-.22,52.02-.22c-.7,3.28-6.64,6.94-6.64,6.94,0,0-12.07,5.69-17.6,8.2-5.53,2.51-2.01,11.38-2.01,11.38,0,0,1.61,5.98,3.02,14.27,1.41,8.29-6.23,15.86-6.23,15.86-1.21,4.92,3.47,10.27,3.47,10.27,1.96,11.28-1.76,23.82-1.76,23.82,0,0-3.32,7.14-8.35,16.49-5.03,9.35-5.08,41.76-5.08,41.76,0,0,0,8.2.8,15.33.8,7.14,5.13,15.38,5.13,15.38,0,0,.4,26.62,1.21,33.37.8,6.75-3.59,44.33-3.59,44.33,0,0-1.13,19.67-7.24,21.62-6.11,1.95-6.86,8.83-6.86,8.83-1.73,6.87,4.9,7.96,4.9,7.96h18.4c5.81,0,6.11-4.85,6.11-4.85,0,0,0,1.73.33-2.9-.44-.03-.53-.32-.54-.63h0s0,0,0,0c0-.1,0-.2,0-.29.01-.27.04-2.48.08-3.27.09-1.6.26-4.52.57-9.82.77-13.19,9.18-47.01,9.27-47.35l1.15.26c-.07.28-5.91,23.77-8.29,39.16,2.83-.91,11.2-3.28,14.39-.69.1.08.2.16.29.23l.19-.19c1.43,1.31,1.73,1.59,1.29,2.05-.14.14-.25.23-.4.23-.33,0-.83-.41-2.13-1.46-2.62-2.12-10.57-.03-13.82,1.09-.38,2.56-.64,4.86-.75,6.73-.17,2.89-.3,5.07-.39,6.71.2-.4.35-.4.35-.4l14.03.43s6.11-.36,15.84-1.16c7.58-.62,11.04,1.16,12.2,1.98l.92-.6c4.65-1.71,6.43-17.2,6.72-23.03l4.5-51.13,1.18.1-4.5,51.11c-.04.86-1.15,21.53-7.4,23.98l-.97.65-.34-.46c-1.57,1.14-4.08,4.66-4.08,4.66-3.02,5.59,2.71,8.49,2.71,8.49,0,0,12.57,1.25,20.91,1.06,8.35-.19,8.25-7.62,8.25-7.62,0,0,15.89,3.38,23.43,2.12,7.54-1.25,6.31-5.11,6.31-5.11l17.35.29.23,1.3c.23,1.3,5.2,1.66,5.2,1.66,0,0,4.75.36,13.65,1.01,8.9.65,8.25-3.86,8.25-3.86ZM76.27,23.78h0c-.3,0-1.31-.06-2.16-.87-.9-.85-1.31-2.22-1.21-4.07.08-1.36.6-2.39,1.55-3.06,1.8-1.26,4.52-.71,4.97-.61.49.04,2.41.48,2.97,4.73.16,1.21-.14,2.18-.89,2.87-.99.91-2.56,1.1-3.73,1.1-.73,0-1.31-.08-1.5-.11ZM81.88,33.8s-3.17-.28-3.17-2.89,2.82-2.85,2.82-2.85c0,0,3.37-.58,3.37,2.51s-3.02,3.23-3.02,3.23ZM65.55,45.78c-.2,1.69-1.13,3.22-2.56,4.23l-3.75,2.62s-1.13,1.01-2.94,1.16c-1.81.14-4.75-2.75-4.75-2.75,0,0-2.56-2.03-2.54-7.88.03-5.86,7.29-4.92,7.29-4.92l2.63-.06s6.75.91,6.75,5.4c0,.86-.05,1.59-.12,2.2ZM54.63,18.05c.45-3.4,2.02-3.8,2.45-3.84.38-.09,2.56-.52,4.02.5.78.55,1.21,1.39,1.27,2.51.08,1.49-.25,2.61-.99,3.31-.7.66-1.51.72-1.78.72h0c-.16.02-.61.08-1.18.08-.95,0-2.23-.16-3.04-.9-.63-.57-.88-1.37-.74-2.37ZM55.18,27.44c0,2.61-3.17,2.89-3.17,2.89,0,0-3.02-.14-3.02-3.23s3.37-2.51,3.37-2.51c0,0,2.82.24,2.82,2.85ZM25.44,283.59c-3.72-4.6-13.6-3.27-13.7-3.26l-.17-1.12c.43-.06,10.67-1.43,14.8,3.68l-.93.69ZM33.24,122.12l-.16.2h-.26c-.11.02-10.78.69-14.22,9.67-3.41,8.91-.18,12.09-.14,12.13l.07.08c.17.24,1.61,2.45-1.58,7.75l-1.02-.57c2.62-4.35,1.78-6.25,1.65-6.51-.52-.53-3.56-4.18-.08-13.27,3.39-8.84,13.2-10.2,14.98-10.38.82-1.04,4.63-6.14,4.12-10.05-.17-1.27-.76-2.26-1.82-3.03-6.15-4.48.55-17.33.84-17.87l1.05.51c-.07.13-6.55,12.55-1.18,16.46,1.31.95,2.07,2.23,2.28,3.8.63,4.83-4.31,10.84-4.53,11.09ZM38.29,63.3c-4.59,0-10.02-4.22-10.27-4.41l.75-.88c.06.05,5.9,4.57,10.12,4.12l.13,1.13c-.24.03-.48.04-.73.04ZM34.15,40.87l-.74-.88c.07-.05,6.59-5.22,9.49-13.81,2.64-7.83,5.32-10.05,6.06-10.54l3.3-6.6,1.07.49-3.46,6.92-.18.09s-2.82,1.57-5.66,9.99c-3.01,8.93-9.59,14.13-9.87,14.34ZM41.68,218.98c.08-.05,7.89-5.02,8.27-9.4.1-1.15-.33-2.14-1.31-3.02-6.02-5.37-4.27-12.41-4.19-12.7l1.15.27c-.02.07-1.64,6.69,3.85,11.6,1.25,1.12,1.82,2.44,1.69,3.95-.44,4.93-8.46,10.04-8.8,10.25l-.65-.95ZM59.1,246.37c-.38-.17-9.31-4.21-13.33-11.09l1.03-.55c3.83,6.56,12.71,10.57,12.8,10.61l-.5,1.03ZM72.78,216.81c0-.05-.69-5.46-8.03-11.39-7.95-6.42.72-19.29,1.09-19.84l.99.62c-.09.13-8.47,12.57-1.32,18.35,7.74,6.25,8.42,11.9,8.44,12.14l-1.18.12ZM89.27,157.53l-8.91-15.04c-.4-.65-10.02-16.34-7.02-29.91,3.06-13.81,14.39-13.57,14.51-13.56l-.04,1.13c-.44,0-10.46-.18-13.31,12.67-2.91,13.12,6.78,28.94,6.88,29.1l8.91,15.05-1.03.56ZM89.77,69.63l.03-1.13c1.36.03,13.33.43,14.83,4.83,1.46,4.31-.98,9.45-1.09,9.67l-1.07-.48s2.36-4.96,1.04-8.84c-1.05-3.09-10.27-3.97-13.73-4.04ZM119.04,269.51c-.42-7.25-9.34-8.28-9.43-8.29l.13-1.13c.1.01,10,1.16,10.48,9.36l-1.18.06ZM142.73,252.78l-1.36,6.68-1.16-.22,1.36-6.65c.02-.14,2.36-16.45-9.07-22.83-11.31-6.31-23.28,10.51-23.4,10.68l-.53-.34-3.11,10.36c-.07.63-.78,7.51-.07,15.39.78,8.63-4.06,11.68-4.27,11.81l-.64-.96c.18-.11,4.44-2.85,3.73-10.76-.75-8.35.07-15.59.08-15.66l.02-.09,10.12-33.73.11-.1c.1-.09,2.41-2.4.6-7.74-2.01-5.92.62-11.87.73-12.12l1.08.45c-.03.06-2.56,5.81-.69,11.32,1.84,5.42-.25,8.18-.79,8.78l-6.48,21.61c3.08-3.84,13.71-15.67,24.1-9.87,12.12,6.77,9.67,23.83,9.64,24ZM159.98,274.52c-5.61-.63-9.97,4.83-10.02,4.89l-.94-.68c.19-.25,4.79-6.05,11.1-5.33l-.14,1.13Z"/>
        <path class="cls-1" d="M59.45,20.11h.07s.06,0,.06,0c.05,0,.55,0,.98-.41.47-.46.69-1.3.62-2.43-.04-.77-.3-1.31-.79-1.65-.51-.36-1.18-.45-1.77-.45-.71,0-1.3.14-1.31.14l-.15.02s-1.01.15-1.37,2.86c-.08.63.04,1.09.39,1.4.8.73,2.63.62,3.27.52Z"/>
        <path class="cls-1" d="M79.31,16.31l-.12-.02s-2.56-.62-4.03.41c-.66.46-1,1.18-1.06,2.2-.08,1.48.21,2.58.84,3.19.6.58,1.32.56,1.35.55h.06s.07,0,.07,0c.83.14,3.21.28,4.27-.69.47-.44.65-1.06.54-1.91-.48-3.59-1.9-3.75-1.91-3.75Z"/>
        <path class="cls-1" d="M54.83,65.92c5.63-.11,6.96-3.75,7.24-4.93-.22-.12-.45-.23-.66-.36-5.13-3.2-6.88-1.64-6.89-1.63l-.07.06c-.36.26-.73.49-1.08.71-.73,1.04-2.26,3.76-1.48,5.16.39.69,1.39,1.04,2.95,1Z"/>
        <path class="cls-1" d="M46.22,75.71c1.12,1.83,3.08,2.89,5.81,3.16.7.07,1.37.1,2.01.1,10.79,0,13.6-9.25,13.72-9.67l1.38-6.55c-1.98-.1-4.09-.46-6.01-1.26-.5,1.63-2.29,5.44-8.28,5.56-.07,0-.15,0-.22,0-1.93,0-3.2-.54-3.8-1.6-.8-1.43-.1-3.39.61-4.78-1.2.43-2.35.57-3.46.4-.28-.04-.55-.11-.8-.18-.84,2.08-3.79,10.23-.97,14.82Z"/>
      </g>
    </g>
  </g>
</svg>