<?xml version="1.0" encoding="UTF-8"?>
<svg xmlns="http://www.w3.org/2000/svg" version="1.1" viewBox="0 0 175.66 296.14">
  <defs>
    <style>
      .cls-1 {
        fill: #f190b8;
      }
    </style>
  </defs>
  <!-- Generator: Adobe Illustrator 28.7.1, SVG Export Plug-In . SVG Version: 1.2.0 Build 142)  -->
  <g>
    <g id="Capa_1">
      <g>
        <path class="cls-1" d="M82.41,130.22c-1.22,1.52-3.02,2.3-5.36,2.3s-4.11-.77-5.29-2.29c-1.83-2.35-1.64-5.81-1.45-7.35-.81-.18-1.59-.37-2.34-.59-.18,1-1.29,7.8,1.85,11.83,1.59,2.04,4.06,3.08,7.33,3.08s5.81-1.05,7.47-3.11c2.93-3.66,2.49-9.53,2.26-11.36-.96.28-1.9.49-2.8.65.11,1.69.02,4.73-1.69,6.86Z"/>
        <path class="cls-1" d="M161,265.85s-6.73.77-11.59-2.71-5.05-7.55-5.05-7.55c-1.5-21.5-16.82-49.97-16.82-49.97l9.28-26.21s3.18-9.3,4.3-20.92c1.12-11.62-10.09-23.05-10.09-23.05l.75-3.49,1.12-4.07c2.8-11.62-6.54-18.79-6.54-18.79l-.81-4.52s-1.5-14.72-2.74-25.57c-1.25-10.85,3.49-12.14,3.49-12.14,5.23,1.55,5.73-13.17,5.73-13.17,4.24-10.07,5.23-27.63,5.23-27.63,0,0-.25-22.99-12.71-21.44-12.46,1.55-34.89,37.45-34.89,37.45l-2.99-.77c-9.22-1.55-20.93.52-20.93.52l-3.24-5.17s-5.73-6.71-15.7-20.66C36.83,2.03,32.09.73,32.09.73c0,0-8.97-5.94-14.95,15.5-5.98,21.44,12.71,52.17,12.71,52.17l.9,3.65s-.57,2.04-4.36,15.89l.72.11c-1.45,9.9,6.99,13.71,7.35,13.87l-.57,1.4c-.09-.04-7.87-3.53-8.38-12.18-.7,2.55-1.48,5.42-2.37,8.68-6.73,24.66-.81,35.96-.81,35.96l-3.36,4.78s-4.11,5.29-7.6,20.4c-3.49,15.11,4.8,17.37,4.8,17.37l-2.99,10.82s-3.27,12.4-1.96,23.15c1.31,10.75-4.02,14.53-4.02,14.53-14.77,27.99,1.71,47.26,1.71,47.26,0,0,6.85,6.46,9.35,7.75s2.62,3.49,2.62,3.49c-3.61,8.01,1.87,9.33,1.87,9.33,0,0,15.33.97,23.46.97s5.45-9.36,5.45-9.36l-.72.13c-.1-.6-2.49-14.81,2.1-22.24,4.22-6.83-.56-18.25-.61-18.36l1.34-.61c.21.5,5.15,12.27.51,19.8-4.28,6.93-1.91,21.01-1.89,21.15l-.72.13,12.83,2.07,18.32,2.45c.5,2.84,6.11,4.39,6.11,4.39,0,0,10.47,1.16,18.07.77,7.6-.39,6.48-5.55,6.48-5.55l-.25-6.84,2.99.26c6.6.77,24.67-.13,24.67-.13l15.95,3.1s14.45,2.71,17.94-8.14c3.49-10.85-13.77-12.78-13.77-12.78ZM30.84,54.59c-.32-.68-7.75-16.83-5.48-27.99l1.43.31c-2.17,10.66,5.29,26.86,5.36,27.02l-1.32.66ZM100.55,46.29c7.33,1.8,11.34,18.29,11.51,18.99l-1.42.36c-.04-.16-3.96-16.29-10.42-17.88l.34-1.48ZM85.77,135.04c-1.95,2.43-4.84,3.66-8.6,3.66s-6.6-1.23-8.48-3.65c-3.81-4.91-2.18-12.89-2.11-13.22h.04c-3.66-1.27-6.49-3.11-8.44-5.52-3.1-3.83-2.76-7.63-2.74-7.79l.73.08.73.08s-.28,3.37,2.44,6.7c3.22,3.93,9.38,6.33,17.82,6.93.11,0,10.8.72,16.59-5.1,2.63-2.64,3.87-6.26,3.69-10.77l1.46-.06c.19,4.96-1.2,8.97-4.14,11.92-1.86,1.87-4.14,3.12-6.44,3.95.24,1.69.93,8.44-2.56,12.79ZM78.37,104.34c.12,0,.24,0,.34,0,.29,0,.61,0,.98,0,3.47,0,6.52,2.93,7,5.56.52,2.84-.56,5.8-2.81,7.51-.48.37-1.03.72-1.63,1.03-3.24,1.68-7.04.39-7.04.39,0,0-6.17-3.42-4.98-9.3.86-4.25,5.25-5.05,7.62-5.17-1.05,0-1.87-.02.52-.02ZM108.77,114.54l1.41.4c-.09.35-2.43,8.72-11.79,11.52l-.4-1.46c8.59-2.56,10.77-10.38,10.79-10.46ZM87.97,78.68s.7-4.31,5.84-4.31c3.35,0,5.2,2,6.07,3.39.46.73.59,1.62.42,2.47,0,0-2.29,6.97-7.99,4.16-5.7-2.81-4.35-5.71-4.35-5.71ZM66.56,48.43c3.47-1.97,6.38-2.6,8.67-1.87,1.7.55,2.5,1.7,2.72,2.07.63.71,4.07,5.32,2.14,19.81-1.86,13.98,1.23,15.16,1.26,15.17l.13.04c.45.21,11.13,5.2,13.34,16.56l-1.44.3c-1.97-10.15-11.57-15.02-12.43-15.44-.96-.25-4.26-2.19-2.31-16.84,1.94-14.62-1.75-18.55-1.79-18.59l-.09-.09-.06-.12s-.53-1-1.96-1.44c-1.86-.57-4.45.04-7.48,1.76-7,3.98-4.27,10.75-3.8,11.78,1.12,1.03,9.24,8.77,9.24,16.87,0,8.55-12.72,18.28-13.26,18.69l-.86-1.23c.13-.1,12.66-9.68,12.66-17.47s-8.75-15.75-8.84-15.83l-.11-.1-.06-.13c-.05-.09-4.36-8.98,4.34-13.93ZM59.82,74.37c5.14,0,5.84,4.31,5.84,4.31,0,0,1.36,2.91-4.35,5.71-5.7,2.81-7.99-4.16-7.99-4.16-.17-.85-.03-1.74.42-2.47.87-1.39,2.72-3.39,6.07-3.39ZM54.18,42.57l.5,1.43c-6.65,2.48-14,17.96-14.08,18.12l-1.32-.67c.31-.66,7.69-16.19,14.9-18.88ZM25.55,271.2l-1.44-.3c.01-.06.94-5.86-5.45-23.74-.12-.35-2.95-8.5-.71-13.01l1.3.69c-1.95,3.91.76,11.71.78,11.79,6.6,18.45,5.56,24.32,5.51,24.56ZM40.64,196.45c-.08-.15-8.27-15.38-16.11-20.25l-8.11-5.04.75-1.3,8.11,5.04c8.18,5.08,16.3,20.18,16.64,20.82l-1.28.73ZM44.66,115.47l.4-1.46c9.37,2.8,11.7,11.16,11.79,11.52l-1.41.41c-.02-.08-2.23-7.91-10.79-10.46ZM46.89,153.77l1.11-.99c1.04,1.26,25.41,31.06,27.83,55.04l-1.46.16c-2.38-23.51-27.24-53.91-27.49-54.21ZM64.14,217.19l1.01-1.1c.37.37,9.22,8.89,22.73,3.46,11.13-4.48,11.16-4.43,11.52-3.57.31.73-.45,1.11-.9,1.34l-.1-.2c-.78.24-3.11,1.08-10,3.85-3.37,1.35-6.48,1.87-9.28,1.87-9.16,0-14.92-5.58-14.99-5.65ZM70.3,225.48l.64-.37.63-.38c.12.2,2.93,4.89,12.93-.3l.65,1.36c-3.73,1.93-6.6,2.59-8.77,2.59-4.44,0-5.99-2.72-6.08-2.89ZM88.47,278.11c-2.73,10.74-5.06,13.11-5.16,13.21l-1.01-1.1s2.17-2.34,4.75-12.49c2.63-10.35.4-22.2.37-22.32l1.44-.3c.1.5,2.33,12.31-.39,23.01ZM91.35,247.19l-1.44-.27c.06-.31,1.43-7.84,9.66-19.76l1.19.88c-8.04,11.65-9.39,19.08-9.41,19.15ZM104.46,179.61l-1.27-.76c.09-.16,9.18-16.37,17.14-28.11,7.64-11.26,6.81-15.84,6.8-15.89l1.42-.35c.05.2,1.11,5.12-7.03,17.12-7.93,11.68-16.99,27.84-17.08,28ZM118.6,256.21c-7.97,13.11-4.83,17.4-4.8,17.44l-1.11.99c-.17-.2-4-4.98,4.66-19.24,8.21-13.51,7.5-22.16,7.49-22.25v-.08s.02-7.1.02-7.1h1.46s-.03,7.07-.03,7.07c.07.77.58,9.51-7.71,23.17ZM143.76,274.14h-1.46c0-4.98,5.8-8.75,6.05-8.91l.77,1.29c-.05.03-5.35,3.49-5.35,7.62Z"/>
        <path class="cls-1" d="M98.3,216.9l-.3-.64c0,.1.01.21.05.31.06.15.15.25.25.33Z"/>
        <path class="cls-1" d="M72.91,129.28c.89,1.14,2.28,1.72,4.15,1.72s3.3-.59,4.23-1.75c1.34-1.68,1.44-4.19,1.36-5.66-1.67.22-3.13.27-4.13.27-.84,0-1.37-.04-1.46-.04-1.88-.13-3.64-.35-5.29-.65-.16,1.37-.29,4.27,1.15,6.12Z"/>
      </g>
    </g>
  </g>
</svg>