<?xml version="1.0" encoding="UTF-8"?>
<svg xmlns="http://www.w3.org/2000/svg" version="1.1" viewBox="0 0 175.66 296.14">
  <defs>
    <style>
      .cls-1 {
        fill: #a6cff0;
      }
    </style>
  </defs>
  <!-- Generator: Adobe Illustrator 28.7.1, SVG Export Plug-In . SVG Version: 1.2.0 Build 142)  -->
  <g>
    <g id="Capa_1">
      <path class="cls-1" d="M173.81,232.96c-4.17-14.83-5.45-37.51-5.45-37.51l-.77-38.49,2.17-41.43s.43-15.73-10.56-21.74c0,0-8.56-22.92-23.88-25.98-15.32-3.06-34.33,0-34.35,0l.5.04c0,.08-.65,8.13-2.84,28.65-.96,8.98-1.04,12.49-.96,13.86l.94.29c-.38,1.15-.78,1.37-1.08,1.37-.05,0-.1,0-.14-.02-.65-.13-1.39-.28.25-15.6,2.19-20.51,2.83-28.55,2.83-28.63l.5.04s.89-34.73-16.85-53.36C66.38-4.17,49.91,1.1,49.91,1.1c0,0-16.85,7.97-20.17,24.15-3.32,16.18-3.45,26.72-3.45,26.72l-5.66,24.35s-8.43,35.79-4.6,55.64c0,0,2.94,5.6-.26,12.83-3.19,7.23-3.06,27.58-3.06,27.58v38.61s-1.23,42.61-1.23,42.61v14.14s1.79,1.31-1.96,5.23c-3.75,3.92-9.19,10.79-9.19,10.79,0,0-2.89,7.84,8.68,7.84,10.63,0,11.53-1.79,11.61-2.08-.09.56-.64,6.61,18.52,5.68,20.09-.98,20.77-10.13,20.77-10.13,0,0,4.26-1.96,6.3,1.14s10.22,11.93,23.84,9.81c13.62-2.12,20.09-12.26,20.09-12.26l2.04-3.92,1.02-31.38-.5-.02c.01-.34,1.36-34.56-7.45-66.46-.27-.6-3.68-8.4-4.76-19.23-1.11-11-3.73-15.45-3.75-15.49l.86-.48c.11.18,2.75,4.63,3.89,15.88,1.11,11.06,4.66,18.89,4.7,18.97l.03.07c8.58,31.06,7.58,64.29,7.5,66.65,2.5-.57,13.65-3.41,16.52-9.2,3.23-6.54,3.06,4.25,3.06,4.25,0,0-13.45,16.02,7.66,19.45,21.11,3.43,32.86-16.34,32.86-16.34,0,0,4.17,1.31,0-13.52ZM18.33,116.65l-.14-.95c5.45-.76,8.64-15.71,9.41-21.4l2.81-40.05,1,.06-2.81,40.08c-.12.89-2.95,21.24-10.26,22.26ZM30.35,265.91v.07c.02.22.3,5.33-1.89,8.45l-.83-.54c1.92-2.73,1.75-7.38,1.73-7.82-5.76-26.91.87-34.73,1.15-35.05l.76.62c-.07.08-6.58,7.9-.92,34.27ZM30.35,207.56v.07c.02.22.3,5.33-1.89,8.45l-.83-.54c1.92-2.73,1.75-7.38,1.73-7.82-5.76-26.91.87-34.73,1.15-35.05l.76.62c-.07.08-6.58,7.9-.92,34.27ZM25.8,123.57l-.53-.82c5.1-3.03,7.53-22.01,7.56-22.2l2.04-44.82c0-.13.52-13.85,1.28-24.53.78-10.95,11.3-15.44,11.41-15.48l.4.88c-.1.04-10.07,4.31-10.81,14.67-.76,10.65-1.27,24.36-1.28,24.5l-2.04,44.86c-.1.84-2.52,19.67-8.03,22.94ZM49.18,21.28s3.3-.2,3.7,2.06c.6,3.4-1.44,4.31-1.44,4.31,0,0-5.15,1.14-6.04-2.29-.89-3.43,3.79-4.09,3.79-4.09ZM43.38,112.59c-.01-.18-1.04-15.89-2.56-31.39-1.52-15.58,1.13-29.31,1.16-29.45l.98.18c-.03.14-2.65,13.74-1.14,29.18,1.52,15.52,2.54,31.24,2.55,31.39.08.64,1.84,16.2-8.74,20.21l-.37-.89c9.87-3.74,8.13-19.08,8.11-19.23ZM41.68,213.69v.07c.02.22.3,5.33-1.89,8.45l-.83-.54c1.92-2.73,1.75-7.38,1.73-7.82-5.76-26.91.86-34.73,1.15-35.05l.76.62c-.07.08-6.58,7.9-.92,34.27ZM38.81,164.22v.04s0,.03,0,.03c-.03.21-.76,5.29-3.53,7.95l-.71-.68c2.42-2.33,3.18-6.93,3.24-7.37-.35-27.47,7.7-33.95,8.04-34.21l.31.38.31.37c-.08.06-8.01,6.57-7.66,33.49ZM57,113.79l.76-.62c.29.32,6.91,8.14,1.15,35.05-.02.44-.19,5.1,1.73,7.82l-.83.54c-2.19-3.12-1.91-8.23-1.9-8.45v-.07c5.66-26.37-.85-34.2-.92-34.27ZM62.74,269.13c-.06-.15-6.15-15.17-4.12-31.45,2-16.02-.37-23.42-.4-23.49l.95-.29c.1.3,2.47,7.64.44,23.9-2,16.03,3.99,30.83,4.05,30.98l-.93.35ZM67.41,207.47l-.83.54c-2.19-3.12-1.91-8.23-1.9-8.45v-.07c5.66-26.37-.85-34.2-.91-34.27l.76-.62c.29.32,6.91,8.14,1.15,35.05-.02.44-.19,5.1,1.73,7.82ZM70.43,104.01c-.15-.9-3.52-22.2,2.45-34.5l1.67-8.64.98.18-1.72,8.82c-5.89,12.03-2.43,33.78-2.4,34l-.99.15ZM76.63,221.67l-.83.54c-2.19-3.12-1.91-8.23-1.9-8.45v-.07c5.66-26.37-.85-34.2-.91-34.27l.76-.62c.29.32,6.91,8.14,1.15,35.05-.02.44-.19,5.1,1.73,7.82ZM76.51,52.55c-.13.48-1.01,3.18-5.17,8.6-2.87,3.75-7.01,4.47-9.77,4.47-1.54,0-2.66-.23-2.89-.28-.66-.06-7.74-.95-11.45-10.11-3.71-9.15-7.13-20.68-7.17-20.8l.96-.26c.03.11,3.44,11.61,7.14,20.71,3.58,8.82,10.36,9.48,10.64,9.5h.08c.07.03,7.39,1.73,11.65-3.81,4.36-5.69,5.02-8.29,5.02-8.32l.05-.13,1.53-2.64.87.47-1.5,2.58ZM56.82,49.51c2.6-4.62,6.72-4.37,6.72-4.37,0,0,7.83-.08,7.36,5.27-.47,5.35-4.26,7.07-4.26,7.07,0,0-2.6,1.88-3.7.65,0,0-8.73-4-6.13-8.62ZM85.67,124.24c-8.12-3.9-6.83-25.8-6.77-26.73l-.23-23.87c0-.15.5-12.69,0-28.49-.24-7.47-2.27-13.34-4.33-17.45-.62,1.16-2.3,3.39-4.92.4-3.38-3.86,1.15-5.7,1.15-5.7l.56.06c-.82-1.1-1.37-1.67-1.4-1.7l-.04-.05c-.08-.11-8.39-11.04-14.16-12.57-1.96-.52-3.48-.44-4.53.23-1.18.76-1.37,2.05-1.37,2.06l-.99-.12c0-.07.23-1.73,1.79-2.74,1.31-.84,3.11-.96,5.37-.37,6.02,1.6,14.14,12.19,14.68,12.91.51.54,8.68,9.41,9.18,24.98.5,15.83,0,28.41,0,28.53l.23,23.88c-.01.25-1.31,22.23,6.22,25.84l-.45.86ZM89.24,92.01l-1-.05c0-.1.48-9.98-1.87-40.08-2.34-29.99-13.21-41.82-13.32-41.94l.74-.64c.46.48,11.21,12.2,13.58,42.51,2.36,30.18,1.88,40.1,1.87,40.2ZM95.22,258.37l-.83.54c-2.19-3.12-1.91-8.23-1.9-8.45v-.07c5.66-26.37-.85-34.2-.91-34.27l.76-.62c.29.32,6.91,8.14,1.15,35.05-.02.44-.19,5.1,1.73,7.82ZM127.93,88.25c.59.18,14.65,4.64,26.61,29.61l.04.11c.01.06,1.26,5.94,4.53,7.06l-.34.9c-3.65-1.25-5.01-7.03-5.16-7.72-11.75-24.49-25.83-29-25.98-29.05l.3-.92ZM122.49,187.91c-3-2.42-4.19-7.41-4.23-7.63v-.07c-2.09-26.85-10.58-32.67-10.67-32.72l.56-.8c.36.23,8.97,6.02,11.09,33.41.11.43,1.27,4.95,3.89,7.07l-.64.73ZM125.71,158.83c-3.69-1.27-6.62-5.54-6.74-5.73l-.03-.06c-11.71-24.46-21.79-27.07-21.89-27.09l.23-.93c.43.1,10.59,2.63,22.55,27.59.25.36,2.99,4.21,6.22,5.32l-.34.9ZM129.53,145.53c-3.69-1.27-6.62-5.54-6.74-5.73l-.03-.06c-11.71-24.46-21.79-27.07-21.89-27.09l.23-.93c.43.1,10.59,2.63,22.55,27.59.25.36,2.99,4.21,6.22,5.32l-.34.9ZM137.5,218.39l-.99-.12c.04-.33,4.33-33.02,3.83-50.91l-.51-18.14,1-.03.51,18.14c.51,17.97-3.79,50.73-3.83,51.06ZM148.01,135.35c-3.69-1.27-6.62-5.54-6.74-5.73l-.03-.06c-11.71-24.46-21.79-27.07-21.89-27.09l.23-.93c.43.1,10.59,2.63,22.55,27.59.25.36,2.99,4.21,6.22,5.32l-.34.9ZM149.22,131.02c-3.65-1.25-5.01-7.03-5.16-7.72-11.75-24.49-25.83-29-25.98-29.05l.3-.92c.59.18,14.65,4.64,26.61,29.61l.04.11c.01.06,1.27,5.94,4.53,7.06l-.34.9ZM155.61,231.06l-.83.54c-2.19-3.12-1.91-8.23-1.9-8.45v-.07c5.66-26.37-.85-34.2-.91-34.27l.76-.62c.29.32,6.91,8.14,1.15,35.05-.02.44-.19,5.1,1.73,7.82ZM158.58,165.24c-2.71-2.72-3.33-7.8-3.36-8.02v-.03s0-.03,0-.03c.93-27.02-6.86-33.57-6.94-33.63l.64-.74c.34.27,8.24,6.9,7.3,34.36.06.43.71,5.05,3.08,7.43l-.72.66ZM162.09,112.64c-3.65-1.25-5.01-7.03-5.16-7.72-11.75-24.49-25.83-29-25.98-29.05l.3-.92c.59.18,14.65,4.64,26.61,29.61l.04.11c.01.06,1.26,5.94,4.53,7.06l-.34.9Z"/>
    </g>
  </g>
</svg>