<?xml version="1.0" encoding="UTF-8"?>
<svg xmlns="http://www.w3.org/2000/svg" version="1.1" viewBox="0 0 175.66 296.14">
  <defs>
    <style>
      .cls-1 {
        fill: #f190b8;
      }
    </style>
  </defs>
  <!-- Generator: Adobe Illustrator 28.7.1, SVG Export Plug-In . SVG Version: 1.2.0 Build 142)  -->
  <g>
    <g id="Capa_1">
      <g>
        <path class="cls-1" d="M173.62,235.91c1.34-23.55-12.41-53.68-12.41-53.68,0,0-8.85-15.59-19.18-32.56-10.33-16.97-18.26-33.08-18.26-33.08,2.03-13.33-6.39-20.9-6.39-20.9,8.12-1.39,6.89-6.47,6.89-6.47-.49-7.16,2.46-9.24,2.46-9.24,15.98-8.77,12.79-35.56,12.79-35.56,0,0-4.92-5.77-12.3-18.93-7.38-13.16-14.26-12.47-14.26-12.47-2.46-5.08-19.18-10.16-19.18-10.16-31.97-9.01-55.33,5.54-55.33,5.54l-5.29,3.52s-14.57,11.43-27.85,27.16c-13.28,15.74,2.58,36.74,2.58,36.74l-1.66,5.54s-3.32,8.83,13.46,9.01c16.78.17,19.37-12.47,19.37-12.47l-.74,11.95c-9.59,2.77-12.17,23.73-12.17,23.73,0,0-9.96,24.24-13.8,34.45-3.84,10.2,4.58,24.78,4.58,24.78,0,0,3.69,15.93-1.11,26.32-4.8,10.39,1.84,44.68,1.84,44.68,0,0-2.58,23.21-4.8,33.25-2.21,10.04,3.32,12.81,3.32,12.81,0,0,10.33,2.77,18.81,2.08,8.48-.69,4.06-9.7,3.44-11.78-.61-2.08,11.68-5.2,11.68-5.2,0,0,12.17-.69,12.54,3.46.37,4.16,10.88,1.73,10.88,1.73h10.89l.74,13.16s7.01,3.12,17.34,2.77c10.33-.35,8.48-12.29,8.48-12.29h0s-.72.09-.72.09c-.44-3.23-4.2-31.68-.17-36.16,3.11-3.47,7.15-32.42,8.44-43.28l1.44.15c-.19,1.61-4.74,39.51-8.77,44-1.57,1.75-1.7,8.68-1.31,16.18,1.36-.21,5.2-3.07,8.84-6.64,13.55-13.94,38.72-11.14,38.98-11.11l-.18,1.35c-.25-.03-24.69-2.73-37.74,10.69-2.18,2.14-7.04,6.63-9.82,7.02.41,6.71,1.19,13.66,1.73,17.6l19.21-3.18s31.72-10.74,40.21-13.85c8.48-3.12,2.51-30.77,2.51-30.77ZM93.74,30.14s5.9-2.71,9.9,1.9c0,0,1.2,1.59.68,2.6,0,0-8.61,8.08-13.28,3.81-4.67-4.27,2.71-8.31,2.71-8.31ZM45.57,31.44c4-4.62,9.9-1.9,9.9-1.9,0,0,7.38,4.04,2.71,8.31-4.67,4.27-13.28-3.81-13.28-3.81-.52-1.01.68-2.6.68-2.6ZM33.35,51.21c-7.03-21.87,2.95-35.62,3.05-35.75l1.18.78c-.1.13-9.67,13.38-2.85,34.58,6.99,21.75,5.77,26.01,5.72,26.18l-1.38-.39c.04-.15,1.03-4.41-5.72-25.4ZM42.73,218.1v1.32h-.37c-.99,4.11-7.35,31.28-5.03,44.7l-1.43.22c-2.55-14.74,4.86-44.49,5.17-45.75l.11-.42c-.89-1.41-2.41-4.39-5.23-10.7l1.33-.53c2.28,5.09,5,10.69,5.61,11.25-.02-.02-.08-.06-.16-.09ZM73.41,95.26c-1.54,1.18-3.27,2.5-8.86,2.5-.73,0-1.52-.02-2.39-.07-12.67-.7-19.36-6.69-19.64-6.94l1.01-.97c.06.06,6.62,5.9,18.72,6.56,6.98.38,8.64-.89,10.26-2.12,1.26-.96,2.56-1.95,5.91-2.03l.04,1.36c-2.86.07-3.87.84-5.04,1.73ZM91.68,229.94l-5.65,35.55-1.43-.2,5.66-35.56c.04-.24,3.77-22.93-5.51-33.88l-.08-.11c-.13-.24-3.29-6.01-2.78-10.77l1.44.14c-.44,4.13,2.28,9.36,2.6,9.96,9.62,11.43,5.92,33.93,5.76,34.88ZM95.1,84.99l-.04.15c-.19.46-.8,1.28-1.92,1.47-1.58.26-3.56-.86-5.85-3.34-5-5.4-8.18-7.61-8.21-7.63-.19-.14-4.24-3.05-7.67.16-3.89,3.65-10.03,9.3-10.09,9.36-.88.93-2.83,2.22-5.24,2.22-1.02,0-2.11-.23-3.24-.81-4.09-2.11-4.15-3.66-3.94-4.28.06-2.37,1.07-29.97,15.8-42.98.61-1.25,5.94-12.59,5.78-25.07-.1-.81-.7-6.55,1.24-8.6.49-.51,1.11-.78,1.81-.78h2.14c.21,0,.79.02,1.38.57,1.32,1.22,1.77,4.13,1.32,8.65-.98,10.03-.75,22.53,1.34,25.23.48.62,1.45,1.18,2.68,1.89,4.27,2.46,11.41,6.57,12.09,22.2.84,19.36.63,21.43.61,21.6ZM103.54,91.86c2.31,2.38,5.98,3.44,10.87,3.14l.09,1.35c-.57.04-1.14.05-1.68.05-4.54,0-8.02-1.22-10.36-3.64-4.22-4.36-3.15-10.95-3.1-11.23.07-.44,1.79-11.05,10.36-18.74,8.13-7.3,4.06-44.95,4.02-45.33l1.44-.14c.17,1.58,4.18,38.69-4.46,46.45-8.2,7.36-9.91,17.86-9.93,17.96-.01.07-1.01,6.24,2.75,10.11ZM121.16,189.74l-1.12-.86c.12-.14,11.78-13.98,8.45-40.77l1.43-.16c3.41,27.4-8.27,41.21-8.76,41.78Z"/>
        <path class="cls-1" d="M81.65,42.35c-1.36-.79-2.44-1.41-3.09-2.25-2.7-3.48-2.42-17.89-1.61-26.15.51-5.16-.29-6.9-.81-7.47-.23-.26-.41-.27-.41-.27h-2.18c-.29,0-.52.1-.73.33-1.31,1.38-1.08,5.94-.88,7.58v.07c.19,13.51-5.91,25.7-5.97,25.82l-.06.12-.1.09c-14.72,12.87-15.44,41.93-15.45,42.23v.16s-.05.08-.05.08c0,.14.17,1.12,3.24,2.71,3.73,1.93,6.62-1.03,6.74-1.16.1-.09,6.22-5.73,10.11-9.38,3.47-3.26,7.78-1.61,9.57-.28.11.08,3.3,2.29,8.42,7.82,2.53,2.73,3.9,2.98,4.5,2.9.47-.07.71-.4.8-.56.03-.52.13-3.89-.63-21.27-.65-14.9-7.12-18.63-11.4-21.1ZM81.03,64.72c-1.39,1.41-3.18,3.1-4.48,3.96-2.46,1.62-4.56,0-4.56,0,0,0-5.77-1.96-8.23-8.77-1.23-3.41.46-5.63,2.46-7,1.87-1.28,4.17-1.89,6.49-1.89h2.56c6.09,0,8.07,2.86,8.52,5.71.46,2.9-.64,5.84-2.77,7.99Z"/>
      </g>
    </g>
  </g>
</svg>