<?xml version="1.0" encoding="UTF-8"?>
<svg xmlns="http://www.w3.org/2000/svg" version="1.1" viewBox="0 0 175.66 296.14">
  <defs>
    <style>
      .cls-1 {
        fill: #a6cff0;
      }
    </style>
  </defs>
  <!-- Generator: Adobe Illustrator 28.7.1, SVG Export Plug-In . SVG Version: 1.2.0 Build 142)  -->
  <g>
    <g id="Capa_1">
      <g>
        <path class="cls-1" d="M90.89,60.56c2.42.46,5.56,2.14,6.29,2.55l-.38-.8s-.43-1.09-3.23-2.32c-2.31-1.01-3.82-.54-4.27-.34,0,.06,0,.15.06.24.1.16.43.46,1.53.67Z"/>
        <path class="cls-1" d="M56.86,53.64c.06-.09.06-.18.06-.24-.24-.1-.77-.28-1.56-.28-.71,0-1.62.15-2.71.63-2.8,1.23-3.23,2.31-3.23,2.33l-.02.04-.36.75c.73-.41,3.87-2.09,6.29-2.55,1.1-.21,1.43-.51,1.53-.67Z"/>
        <path class="cls-1" d="M7.18,281.44c1.23-.51,7.25-3.31,9.3-9.58,2.26-6.88,4.28-12.62,4.47-13.14.15-1.21,3.62-29.09,3.35-34.38l-.26-5.08c-1.08,1.17-2.86,2.41-5.75,3.58-9.61,3.87-13.44,29.53-13.44,29.53l-2.05,15.1s1.49,8.78,3.08,11.16c.95,1.42,1.23,2.31,1.3,2.8Z"/>
        <path class="cls-1" d="M63.2,101.61h-13.38c.49.21,1.02.41,1.61.59,7.61,2.36,15.14,3.1,17.97,3.39.86.09,1.2.12,1.39.17.22,0,.74-.03,1.45-.12l-9.04-4.03Z"/>
        <path class="cls-1" d="M174.36,289.4s-5.64-4.35-7.74-6.02c-2.1-1.67-3.17-1.26-3.17-1.26,0,0-2.19.39-6.02-.35-3.83-.74-10.73-9.86-10.73-9.86,0,0-6.72-11.31-9.7-17.41-2.99-6.1-8.58-32.43-8.58-32.43l-3.92-22.43-2.52-9.37c-2.52-9.37-1.4-14.28-1.4-14.28,0,0,1.82-9.37,4.06-20.42,2.24-11.05-2.71-22.8-2.71-22.8,0,0-.38-.64-.9-1.86-.35.66-1.06,1.07-1.11,1.1l-19.93,13.22-.7-.67,19.97-13.24s1.08-.63.82-1.34l.53-.12c-.72-1.92-1.56-4.74-2.03-8.39-.93-7.29-3.03-9.74-3.03-9.74,0,0-3.92-4.02-5.18-8.59-1.26-4.57,2.36-6.81,2.36-6.81l.47-20.83s-.7-3.79.98-9.26c1.68-5.47,4.69-6.42,4.69-6.42,6.37,1.84,8.75-13.28,8.75-13.28,2.87-2.29,4.8-12.16,4.8-12.16,4.34-11.05,0-15.84,0-15.84-9.1-2.68-19.97,6.21-19.97,6.21,0,0-15.25,13.05-17.21,14.39-1.96,1.34-3.22,1.23-3.22,1.23l-12.04-2.79s-4.62-.78-8.82-1.23c-4.2-.45-4.62-5.76-4.62-5.76,0,0-4.48-14.13-7.46-20.98-2.99-6.84-10.45-8.33-10.45-8.33,0,0-2.4.17-5.41,3.18s-7.46,19.53-7.46,19.53c0,0,1.07,3.68-2.33,9.33-3.41,5.65-.82,9.39-.82,9.39,4.25,2.27,2.85,4.35,2.85,4.35,0,0,.04.88.02,2.3,3.19-1.1,10.9-4.21,11.6-6.54l1.07.2c-.97,3.25-11.28,6.82-12.46,7.22l-.21-.4c-.1,5.12-.9,15.93-5.8,20.28-6.53,5.8-3.55,16.36-3.55,16.36,0,0,6.81,10.77,8.35,12.37.94.98.97,2.15.84,2.91l.52-.14c.06.15,6.66,15.02,19.84,19.25,12.99,4.16,32.05-2,32.85-2.26,6.93-3.02,18.08-8.34,18.57-9.83l1.06.22c-.76,2.3-16.07,9.06-19.13,10.39l-.05.02c-.61.2-11.48,3.8-22.63,3.8-3.8,0-7.62-.42-11.08-1.53-12.2-3.91-18.72-16.11-20.16-19.12,0,0,0,0,0,0-8.26,7.25-7,15.84-7,15.84,0,0-1.24,5.68-2.8,12.28l.39-.31,13.42,10.63-.77.62-13.15-10.42c-1.04,4.36-2.2,9.06-3.24,12.76-2.66,9.48,2.8,44.85,2.8,44.85l.56,25.4s1.15,2.1-.9,4.65l.73-.02.28,5.47c.28,5.44-3.21,33.35-3.36,34.54l-.02.08c-.02.06-2.13,5.99-4.47,13.16-2.42,7.37-9.82,10.13-10.13,10.24l-.23-.4s-5.92,5.84-6.95,8.52c-1.03,2.68,1.59,4.57,1.59,4.57,0,0,24.35,1.47,29.04.91s4.13-2.4,4.13-2.4h-.55v-12.36c.22-1.25,2.18-12.26,4.52-13.81,1.46-.97.66-7.84-.19-11.94-.02-.16-.38-3.24.18-6.82.55-3.54,6.29-30.54,6.35-30.81l4.86-14.17,1.06.23-4.85,14.13c-.03.13-1.79,8.46-3.46,16.47.36,1.04,4.13,11.64,9.34,13.8l-.5.78c-4.54-1.87-7.88-9.14-9.25-12.6-1.18,5.71-2.24,10.88-2.46,12.29-.55,3.48-.19,6.57-.19,6.6.38,1.83,2.17,11.16-.19,12.72-1.51,1-3.33,8.63-4.12,13.23v12.27h.08l37.2.41,13.67.3c-.18-.79-1.16-6.03,2.4-9.93,2.07-2.26,5.27-3.61,9.51-4l9.4-.23.03.87-9.35.22c-3.87.36-6.81,1.59-8.7,3.64-3.5,3.82-2.21,9.29-2.19,9.34l-.54.08c33.87,1.41,34.22-.93,34.22-.93,0,0,1.45-1.71,1.17-3.91-.28-2.19,1.4-1.82,1.4-1.82l12.88,4.57-9.48-15.27-9.14-23.95-12.86-25.85-4.28-10.47c-1.84,4.34-8.05,18.32-13.28,22.09l-.73-.65c5.61-4.04,12.75-21.15,13.44-22.84l-3.58-8.75v-5.87h1.1v5.73l8.37,20.46,12.86,25.86,9.14,23.95,9.72,15.65-.49.19c1.21,3.05,7.09,2.93,7.09,2.93,0,0,14.46-.32,21.55-.03,5.47.23,6.55-1.14,6.76-1.77.15-.07.34-.17.61-.31,1.77-.97.84-3.87.84-3.87ZM46.8,134.48l-16.98-14.28.8-.6,16.98,14.28-.8.6ZM109.86,35.25l12.63-7.58.22.02c.06,0,1.54.15,2.62,1.47,1.6,1.95,1.48,5.3-.34,9.95l-1.05-.26c2.13-5.44,1.45-8,.49-9.19-.59-.74-1.32-.99-1.66-1.07l-12.25,7.35c-3.88,2.33-5.88,4.8-5.96,7.36-.11,3.6,3.7,6.17,3.74,6.2l-.7.67c-.17-.12-4.26-2.87-4.14-6.89.09-2.83,2.24-5.54,6.4-8.04ZM88.34,59.17l.06-.09.1-.06c.09-.05,2.21-1.28,5.6.21,3.06,1.34,3.66,2.59,3.76,2.84l1.51,3.14-2.67-1.3s-3.58-2.02-6.07-2.5c-1.2-.23-1.96-.62-2.28-1.16-.32-.55-.04-1.02-.01-1.08ZM68.68,48.92c.06.02,5.62,1.75,5.11,8.14v.25c1.33-2.5,3.99-6.15,8.27-6.62l.15.87c-5.72.62-8.37,8.25-8.4,8.33l-1.04,3.07-.07-5.91c.46-5.75-4.2-7.23-4.4-7.29l.39-.82ZM81.69,71.55l-.71.67c-5.09-3.42-3.47-9.66-3.4-9.93l1.07.18c-.02.06-1.55,6,3.04,9.08ZM67.28,60.99l1.1.02c-.16,4.91-7.03,7.32-7.32,7.42l-.43-.8c.07-.02,6.52-2.29,6.66-6.64ZM68.51,75.18c5.28,1.1,7.63,4.59,7.72,4.74l-.97.41s-2.23-3.3-7.03-4.3c-4.71-.98-7.8,1.6-7.93,1.72l-.8-.59c.15-.13,3.64-3.08,9.01-1.97ZM65.63,84.2c12.04-.15,9.98,9.52,9.98,9.52,0,0-4.57,5.63-12.23,4.01-7.66-1.62-8.76-7.95-8.76-7.95,0,0-1.03-5.43,11.01-5.58ZM58.82,62.45s-.24,1.56-3.46,1.7c-3.22.14-3.29-3.12-3.29-3.12-.07-.56.59-1.12.59-1.12,0,0,1.64-1.31,4.13-.86,2.48.45,2.03,3.4,2.03,3.4ZM44.68,17.2c-.39.13-.46.49-.46.49l-.65,5.57-1.09-.08.65-5.58c.05-.33.34-.94,1.13-1.2,1.2-.4,2.95.14,5.35,1.65,5.42,3.39,2.3,18.94,2.16,19.6l-1.08-.14c.03-.16,3.15-15.7-1.76-18.78-2.77-1.73-3.9-1.64-4.25-1.53ZM48.36,55.82c.09-.25.69-1.5,3.76-2.84,3.38-1.49,5.51-.26,5.6-.21l.1.06.06.09c.03.05.31.53-.01,1.08-.32.54-1.08.93-2.28,1.16-2.49.48-6.03,2.48-6.07,2.5l-.03.02-2.63,1.28,1.51-3.14ZM34.41,81.63c-2.73-2.26-4.03-4.45-3.87-6.52.18-2.27,2.06-3.51,2.14-3.57l.69.68s-1.61,1.07-1.74,2.96c-.13,1.81,1.07,3.78,3.56,5.85,7.14,5.91,8.68,7.72,8.74,7.8l-.91.49s-1.59-1.85-8.62-7.68ZM84.52,100.25c-.28,2.22-2.65,4.03-6.88,5.23-1.92.55-5.16,1.13-6.66,1.13-.38,0-.65-.04-.76-.12.09.07.18.09.19.09-.11-.02-.61-.07-1.15-.13-2.87-.29-10.49-1.04-18.23-3.44-5.27-1.63-6.79-4.44-7.14-6.5-.37-2.22.49-4.03.53-4.11l1.02.32c-.11.23-2.28,4.9,2.69,8.02h15.35l10.45,4.65c2.34-.4,5.43-1.16,7.43-2.47,1.24-.81,1.94-1.74,2.06-2.76.5-4.03.18-4.7.14-4.76.03.05.17.16.4.16v-.87l.45.17c.19.17.69.61.1,5.39ZM89.28,69.89c-3.22-.14-3.46-1.7-3.46-1.7,0,0-.45-2.96,2.03-3.4,2.48-.45,4.13.86,4.13.86,0,0,.67.55.59,1.12,0,0-.07,3.26-3.29,3.12ZM94.62,89.43l-.6-.73c.07-.04,7.4-3.95,7.4-8.58h1.1c0,5.1-7.57,9.14-7.9,9.31ZM108.07,62.45l-1.08-.13c.86-4.56-5.91-11.53-5.98-11.6l.86-.54c.29.3,7.13,7.35,6.2,12.27ZM89.51,135.43l-.64-.71,27.8-16.07.64.71-27.8,16.07Z"/>
      </g>
    </g>
  </g>
</svg>