<?xml version="1.0" encoding="UTF-8"?>
<svg xmlns="http://www.w3.org/2000/svg" version="1.1" viewBox="0 0 175.66 296.14">
  <defs>
    <style>
      .cls-1 {
        fill: #a6cff0;
      }
    </style>
  </defs>
  <!-- Generator: Adobe Illustrator 28.7.1, SVG Export Plug-In . SVG Version: 1.2.0 Build 142)  -->
  <g>
    <g id="Capa_1">
      <g>
        <path class="cls-1" d="M96.33,285.45c1.67-6.95,10.05-5.96,10.13-5.95l17.79,1.99c.09,0,.17.04.25.07,4.97.09,11.57-.1,15.83-1.45-7.41.16-25.8-1.04-30.39-16.04-5.52-18.02,8.63-28.06,9.85-28.88.05-.06.14-.16.26-.27.37-.62.95-2.7-3.15-7.69-3.72-4.52-7.88-19.74-10.4-30.08.13,8.01-1.05,19.71-7.12,31.32-.19,1.27-2.4,16.28-2.25,34.89.05,6.38-3.44,7.82-3.59,7.88h0s-2.33,1.28-2.45,6.81c-.09,4.19-1,8.07-2.51,11.18,1.13.24,3.43.54,5.25-.38,1.27-.64,2.12-1.79,2.51-3.42Z"/>
        <path class="cls-1" d="M110.08,129.04c-7.88-2.53-14.95-17.03-15.26-17.65-.1-.22-.05-.45.11-.62-1.46-2.82-2.55-5.22-3.1-6.46-1.45,7.96-9,23.79-9.35,24.52-.11.22-.35.36-.6.36-.09,0-.17-.02-.26-.05-.33-.13-.49-.47-.34-.77.09-.19,9.3-19.46,9.49-26.11.19-6.59-3.83-13.14-3.87-13.2-.11-.18-.1-.38,0-.54-.95-1.07-1.82-1.66-2.33-1.95-1.64,4.08-4.34,8.79-8.37,9.97-3.09.91-7.25,1.17-10.99,1.17-4.79,0-8.9-.42-9.2-.46l-.13-.03c-2.79-.83-4.85-2.36-6.37-4.18-.03.58-.06,1.63-.09,3.5.04,0,.08-.02.12-.02h0c.36,0,.65.27.65.59,0,.86-.26,21.13-5.9,28.48-.03.05-1.65,2.4-3.85,6.13-.77,1.72-2.27,4.69-5.23,9.68-1.87,3.82-3.68,8.03-5.07,12.29-4.6,14.16-1.17,27.83-1.14,27.97.07.16.34.59.58.59h0c.14,0,1.41-.17,3.63-5.67,3.73-9.24,3.76-17.38,3.76-17.46,0-.32.29-.59.65-.59h0c.36,0,.65.26.65.59,0,.08-.03,8.42-3.84,17.86-2.13,5.28-3.62,6.29-4.6,6.43l2.31,2.69c.08.28.14.57.2.86.25.08.44.28.45.54.02.69.34,16.18-4.52,20.83-.11.26-.17.41-.17.41l1.79,3.66.74-.24c3.24,7.89,4.61,31.63,4.66,32.64v.03s0,.03,0,.03c-.01.16-1.27,16.51-4.42,25.82-3.16,9.33-17.57,8.68-18.79,8.61-.85.12-8.82,1.49-11.88,10.52-.41,1.21-.24,2.19.54,2.99,4.52,4.71,26.25,2.05,27.54,1.89,9.25-2.84,16.99-20.22,17.07-20.39.07-.17,7.45-19.14,5.27-29.68-1.58-7.65-2.1-15.53-2.26-20.79-.11-3.69.57-7.2,2.04-10.43,1.96-4.31,4.54-6.65,7.67-6.97,5.9-.59,11.4,6.34,11.63,6.64,9.34,13.87,7.95,25.33,7.83,26.19l-.65,33.32c-.1,4.96-11.32,8.63-12.53,9.02-.79.5-8.18,5.39-6.91,10.85.27,1.17,1.49,2.09,3.62,2.73,6.79,2.06,19.96.47,22.62-1.59,3.55-2.74,5.94-8.83,6.08-15.53.14-6.34,3.07-7.79,3.19-7.85.06-.03,2.89-1.28,2.85-6.82-.16-19.46,2.26-35,2.28-35.15l.06-.17c10.08-19.2,6.52-38.65,6.1-40.72-.02-.09-.03-.15-.04-.19l1.28-.23s.01.06.03.15c.5,2.34,7.1,33,12.42,39.46,2.38,2.89,3.6,5.29,3.65,7.16,2.05-1.32,5.97-2.99,12.7-3h0c.36,0,.65.26.65.59,0,.32-.29.59-.65.59-8.61.01-12.3,2.9-13.25,3.81-.19.25-.37.38-.41.41-.16.1-14.93,9.76-9.44,27.68,5.47,17.84,31.84,15.04,32.11,15.01l2.4-.27-1.92,1.32c-6.19,4.26-25.36,2.67-26.18,2.6-.14-.01-14.73-1.04-17.52,6.42-.18.48-.11.89.23,1.29,3.82,4.4,34.18,3.4,45.56,2.64,2.03.02,7.27-.42,7.68-2.83.63-3.73,7.27-6.21,7.55-6.31l.06-.02c5.29-1.39,9.17-4.45,11.56-9.08,11.32-22-13.87-72.96-14.12-73.48-.22-.51-20.96-48.37-43.32-67.86l.27-.25-5.49-3.9ZM91.44,170.77c-.09.15-6.19,10.05-9.7,14.54-1.19,1.52-2.79,2.31-4.67,2.31-.28,0-.56-.02-.84-.05-2.88-.34-5.26-2.27-6.08-4.9-.97-3.14-2.96-9.07-5.39-13.51-1.28-2.33-1.46-4.18-.55-5.5,1.26-1.82,4.09-1.84,4.21-1.84.36,0,.65.26.65.59s-.29.59-.65.59c-.02,0-2.23.02-3.11,1.29-.65.94-.44,2.45.61,4.36,2.48,4.52,4.5,10.53,5.48,13.71.67,2.18,2.63,3.77,4.99,4.05,1.77.21,3.17-.37,4.27-1.77,3.47-4.44,9.54-14.29,9.6-14.38,0,0,2.48-5.21,2.21-10.81-.06-1.21-.47-1.99-1.25-2.41-1.7-.9-4.92.16-6.07.67-.29.17-2.64,1.59-3.99,3.25-.21.26-.62.32-.91.13-.29-.19-.36-.56-.14-.82,1.58-1.95,4.26-3.5,4.37-3.57l.06-.03c.19-.09,4.67-2.06,7.35-.65,1.18.62,1.82,1.75,1.89,3.37.29,5.88-2.24,11.16-2.34,11.38Z"/>
        <path class="cls-1" d="M60.2,28.7c-2.52.04-5.29.67-6.5.98-.12.32-.24.64-.37.96-.12.31-.49.46-.84.36-.34-.11-.52-.44-.4-.75,6.12-15.54,4.7-25.94,3.91-29.43-3.93,5.59-20.76,29.59-25.1,36.86-4.64,7.79,9.16,17.63,9.3,17.72l.26.18v.29c-.15,5.6.62,20.64,5.74,22.94l.37.17v.38c-.02.14-.37,13.67,9.65,16.73,1,.1,13.03,1.25,19.56-.67,6.55-1.92,9.46-15.36,9.49-15.5.05-.23.24-.4.48-.45l.18-.73c.88-.48,1.62-1.37,2.24-2.52-.33.31-.69.53-1.09.62-.05.01-.1.02-.15.02-.29,0-.56-.18-.64-.45-.09-.31.13-.63.48-.71,2.55-.55,3.87-12.2,3.99-20.29,0-.32.3-.58.65-.58h0s0,0,0,0v-.35l2.2-2.09c-.12-.03-.24-.08-.33-.17-.24-.25-.2-.62.07-.83.09-.07,9.05-7.09,6.66-14.38-2.18-6.64-20.44-31.34-25.06-37.52-.45,5.87-1.59,25.4,2.59,31.58.19.28.09.64-.22.81-.31.17-.71.08-.9-.2-.1-.15-.2-.31-.29-.47-2.18-.79-3.93-1.29-5.35-1.58.1.12.19.24.28.38.17.29.05.64-.27.79-.1.05-.2.07-.3.07-.24,0-.46-.11-.58-.31-.32-.54-.76-.88-1.34-1.04-1.47-.39-3.33.53-3.35.54l-.08.04c-.16.18-.19.32-.19.32-.03-.06-.07-.12-.11-.18l-.34-.24c-2.42-1.69-5.35.68-5.38.7-.27.22-.68.2-.93-.04-.24-.24-.23-.61.04-.83.46-.38,1.14-.81,1.95-1.13ZM44.15,43.5c-.07,3.03-.82,4.68-2.29,5.07-.2.05-.4.08-.61.08-3.03,0-7.02-5.15-7.84-6.24-.2-.27-.12-.63.18-.81.3-.18.71-.11.91.16,1.95,2.61,5.41,6.11,7,5.69.8-.21,1.29-1.65,1.34-3.97.26-11.08,4.73-18,4.92-18.29.18-.28.58-.37.9-.21.31.16.42.52.23.8-.04.07-4.49,6.97-4.74,17.72ZM54.33,56.71c-.17-.12-.35-.19-.53-.24-.62-.13-1.19.01-1.51.13-.05.02-.09.04-.1.04l-.07.02s-.08.04-.08.04c-.85.14-1.52.09-2.07-.06-.05-.01-.1-.03-.15-.04-.03,0-.06-.02-.08-.03-.32-.1-.61-.23-.87-.41-1.19-.8-1.38-2.09-1.38-2.14v-.04s0-.04,0-.04c.27-1.92,2.71-2.39,2.81-2.41,1.06-.1,1.94.13,2.67.69,1.74,1.35,1.9,4.11,1.9,4.23l.03.62-.56-.38ZM74.32,82.88c-.65,1.61-2.97,2.57-3.07,2.61l-.37.15-.08-.36s-.23-1-.99-1.3c-.34-.1-.76-.09-1.28.09-.12.05-.24.09-.36.16-.11.13-.49.63-.34,1.12.14.44.65.79,1.54,1.06.68.2,1.02.5,1.03.89.01.99-2.65,2.03-4.03,2.5-.36.13-.59.2-.59.2-.54.12-.84,0-.84,0,0,0-.02,0-.07-.02-.04-.01-.07-.02-.08-.02-1.04-.33-4.51-1.53-4.5-2.66,0-.39.35-.69,1.03-.89.89-.27,1.41-.62,1.54-1.06.15-.49-.23-.99-.34-1.12-.15-.08-.28-.13-.42-.18-.06-.02-.11-.04-.17-.05-.03,0-.06-.02-.1-.02-.38-.08-.7-.06-.97.02-.74.31-.97,1.28-.97,1.29l-.08.36-.38-.15c-.1-.04-2.42-.99-3.07-2.61-.24-.61-.19-1.26.16-1.84.37-.63,1.03-1.08,1.81-1.26,1.49-.33,3.84-.5,7-.5s5.51.17,7,.5c.78.17,1.44.63,1.81,1.26.35.58.4,1.24.16,1.84ZM82.36,24.96c.31-.17.71-.07.9.21.19.29,4.67,7.21,4.92,18.29.05,2.31.54,3.76,1.34,3.97,1.59.41,5.05-3.08,6.99-5.69.2-.27.61-.34.91-.16s.38.54.18.81c-.82,1.1-4.81,6.24-7.84,6.24-.21,0-.41-.02-.61-.08-1.47-.38-2.22-2.04-2.29-5.07-.25-10.75-4.7-17.65-4.74-17.72-.18-.28-.08-.64.23-.8ZM80.18,51.54c.14.02,2.57.5,2.85,2.42v.04s0,.04,0,.04c0,.05-.19,1.35-1.38,2.14-.23.16-.49.28-.77.37-.59.23-1.36.33-2.39.16,0,0-.02,0-.05-.02,0,0-.01,0-.02,0l-.11-.03s-.11-.05-.26-.11c-.38-.11-.96-.2-1.55,0-.11.05-.22.1-.33.17l-.56.38.03-.62c0-.12.16-2.88,1.9-4.23.72-.56,1.61-.79,2.63-.7ZM60.37,48.78c-.03.75-.85,17.67-2.49,21.48-1.24,2.87.41,4.16.84,4.44,1.09.12,8.05.83,12.03,0l.11-.02h.12s.54.05,1-.38c.49-.46,1-1.52.65-3.99-.76-5.35-1.33-20.25-1.34-20.4-.07-.56-.63-5.92,1.79-7.77.54-.42,1.5-.84,2.95-.5,1.91.46,2.51,1.54,2.68,2.36.52,2.58-2.37,6.03-3.42,6.7-.29.19-.7.13-.91-.14-.21-.26-.14-.63.15-.82.86-.55,3.28-3.63,2.89-5.54-.15-.73-.71-1.2-1.73-1.44-.73-.18-1.31-.09-1.76.25-1.6,1.23-1.51,5.33-1.33,6.8,0,.19.58,15.03,1.33,20.33.34,2.38-.01,4.06-1.04,4.99-.75.68-1.6.73-1.93.72-1.54.31-3.44.42-5.29.42-3.62,0-7.05-.4-7.27-.43h-.13s-.11-.07-.11-.07c-.03-.02-3.31-1.75-1.51-5.94,1.56-3.63,2.4-20.89,2.4-21.07,0,0-.12-4.15-2.21-5.55-.69-.46-1.52-.56-2.55-.3-1.88.47-1.94,1.4-1.96,1.7-.11,1.8,2.37,4.25,3.17,4.54.34.12.5.46.37.76-.13.3-.52.45-.85.33-1.23-.44-4.13-3.33-3.99-5.69.06-.94.61-2.19,2.91-2.77,1.42-.36,2.66-.19,3.69.49,2.61,1.74,2.74,6.31,2.74,6.5Z"/>
        <path class="cls-1" d="M98.63,47.71c.08-.11.17-.22.25-.34-.08.11-.17.23-.25.34Z"/>
        <path class="cls-1" d="M98.35,48.08s.06-.08.09-.12c-.03.04-.06.08-.09.12Z"/>
        <path class="cls-1" d="M39.15,56.21s0-.05,0-.08c-.13-.09-.3-.22-.5-.38.19.17.36.32.5.45Z"/>
        <path class="cls-1" d="M56.51,288.41c1.68-4.45,6.89-7.68,7.17-7.85l.16-.07c3.24-1,11.67-4.37,11.74-7.95l.66-33.42c0-.05.36-2.67-.23-6.86-8.09-1.93-11.75,3.81-12.08,4.36-6.37,16.08,6.7,30.21,6.83,30.35,2.37,3.01,2.21,5.11,2.15,5.5-.01.95-.5,1.82-1.44,2.61-.67.56-1.54,1.03-2.52,1.44-.76.36-1.7.68-2.84.93-3.15.8-6.61,1.08-8.59.95-.45-.03-.89-.03-1.33-.01-.94.11-1.74.23-2.44.37-.09.02-.19.04-.28.07-1.68.51-3.92,1.57-5.01,3.71-.29.57-.29,1.11,0,1.66,1.07,2.02,5.7,3.61,8.02,4.23Z"/>
      </g>
    </g>
  </g>
</svg>