<?xml version="1.0" encoding="UTF-8"?>
<svg xmlns="http://www.w3.org/2000/svg" version="1.1" viewBox="0 0 175.66 296.14">
  <defs>
    <style>
      .cls-1 {
        fill: #f190b8;
      }
    </style>
  </defs>
  <!-- Generator: Adobe Illustrator 28.7.1, SVG Export Plug-In . SVG Version: 1.2.0 Build 142)  -->
  <g>
    <g id="Capa_1">
      <g>
        <path class="cls-1" d="M108.55,283.33c-.1.03-.19.07-.3.1-1.84.6-3.6.87-5.29.87-8.22,0-14.52-6.39-18.09-11.18,1.02,6.15,1.64,14.67-1.87,18.09l-1.98,1.93c.42-.22.84-.46,1.25-.7,2.01-1.2,14.83-1.14,26.57-.82-.53-3.58-.48-6.41-.3-8.29Z"/>
        <path class="cls-1" d="M47.14,212.24l7.71,18.42c4.99,9.2,7.46,32.52,7.57,33.51l-1.49.16s-.57,12.62-.57,14.53-11.47,0-11.47,0c-14.53-4.4-17.85,4.65-17.85,4.65-.25,9.69,8.41,9.18,10.45,11.22.5.5,2.71.83,5.76,1.04-.13-1.41-.46-7.79,3.75-11.97,1.36-1.35,3.26-2.29,5.47-2.7,1.53-.29,2.13-.66,2.24-.78-.02.03-.09.14-.09.3h3c0,1.69-1.54,2.85-4.59,3.42-1.63.31-2.98.96-3.92,1.89-3.59,3.56-2.87,9.69-2.86,9.75l-1.48.19c9.66.53,25.36.13,25.36.13,0,0,1.19-.35,2.86-1.01l-1.05-1.07,4.98-4.86c3.17-3.09,1.44-15.17-.4-22.06l-4.04-22.75,2.95-.52,4.02,22.63c.03.13.09.33.15.59l.66-.34c.1.18,9.64,18.41,23.06,13.98,13.91-4.58,17.38-10.61,17.41-10.67l.19.1c-.31-5.14-.43-9.61-.46-11.41v-.14s.02-.14.02-.14c.01-.08,1.31-8.12,1.13-23.45-.18-14.85-11.11-25.81-11.22-25.92l2.1-2.13c.49.48,11.91,11.9,12.11,28.01.18,14.7-.96,22.66-1.14,23.83.24,11.61,1.53,28.95,3.65,31.43l-2.27,1.95c-1.93-2.25-3.02-10.3-3.63-18.03-2.17,2.18-6.27,5.32-13.49,8.15-.23,1.39-.58,4.73.17,9.44l-.45.07c9.56.3,17.77.74,17.77.74,0,0,6.12,2.55,20.91,1.78,14.79-.77,10.2-4.84,10.2-4.84,0,0-4.84-7.9-4.84-10.45s4.59-6.88,4.59-6.88c15.04-13,10.45-24.73,10.45-24.73,0,0-5.35-3.06-2.55-34.42,2.8-31.36-9.94-46.66-9.94-46.66,0,0-13.7-17.59-21.74-25.05-8.03-7.46-19.19-30.15-19.19-30.15,0,0,6.25-10.96,7.78-11.73,1.53-.76,5.86-21.55,5.86-21.55,16.57,1.79,20.65-16.57,20.65-16.57.32-.19.63-.39.94-.58l-1.72.15c0-.09-.89-8.97-8.52-17.92l2.28-1.94c7.15,8.4,8.8,16.61,9.14,18.94,14.93-10.04,17.51-25.42,17.51-25.42,0,0,11.92-27.47-2.42-25.94-14.34,1.53-48,25.82-48,25.82,0,0-17.59-11.47-34.8-11.86-17.21-.38-30.41,6.31-32.7,6.88-2.29.57-11.28-5.74-11.28-5.74,0,0-14.92-11.09-25.62-18.74C5.48-2.83,1.27,1.76,1.27,1.76c-5.7,32.6,9.42,46.99,14.01,50.53.69-2.07,3.76-10,12.48-17.08l1.89,2.33c-9.13,7.41-11.62,15.98-11.64,16.07l-1.44-.4c.77,13.96,20.46,20.46,20.46,20.46,0,0,1.73-8.99.2,1.15-1.53,10.14,6.4,23.9,6.4,23.9,0,0,4.69,2.1,8.65,10.9,3.97,8.8,2.15,18.74,2.15,18.74,0,0-4.4,10.9-9.18,25.62-4.78,14.73,2.49,43.22,2.49,43.22M42.63,54.57l-2.8-1.07c.04-.11,4.11-11.11-1.94-21.67-5.87-10.24-8.12-11.74-8.22-11.8l1.33-2.68c.64.29,3.23,2.07,9.49,12.99,6.78,11.83,2.33,23.73,2.14,24.23ZM138.53,27.29l2,2.23c-11.69,10.48-10.74,27.43-10.72,27.6l-2.99.19c-.05-.75-1.05-18.58,11.71-30.02ZM49.04,72.61c-1.2-2.64-.45-5.71,1.83-7.51,1.77-1.39,4.44-2.62,8.34-2.62,5.93,0,8.16,3.96,8.99,6.59.46,1.47.35,3.08-.35,4.45-1.19,2.32-3.89,5.69-9.59,5.69-5.17,0-7.87-3.64-9.22-6.6ZM79.49,232.07c-4.77-5.08-12.1-14.08-12.17-14.17l2.32-1.89c.07.09,7.33,9.01,12.03,14.01l-2.18,2.05ZM86.87,124.5c-13.46,0-19.04-3.94-19.28-4.11l1.75-2.43s5.17,3.54,17.52,3.54,15.45-3.32,15.48-3.35l2.2,2.03c-.4.44-4.28,4.32-17.69,4.32ZM93.69,112.37l-1.4,2.65c-6.23-3.29-12.43-.04-12.49,0l-1.42-2.64c.31-.17,7.67-4.03,15.31,0ZM79.1,94.19c0-6.25,8.73-5.99,8.73-5.99h2.55c4.88,0,6.83,2.7,7.58,4.48.36.85.41,1.78.17,2.66-.66,2.34-2.52,7.53-6.34,8.41-3.72.86-5.93-.38-5.93-.38,0,0-6.76-2.93-6.76-9.18ZM110.26,112.5l-1.32,3.97-2.84-.95,1.27-3.82c1.22-5.47,1.72-13.99-1.15-15.39-5.41-2.64-16.07-17.41-17.26-19.09l-.31-.43.03-.53c.64-10.68,1.07-22.07,1.07-29.66-.75,7.45-1.42,18.65-1.78,29.16l-.02.56-.38.41c-.58.63-14.31,15.41-22.84,17.27-.93.2-1.58.7-2.05,1.55-2.18,3.94.42,13.43,1.61,16.75l-2.82,1.01c-.48-1.35-4.64-13.38-1.41-19.21.88-1.6,2.28-2.64,4.03-3.03,6.89-1.51,18.65-13.61,20.9-15.98,1.31-37.67,3.61-38.88,4.48-39.34.56-.3,1.21-.27,1.73.07.83.53,2.76,1.78.49,40.08,3.38,4.68,11.95,15.81,15.83,17.71,6.12,2.98,3.08,17.27,2.72,18.89ZM110.28,77.4c-.59-1.37-.68-2.98-.29-4.45.69-2.63,2.55-6.59,7.51-6.59,3.26,0,5.5,1.24,6.97,2.62,1.91,1.79,2.53,4.86,1.53,7.51-1.12,2.96-3.38,6.6-7.7,6.6-4.76,0-7.02-3.37-8.01-5.69ZM147.8,257.85c-.14-.93-3.45-22.95-1.34-37.16,2.05-13.79.34-29.48.32-29.64l-4.91-29.56,2.95-.49,4.92,29.64c.08.74,1.78,16.31-.32,30.49-2.05,13.76,1.3,36.05,1.34,36.27l-2.96.45Z"/>
        <path class="cls-1" d="M59.1,261.56c-.83-6.6-3.18-22.66-6.94-29.61l-1.69-4.02c-.11.67-.24,1.01-.24,1.01-.86,14.77,5.59,27.29,8.88,32.62Z"/>
      </g>
    </g>
  </g>
</svg>