<?xml version="1.0" encoding="UTF-8"?>
<svg xmlns="http://www.w3.org/2000/svg" version="1.1" viewBox="0 0 175.66 296.14">
  <defs>
    <style>
      .cls-1 {
        fill: #a6cff0;
      }
    </style>
  </defs>
  <!-- Generator: Adobe Illustrator 28.7.1, SVG Export Plug-In . SVG Version: 1.2.0 Build 142)  -->
  <g>
    <g id="Capa_1">
      <g>
        <path class="cls-1" d="M74.09,66.28c-.41.43-5.19,5.42-11.91,14.42l.17-.02s.63,3.49,3.3,5.09c1.48.88,3.33,1.05,5.5.49,7.53-1.93,11.29-1.94,11.89-1.92.79-.19,2.32-.76,2.38-1.4-2.5-4.07-6.02-9.96-7.52-13.24-1.27-2.77-2.39-3.4-2.94-3.53-.47-.11-.79.07-.86.12Z"/>
        <path class="cls-1" d="M175.48,264.37c-1.4-4.62-3.06-7.3-3.06-7.3,0,0-3.06-5.19-9.79-4.46-6.73.73,2.71-8.51,2.71-8.51,0,0,10.32-5.76,9.62-12.16-.7-6.41-2.19-14.27-2.19-14.27l-6.73-15.24s-2.36-10.78-9.36-15l-.61-1.78-.61-19.38s-.35-19.5-15.43-42.61l-1.9-3.53s-4.61-22.52-11.61-32.9l-2.91-6.38-.4.3-5.86-6.68c-.61,2.67-2.31,10.72-3.47,16.31l-.05.13-8.17,14.53-4.79,6.2-.84-.55,4.77-6.18,8.08-14.38c2.96-14.22,3.56-16.73,3.72-17.24h0c.17-.73,1.54-16.71,2.43-27.29l-1.05-22.51,1.03-.04,1.05,22.57v.03c-1.77,21.11-2.26,26.01-2.44,27.21l6.01,6.85.18-6.75-.46-5.53s1.77-4.13,1.44-6.99c-.33-2.86,4.85-6.69,4.85-6.69,0,0,6.03-15.59,1.51-24.34l-3.15-3.95s.61-7.2-11.89-11.17l-2.27-1.78s-12.13-11.78-26-10.8l-7.51.47-5.28-.75s-21.86-5.51-37.25,3.73c0,0-17.1,11.31-18.28,22.13-1.18,10.82-.66,13.01-.66,13.01,0,0-1.71,19.46-4.46,22.86-2.75,3.41,7.35-1.82,7.35-1.82,0,0,4.59-3.77,1.84-11.31-2.75-7.54,2.1-8.03,2.1-8.03,0,0-.24,5.52,2.35,5.83l1.64-11.12c.02-.47.4-7.2,1.39-13.63-3.87,4.74-6.38,17.79-6.41,17.93l-1.01-.16c.12-.64,3.01-15.68,7.68-19.45h0c.74-4.29,1.78-8.19,3.19-9.64l.76.64c-3.42,3.51-4.58,24.19-4.59,24.4l-1.76,11.96-.51-.06c-.03,4.69-.03,27.33,3.02,28.1,3.41.85.26.73.26.73,0,0-13.63,28.5-14.16,41.39,0,0-7.61,22.86-2.1,27.97,5.51,5.11,9.71,23.35,9.71,23.35,0,0-1.29,21.69,6.23,36.77l.87,21.24s.7,13.78-1.05,16.86c-1.75,3.08-8.74,14.11-8.74,14.11,0,0-1.22,2.11-5.42,2.59-4.2.49-10.32,4.22-10.32,4.22,0,0-11.19,7.13-4.72,9.08,6.47,1.95,13.64.97,13.64.97,0,0,0,2.76,8.57,1.95l8.57-.81s4.37-1.95,7-6.97c2.62-5.03,4.2-1.62,4.9-6.65.7-5.03,1.57-6,1.57-6,0,0,6.3-17.84,6.12-19.3l-.51-.06,6.41-46.14,1.02.12-6.41,46.14-.51-.06,4.72,6.32s-1.75,9.28,2.27,13.42c0,0-1.57,10.54,2.01,12.08,3.59,1.54,12.85.73,12.85.73l7.56-1.46s5.03-2.59,3.63-8.19c0,0,7.91,3.89,13.34,3.89h5.42v6.08s-2.45,5.59-2.45,14.96,7.28,9.61,7.28,9.61l11.94.49s4.33.83,5.55-.95c0,0,9.01,2.03,10.93-1.22,0,0,8.39,1.95,7.08-3.49-1.31-5.43-5.33-7.78-5.33-7.78,0,0-5.16-4.38-6.03-8.19-.87-3.81-3.59-8.43-3.59-8.43l.26-4.05s6.56-3.16,7.52-6.32c0,0,3.32-.81,2.36.97s.17,4.46.17,4.46l5.16,1.05s2.54,1.54,2.97,1.62c.44.08-.18,3.08,5.95,3.73,6.12.65,15.74.49,15.74.49,0,0,7.17.49,5.77-4.13ZM123.16,30.52c1.3,1.37,1.02,6.74.96,7.8l-.02.12c-.02.15-.05,1.17,1.18,5.07,1.59,5.03-2.25,6.79-2.28,6.81l-.22-.43-.22-.43c.13-.06,3.08-1.45,1.74-5.68-.93-2.94-1.35-4.89-1.2-5.56.14-2.31.08-6.24-.71-7.07l.77-.63ZM113.42,123.48l.34.9c-12.2,3.93-17.47,17.73-17.52,17.87l-.08.23-.25.07c-.09.03-8.76,2.61-12,8.52-3.49,6.34-18.62,6.89-19.26,6.91l-.04-.95c.15,0,15.17-.55,18.38-6.39,3.17-5.77,10.87-8.45,12.37-8.92.75-1.84,6.26-14.43,18.07-18.23ZM75.58,140.08l.3-.91c.13.04,3.11.85,5.56-1.46,2.65-2.49,8.11-9.95,8.16-10.03l.04-.05,6.43-6.62.76.64-6.4,6.6c-.42.57-5.6,7.63-8.26,10.13-1.66,1.57-3.54,1.91-4.87,1.91-.98,0-1.67-.19-1.73-.21ZM99.99,97.91c-.35,1.52-1.23,2.71-2.6,3.51-3.13,1.84-7.91,1.18-9.3.94-.57.87-2.42,3.13-6.15,3.13-.24,0-.48,0-.73-.03-3.96-.3-7.6-4.08-9.06-5.81-.55,1.32-2.23,3.5-7.41,4.7-6.69,1.55-10.44-4.39-11.31-5.98-3.38.79-5.81-.71-5.92-.78l-.07-.05-.05-.06c-.09-.12-2.32-2.95-2.68-7.06-.34-3.87-3.89-10.34-3.92-10.4l.91-.43c.15.27,3.68,6.7,4.03,10.76.3,3.49,2.1,6.05,2.43,6.5.42.24,2.54,1.32,5.39.5l.44-.13.18.39c.14.3,3.5,7.39,10.31,5.81,6.78-1.58,6.89-4.75,6.89-4.89l.02-1.51.92,1.24c.04.06,4.42,5.9,8.97,6.24,4.4.33,6-2.75,6.06-2.88l.17-.35.41.09c.06.01,5.65,1.17,8.9-.74,1.13-.67,1.85-1.64,2.15-2.91,1.43-6.17,4.58-13.9,4.61-13.98l.96.34c-.03.08-3.15,7.74-4.57,13.84ZM71.63,51.53c-1.32,1.78-5.42,7.52-5.49,10.17-.09,3.45-2.3,5.93-2.39,6.03l-.79-.61s2.07-2.33,2.15-5.44c.08-2.85,4.06-8.51,5.54-10.52-1.48-.64-2.45-1.44-2.45-1.44,0,0,0,0-.02,0-.7.66-1.76,1.46-3.37,2.28-2.78,1.42-3.84,8.09-4.02,10.54l-1.03-.06c.03-.38.72-9.35,4.55-11.31,1.43-.73,2.39-1.44,3.03-2.02-1.77-1.32-5.63-4.83-4.75-9.8,1.14-6.41,12.42-5.97,12.42-5.97,0,0,6.77,0,9.99,3.94,5.54,6.8-2.75,11.37-2.75,11.37,0,0-.19.18-.82.55,1.42,1.62,3.42,3.88,4.88,5.5,2.62,2.9,3.63,8.35,3.68,8.58l-1.01.16c0-.05-1.01-5.42-3.45-8.13-1.5-1.66-3.55-3.99-4.98-5.62-.62.33-1.45.74-2.55,1.23,1.34,1.7,5.25,7.08,5.1,11.64-.15,4.59.5,5.36.53,5.39,0,0-.02-.03-.08-.06l-.53.82c-.42-.24-1.11-1.35-.95-6.18.14-4.35-3.88-9.76-5.02-11.19-.04.02-.07.03-.11.05-.58.25-1.16.4-1.73.48v13.34c1.31.31,2.53,1.68,3.63,4.07,2.35,5.13,9.75,16.83,10.18,17.51.19.21,1.85,2,4.07,1.91,1.75-.08,3.45-1.29,5.05-3.6l.86.51c-1.79,2.59-3.77,3.95-5.87,4.04-.07,0-.14,0-.21,0-2.76,0-4.64-2.21-4.72-2.3l-.04-.05s-.9-1.42-2.15-3.44c-.82.89-2.54,1.31-2.8,1.37l-.07.02h-.07s-3.76-.13-11.64,1.89c-.93.24-1.82.36-2.65.36-1.37,0-2.61-.32-3.68-.97-2.26-1.35-3.21-3.75-3.57-4.97-2.14,2.87-4.59,4.34-7.29,4.36h-.05c-5.14,0-9.2-5.24-9.37-5.47l.84-.55c.04.05,3.93,5.06,8.53,5.06h.05c2.36-.02,4.54-1.36,6.49-4,7.37-9.96,12.58-15.32,12.64-15.37l.04-.04c.15-.12.43-.27.79-.35v-13.26c-.91,0-1.78-.19-2.56-.44ZM79.73,20.47l.96-.33c.04.1,4.27,10.46,11.55,14.62,7.66,4.38,8.69,19.99,8.73,20.65l-1.03.05c0-.16-1.03-15.77-8.24-19.89-7.58-4.33-11.8-14.66-11.97-15.1ZM106.28,73.97l-2.23,4.31-.93-.41,2.49-4.81.3-.02c2.04-.14,5.13-.73,5.62-1.58l.9.45c-.86,1.47-4.8,1.93-6.15,2.05ZM114.16,69.85l-.93.42-1.38-2.64c-1.31-2.5-6.68-6.28-6.73-6.31l.62-.76c.23.16,5.62,3.95,7.04,6.66l1.38,2.64ZM105.51,46.88c2.37-1.33,4.89-6.19,4.92-6.24l.93.41c-.11.21-2.68,5.17-5.31,6.65-1.86,1.04-2.05,5.01-1.97,6.45l-1.03.05c-.01-.23-.3-5.77,2.47-7.32ZM102.48,32.81s-2.36,2.19-5.51,1.7c-3.15-.49-2.58-4.66-2.58-4.66,0,0,1.57-1.01,4.81-.65,3.24.36,3.28,3.61,3.28,3.61ZM100.11,19.9c-2.25-1.92-8.66-6.96-11.17-7.18-.53-.05-.92.07-1.18.35-.78.82-.5,2.87-.32,3.59l-1,.21c-.08-.31-.71-3.09.56-4.42.34-.36.97-.76,2.05-.66,3.37.31,11.42,7.14,11.76,7.43l-.7.7ZM88.52,8.37c6.1.62,9.4,4.76,9.54,4.93l-.83.56s-3.19-3.97-8.82-4.55c-5.45-.56-7.62,5.26-7.71,5.5l-.97-.3c.02-.07,2.5-6.79,8.8-6.15ZM72.22,9.11l1.02.1c-.1.85,1,2.65,1.92,3.9,1.09-1.85,3.63-3.47,3.99-3.69l.57.79c-1.12.7-4.04,2.86-4.04,4.47v14.27h-1.03v-14.84c-.54-.69-2.62-3.44-2.45-4.99ZM71.84,18.72l-.45.86c-.51-.23-.68-.17-.68-.17-.04.04-.07.26-.04.44v.06c.02.12.71,11.78-8.68,14.47-8.78,2.52-15.36,16.38-15.42,16.52l-.94-.38c.27-.59,6.82-14.4,16.06-17.05,8.43-2.42,8-12.91,7.97-13.48-.03-.19-.12-.94.43-1.34.41-.29,1-.27,1.75.06ZM46.37,31.6s.04-3.24,3.28-3.61,4.81.65,4.81.65c0,0,.57,4.18-2.58,4.66-3.15.49-5.51-1.7-5.51-1.7ZM68.68,9.67c.75.54,1.16,1.25,1.23,2.09l.35,4.3-1.02.07-.35-4.3c-.05-.58-.32-1.04-.84-1.42-2.55-1.86-9.6-.81-9.67-.79l-.17-.94c.31-.05,7.57-1.13,10.47.98ZM63.84,11.62c.35.15.59.4.68.73.58,2.04.59,3.47.59,3.53h-1.03s0-1.38-.55-3.29c0-.03-.02-.07-.12-.11-1.22-.52-6.17,1.33-9,2.61l-.45-.86c1.3-.59,7.86-3.48,9.88-2.62ZM52.38,19.07l.07.95c-5.96.4-9.29,8.55-9.33,8.63l-.96-.33c.14-.36,3.6-8.81,10.22-9.25ZM31.34,61.53l-1.02.07c0-.11-.18-2.61,3.63-5.05,3.54-2.27,8.68-6.61,8.73-6.65l.69.7c-.05.04-5.25,4.43-8.84,6.73-3.28,2.1-3.19,4.11-3.19,4.2ZM37.82,70.79c-5.52.25-5.95-3.5-5.96-3.53l1.02-.09c.01.12.4,3.01,5.22,2.65l.38-.03.14.33c.34.79,1.53,2.88,3.01,3.09,2.44.35,2.97,3.49,2.99,3.62l-1.02.14s-.43-2.58-2.13-2.82c-1.95-.28-3.23-2.51-3.66-3.36ZM56.54,154.93c-.51-.04-12.64-1.08-15.76-8.45l.96-.35c2.89,6.81,14.77,7.84,14.89,7.85l-.09.95ZM57.8,138.63l-13.9-12.28.71-.69,13.9,12.28-.71.69ZM55.38,118.85c-5.92-3.38-8.61-14.83-8.72-15.31l1-.2c.03.11,2.71,11.53,8.26,14.7,1.37.78,2.76.99,4.25.63,8.91-2.16,15.24-3.99,15.3-4.01l.08-.02h.09c.4.01,9.75.3,15.05,5,1.12.99,2.22,1.38,3.29,1.15,2.84-.59,4.75-5.07,4.77-5.12l.96.35c-.09.2-2.13,5.01-5.51,5.7-.27.06-.55.08-.82.08-1.15,0-2.29-.5-3.4-1.48-4.76-4.21-13.36-4.69-14.29-4.73-.79.23-6.89,1.96-15.26,3.99-1.75.42-3.45.18-5.05-.74ZM83,257.34l-7.12-11.74c-2.05-4.98-5.9-13.08-7.51-13.65l-.22-.08-.08-.21c-.04-.1-4.09-10.19-12.55-11.12l.12-.95c8.56.94,12.72,10.11,13.32,11.56,2.55,1.42,6.94,11.84,7.86,14.06l7.06,11.64-.9.47ZM73.09,168.79l.2-.93c.85.16,20.9,3.87,23.61,8.38l-.9.46c-2.06-3.43-17.24-6.88-22.91-7.91ZM105.43,228.77c0,.09-.54,9.22-1.58,16.34-1.02,6.98.82,12.63.83,12.69l.02.14v7.55h-1.03v-7.48c-.23-.71-1.85-6.17-.85-13.03,1-6.82,1.53-15.52,1.57-16.21l-4.32-30.56-3.4-10.42.98-.28,3.43,10.54,4.33,30.69v.04ZM116.91,172.87c-9.38-.9-11.93,9.08-12.04,9.5l-1-.21c.03-.11,2.84-11.22,13.15-10.24l-.11.95ZM110.89,143.24c-8.99,2.35-16.91,17-16.99,17.14l-.92-.42c.33-.62,8.21-15.18,17.63-17.64,8.89-2.32,12.97-24.81,13.01-25.04l1.01.15c-.17.95-4.23,23.31-13.75,25.8ZM135.5,162.85c3.26,8.81-.44,22.71-.7,23.66l-4.59,36.33-.78,29.15-1.03-.02.79-29.19,4.61-36.47c.04-.15,3.99-14.68.67-23.32l-.07-.18.09-.17c.04-.08,3.72-7.82,1.33-18.07l1-.2c2.29,9.83-.75,17.23-1.31,18.48ZM139.34,255.96l9.48-11.53.82.58-9.48,11.53-.82-.58ZM155.17,251.93c-4.55-1.11-7.03,2.36-7.13,2.51l-.31.44-.44-.32c-.26-.11-1.5.19-2.6.63l-.41-.87c.85-.34,2.24-.82,3.14-.69.8-.95,3.59-3.69,8.02-2.61l-.26.92ZM140.08,223.38l-.65-.73c.18-.14,17.77-13.8,16.81-30.07l1.03-.05c.99,16.76-17,30.72-17.18,30.86Z"/>
      </g>
    </g>
  </g>
</svg>