<?xml version="1.0" encoding="UTF-8"?>
<svg xmlns="http://www.w3.org/2000/svg" version="1.1" viewBox="0 0 175.66 296.14">
  <defs>
    <style>
      .cls-1 {
        fill: #f190b8;
      }
    </style>
  </defs>
  <!-- Generator: Adobe Illustrator 28.7.1, SVG Export Plug-In . SVG Version: 1.2.0 Build 142)  -->
  <g>
    <g id="Capa_1">
      <g>
        <path class="cls-1" d="M145.54,142.26c.12.29.23.58.33.87-1.16-5.78-2.21-10.86-.33-.87Z"/>
        <path class="cls-1" d="M174.05,50.55c-2.15-3.89-20.55-20.78-20.55-20.78,0,0-19.94-17.04-23.62-15.1-3.68,1.94-2.91-3.74-2.91-3.74l-4.6-1.54S105.48-2.52,92.14,1.07c0,0-7.22,1.33-11.98-.05-4.76-1.38-16.09-.91-31.38,8.37,0,0-45.2,29.7-47.65,44.05,0,0-1.84,2.59,0,3.99,1.84,1.4,3.68,6.58,3.68,6.58,0,0,1.64,20.13,9.61,27.11,7.98,6.98,16.57,5.98,16.57,5.98,0,0,14.93-5.78,16.57-23.92l1.23-7.52-1.2.07-.24-3.81c-.39-.98-2.05-5.58-4.37-18.07-2.65-14.28,3.31-25.75,3.57-26.23l2.14,1.07c-.06.11-5.84,11.28-3.34,24.74,2.53,13.65,4.28,17.72,4.29,17.76l.08.19.27,4.2-1.2.07v39.36l-.46,2.09s-8.59,8.97-7.87,15.45l-.82,2.49s-20.66,18.93-16.16,40.06c4.5,21.13,4.09,27.31,4.09,27.31,0,0-3.73,12.86-.51,17.04,0,0-1.38,2.37.17,10.97h0s-12.62,1.91-17.61-13.33c-4.99-15.24-7.73-29.6-7.73-29.6l.06,13.75c-1.53,34.38,27.05,36.82,27.05,36.82v-.02c.79,2.88,1.8,6.17,3.12,9.94l-1.07,6.28s-2.76,10.17-.92,13.3l-6.44,11.81-5.68,11.36s-5.83,10.17,1.23,13.01c7.06,2.84,11.5,1.79,11.5,1.79,0,0,7.06,1.05,11.04-.6,0,0,8.13,1.64,9.2-10.31.52-5.75.54-11.85.42-16.63,1.12,1.46,4.91,5.15,11.5-.52,7.98-6.88,19.63-3.59,19.63-3.59,0,0,20.31,7.45,27.62,1.27.19,4.77-2.31,8.86-2.31,8.86,0,0,0,7.97,6.14,7.97,0,0,10.02,8.77,19.84,7.37,0,0,12.27,4.19,16.36.4,0,0,9.82-.8,8.39-6.58-1.43-5.78-5.32-7.77-5.32-7.77l-20.45-13.95s-9.41-18.14,0-32.89c9.41-14.75,9.82-28.1,9.82-28.1l-1.64-6.18s13.29-6.3,6.54-41.67c-.86-4.53-1.51-7.91-1.97-10.38-1.56-3.94-4.36-8.65-9.38-13.03l-2.91-2.44s-.92-11.76-6.9-17.54c0,0-2.15-38.37-3.22-45.84,0,0,3.22,21.53,10.43,26.91,7.21,5.38,16.57,4.48,16.57,4.48,0,0,17.33-8.82,19.63-20.03,2.3-11.21,5.83-18.84,5.83-18.84,0,0,.61-1.49-1.53-5.38ZM110.71,15.63c5.06-1.35,8.03,5.63,8.03,5.63,0,0,1.43,6.13-5.93,6.53-7.36.4-8.28-4.78-8.28-4.78,0,0,1.12-6.03,6.19-7.37ZM120.01,123.5c-3.06,16.4-14.09,39.81-14.2,40.05l-2.18-.98c.11-.23,11.02-23.38,14.02-39.48l2.36.42ZM71.66,47.97s4.06-4.86,9.36-2.24c0,0,2.45.26,3.07-.15,0,0,8.9-2.47,11.73,2.77,2.84,5.23,1.99,10.61,1.99,10.61,0,0-3.07,9.49-11.58,10.02-8.51.52-12.12-3.74-12.12-3.74,0,0-3.76-4.11-3.99-9.34-.23-5.23,1.53-7.92,1.53-7.92ZM70.96,75.98c4.42-2.46,12.5-3.89,12.84-3.95l.12-.02h.12c.39.01,9.66.25,15.13,4.74,1.03.85,2.09,1.19,3.26,1.06,3.02-.34,5.63-3.72,5.66-3.76l1.93,1.39c-.13.17-3.25,4.22-7.3,4.69-.26.03-.52.04-.77.04-1.55,0-3-.55-4.32-1.64-4.52-3.71-12.47-4.15-13.52-4.19-1.02.19-8.17,1.55-11.95,3.65-4.99,2.78-11.11-2.46-11.37-2.69l1.6-1.75c.05.04,5.09,4.35,8.57,2.4ZM89.79,79.96c-1.65.51-3.24.68-4.66.68-3.3,0-5.69-.96-5.83-1.02l.94-2.16s4.21,1.68,8.84.26l.72,2.23ZM47.6,215.59l2.37.36c-.86,5.39,4.57,18.18,4.62,18.3l-2.22.9c-.23-.55-5.74-13.53-4.78-19.56ZM54.55,263.42l-1.97-1.34c.06-.09,6.13-8.89,1.49-21.87l2.27-.77c5.06,14.16-1.51,23.58-1.79,23.98ZM56.96,27.79c-7.36-.4-5.93-6.53-5.93-6.53,0,0,2.97-6.98,8.03-5.63,5.06,1.35,6.19,7.37,6.19,7.37,0,0-.92,5.18-8.28,4.78ZM60.68,133.92l1.81-1.54c.7.78,17.12,19.33,18.47,36.56l-2.4.18c-1.28-16.45-17.72-35.01-17.88-35.2ZM111.85,262.06l-1.84-1.5c.06-.07,5.46-6.6,5.65-21.13l2.4.03c-.21,15.45-5.97,22.31-6.21,22.6ZM111.92,237.65h.02c-.12.18-9.18,13.27-27.08,13.27-5.42,0-11.64-1.2-18.67-4.31l1-2.13c21.72,9.63,34.9.25,40.15-5.04l-.21-.03c2.59-2.58,9.61-10.4,11.76-21.36l2.36.44c-1.68,8.54-6.01,15.14-9.32,19.17ZM127.44,48.39c-2.8,11.48-3.02,13-3.04,13.13l-2.4-.1c0-.77,1.94-8.84,3.1-13.58,2.95-12.08-1.01-24.82-1.05-24.94l2.3-.69c.17.54,4.2,13.46,1.09,26.18Z"/>
        <path class="cls-1" d="M145.87,143.13c.79,3.95,1.64,8.22,1.64,8.22,0,0,.09-3.45-1.64-8.22Z"/>
        <path class="cls-1" d="M107.32,239.44l2.69.4c.57-.61,1.22-1.34,1.9-2.18l-1.99-1.27c-.13.2-1,1.44-2.6,3.06Z"/>
      </g>
    </g>
  </g>
</svg>