<?xml version="1.0" encoding="UTF-8"?>
<svg xmlns="http://www.w3.org/2000/svg" version="1.1" viewBox="0 0 175.66 296.14">
  <defs>
    <style>
      .cls-1 {
        fill: #a6cff0;
      }
    </style>
  </defs>
  <!-- Generator: Adobe Illustrator 28.7.1, SVG Export Plug-In . SVG Version: 1.2.0 Build 142)  -->
  <g>
    <g id="Capa_1">
      <g>
        <path class="cls-1" d="M37.02,74.56c-.24,0-.48.02-.72.05-.62,3.67-1.58,12.34.29,15.14.35.52.78.8,1.31.84.68.06,1.26-.2,1.8-.76,2.47-2.57,2.83-10.35,2.88-11.8-1.62-2.27-3.48-3.46-5.52-3.47h-.04Z"/>
        <path class="cls-1" d="M168.08,165.38h0s0-.02.01-.03c0,.01-.01.02-.02.03Z"/>
        <path class="cls-1" d="M159.93,257.81s0,0,0,0l.09-.23c2.76-7.43,6.99-19.7,10.33-33.37,5.11-20.88,5.17-44.02,4.96-53-.06-2.62-.67-5.09-1.75-7.16-.55-1.04-1.09-1.71-1.57-1.96-.2-.06-.4-.08-.6-.07-.49.15-1.34.94-2.32,4.11-1.76,5.73-1.94,5.67-2.55,5.46-.54-.18-.81-.27.4-5.94-.49-1.16-1.82-3.61-3.33-3.67-.02,0-.04,0-.06,0-.24,0-.49.07-.74.2-6.39,4.13-9.85,43.87-9.85,43.87l-.17.16c7.45,18.74,7.43,33.89,7.42,34.79.49,6.2.38,11.81-.29,16.85,0-.01,0-.03.01-.04Z"/>
        <path class="cls-1" d="M29.19,233.64c.34-1.13,1.94-7.03-.26-9.54-1.41-1.61-4.18-1.58-8.23.08-1.97.81-3.32,2.27-4.13,4.47,7.88,7.64,11.91,5.49,12.62,4.99Z"/>
        <path class="cls-1" d="M45.67,80.08c-.89-.28-1.53-.62-1.99-.94-.16,2.78-.78,9.13-3.21,11.66-.71.74-1.52,1.11-2.41,1.11-.08,0-.17,0-.25,0-.87-.07-1.59-.52-2.15-1.35-2.26-3.38-1.07-12.58-.59-15.65-1.69.55-3.23,1.7-4.41,2.8-.28,1.95-1.99,15.28,1.73,20.93.95,1.45,2.16,2.24,3.68,2.43,1.55.19,2.9-.3,4.11-1.49,4.69-4.61,5.41-17.94,5.47-19.49Z"/>
        <path class="cls-1" d="M117.21,133.75s-2.29-1.28-14.77-17.73c-.11-.15-.22-.3-.34-.46-2.52-3.32-4.72-6.93-6.61-10.5-3.19-6-5.48-11.88-7.03-16.54-1.15-3.41-1.72-5.61-1.74-5.69h.01c-.41-1.51-.69-2.65-.84-3.33-1.08-.32-2.12-1.01-3.11-2.09-2.29-2.52-3.75-5.87-4.66-9.37-.61,2.55-2.02,6.66-4.96,13.37-7.87,17.94-18.58,20.53-19.03,20.64l-.22-1.28c.11-.02,10.62-2.62,18.22-19.94,6.39-14.57,5.19-16.26,5.14-16.32.01.02.05.03.12.03-1.21-7.33-.48-14.33-.43-14.8.02-.17,2.03-14.5.58-19.61l1.09-.4c1.54,5.41-.45,19.6-.53,20.2-.02.16-1.94,18.4,5.48,26.54,1.44,1.58,2.92,2.18,4.52,1.84,5.45-1.16,10.23-12.81,10.27-12.93l.04-.09c.08-.13,7.63-13.39,8.17-31.78.12-4.08-1.02-7.48-3.37-10.1-6.51-7.24-20.27-6.47-20.41-6.46l-.41.03-.15-.44c-3.44-9.77-19.01-14.6-19.17-14.65C43.07-4.99,28.35,7.29,28.21,7.42l4.46-2.91c-2.48,1.47-10.59,6.29-13.21,8.31l.63-.54c-.24.2-24.34,20.26-19.19,35.74,5.3,15.9,7,20.13,7.01,20.17.33.84,1.51,3.18,2.75,3.15,1.04-.04,2.17-1.81,3.18-4.98,3.4-10.69,1.55-27.26,1.53-27.42-.02-.3-.41-6.46.56-11.5l1.12.28c-.93,4.86-.54,11.03-.54,11.09.07.6,1.59,14.19-.77,24.91.04,1.18.49,13.12,2.29,19.83,1.87,6.95,5.32,11.3,5.36,11.34l-.38.4.88,1.16-3.35,4.06.41.45c-.06.07-5.57,6.64-5.05,11.97.17,1.78.98,3.19,2.48,4.32,1.49,1.12,2.25,2.57,2.26,4.32.02,4.62-5.45,10.12-8.52,12.83,3.3-.35,4.88,2.88,4.88,2.88.01.15.01.31.02.46l.55.09c-.07.56-1.54,11.96-6,16.15,4.18.43,4.19,5.63,4.19,5.63l-.07.43.5.11c-.09.58-9.25,57.21-.51,67.59.95-2.3,2.51-3.91,4.63-4.78,4.52-1.85,7.69-1.77,9.44.23,2.94,3.37.57,10.79.46,11.11l-.05.16-.12.11c-.19.18-4.61,4.21-13.87-4.58-3.03,12.57,9.74,38.8,9.87,39.07.03.06.63,1.36,0,2.75-.65,1.44-2.33,2.38-4.98,2.77-5.71.86-9.86,8.04-10.17,8.59-.15.39-1.55,4.18.11,6.81,1.5,2.38,5.19,3.27,10.68,2.56.1,0,6.23-.39,12.48-2.91l.17.53c.73-.27,1.15-.45,1.15-.45l1.59.15c.26-1.68,1.28-3.55,3.08-5.59,9.34-10.62,3.03-30.36,2.97-30.56l1.08-.46c.28.84,6.63,20.73-3.23,31.94-2.32,2.64-3.21,4.83-2.64,6.51,1.09,3.2,7.37,4.23,9.71,4.36.07,0,3.49.43,7.84-1.37.1-.03,4.67-1.43,10.53-5.1,1.41-.88,2.38-1.49,3.05-1.88-.67-1.54-1.87-4.99-.88-8.21.7-2.27,2.34-3.95,4.87-5,8-3.3,8.1-10.15,8.1-10.22-2.89-39.57,19.65-58.62,19.87-58.81l.68,1.06c-.22.18-22.23,18.83-19.4,57.69,0,.37-.1,7.89-8.85,11.5-2.2.91-3.6,2.32-4.18,4.19-.85,2.76.26,5.89.85,7.24.51-.2.61-.04.77.27.23.44,0,.77-.3,1.04.45.72,3.64,3.39,25.58,1.71,27.33-2.09,41.53-5.59,41.67-5.63h.07c.08-.02,7.91-.88,13.94-9.06,2.17-2.94,3.84-6.43,5.02-10.45l-.12-.07s.16-.38.41-1.01c1.7-6.38,2.21-14.03,1.51-22.9v-.04s0-.04,0-.04c0-.21.22-16.31-8.03-36.02-1.04-1.92-4.94-9.18-9.17-17.23-.55-.83-1.11-1.66-1.7-2.49l-.04-.07c-.25-.47-3.73-7.06-6.8-14.08-1.32-2.68-2.43-5-3.17-6.69-1.04-2.39-1.4-4.46-1.36-6.23-.05-.25-.09-.5-.12-.74l.16-.03M118.69,135.64l-.44.73M60.9,168.3c.1-.23,2.12-4.69,5.5-5.13,2.02-.26,4.05.96,6.01,3.65.63.86,1.28,1.2,1.99,1.04,4.54-1.07,10.43-20.22,12.31-27.51l1.1.37c-.71,2.76-7.15,27-13.18,28.42-1.15.27-2.19-.23-3.11-1.48-1.7-2.32-3.38-3.39-5-3.19-2.76.35-4.57,4.34-4.59,4.38l-3.39,9.29-1.06-.5,3.41-9.34ZM61.37,38.7c.98-.56,2.14-.66,3.15-.15.73.36,1.02.59,1.02.59,4.27,2.98-.12,6.15-.12,6.15,0,0-3.93,1.88-5.93-1.8-1.31-2.41.49-3.98,1.88-4.78ZM40.07,51.25c3.5.38,6.63,2.45,9.3,6.14l-.89.83c-2.46-3.41-5.33-5.32-8.51-5.67-5.62-.61-10.39,3.83-10.44,3.87l-.73-1.01c.21-.2,5.19-4.83,11.27-4.17ZM25.43,42.19c-1.31-2.41.49-3.98,1.88-4.78.98-.56,2.14-.66,3.15-.15.73.36,1.02.59,1.02.59,4.27,2.98-.12,6.15-.12,6.15,0,0-3.93,1.88-5.93-1.8ZM31.48,99.42c-3.46-5.25-2.65-16-2.15-20.34-.63.72-1.01,1.24-1.02,1.25l-.9-.82c.17-.25,4.14-5.76,8.98-6.21l.11-3.97c-1.08-.26-2.24-.97-3.48-2.33-4.77-5.25-.47-7.76,2.22-8.73,1.33-.48,2.75-.62,4.11-.26,2.26.6,3.5,2.14,4.15,3.39.54,1.03.51,2.32-.07,3.32-1.03,1.8-3.08,4.62-5.78,4.73l-.11,3.85c2.26.19,4.3,1.56,6.06,4.11.03.05,1.46,2.16,6.96,1.87l.05,1.31c-.37.02-.72.03-1.05.03-1.07,0-1.98-.1-2.76-.24-.11,2.43-.93,15.35-5.86,20.2-1.25,1.23-2.67,1.85-4.23,1.85-.25,0-.5-.02-.76-.05-1.83-.23-3.33-1.22-4.47-2.94Z"/>
      </g>
    </g>
  </g>
</svg>