<?xml version="1.0" encoding="UTF-8"?>
<svg xmlns="http://www.w3.org/2000/svg" version="1.1" viewBox="0 0 175.66 296.14">
  <defs>
    <style>
      .cls-1 {
        fill: #f190b8;
      }
    </style>
  </defs>
  <!-- Generator: Adobe Illustrator 28.7.1, SVG Export Plug-In . SVG Version: 1.2.0 Build 142)  -->
  <g>
    <g id="Capa_1">
      <path class="cls-1" d="M161.7,236.06l-16.73-22.96c-16.73-22.96-13.54-53.08-13.54-53.08,0,0-.68-25.79.57-34.11,1.25-8.32,6.71,23.46,6.71,23.46,0,0,5.12-14.64,5.12-15.48s3.19-37.61,3.19-37.61c0,0-.34-7.65-.91-30.78-.57-23.13-9.9-22.21-9.9-22.21l-1.25-5.66s-3.07-20.63-3.64-26.46c-.57-5.82-3.3-1.5-3.3-1.5,0,0,1.25,2.5-11.61,8.49-12.86,5.99-13.09,24.46-13.09,24.46l.54-.04c0,.11.41,10.59,3.67,15.93l-.8,1.05c-3.15-5.15-3.81-14.25-3.92-16.43-.41.23-1.06.3-1.99-.51-1.71-1.5-1.14-6.32-1.14-10.32s-3.19-1.66-3.19-1.66l-3.41-4.66.11-1.83c1.02-2.33,0-7.16,0-7.16,0,0,0-1.5-6.6-3.99-6.6-2.5-16.04,13.14-16.05,13.15l.54.04-.68,18.04-1.07-.09.68-18.04.54.04v-2.33c-.8-6.99-5.01-5.16-5.01-5.16,0,0-11.38-21.47-15.25-17.97-3.87,3.49-5.35,28.79-5.35,28.79l-13.54,18.05s-.68,2.25-9.05,24.96c-8.36,22.71,12.97,32.7,12.97,32.7-2.22,14.23.85,28.62.85,28.62-3.41,28.62,5.24,41.6,5.24,41.6,0,0,3.19,23.3-10.7,47.92-13.88,24.63-10.24,30.95-10.24,30.95,0,0-8.42,3.66-18.66,24.29-10.24,20.63,26.4,10.98,26.4,10.98,3.73,9.34,26,6.54,35.63,4.86,1.38.31,3.14.69,5.34,1.13,21.4,4.33,30.04-8.32,30.04-8.32,4.1,4.33,18.21,0,18.21,0,0,0,5.92-3.66,15.25-2.44,9.33,1.22,9.1-4.88,9.1-4.88,0,0,20.94,10.98,31.64,0,10.7-10.98-11.72-43.85-11.72-43.85ZM142.76,77.66l-.99.61c-4.49-15.52-27.68-18.43-27.91-18.45l.09-1.57c.98.12,24.07,3.01,28.82,19.41ZM105.88,49.22l-.71-1.18c.13-.17,13.24-16.47,28.51,3.59l7.52,7.8-.62,1.28-7.6-7.88c-14.55-19.15-26.6-4.25-27.11-3.6ZM106.63,80.14c6.71,3.33,2.19,10.36,2.19,10.36,0,0-3.21,3.49-6.97-.42l-1.08-1.46s-.85-11.81,5.86-8.49ZM95.12,48.95l3.73,3.76c6.5,9.43.09,20.57.03,20.68l-.82-1.02c.24-.41,5.8-10.11.06-18.49l-3.62-3.63.61-1.3ZM95.76,62.81l-2.4-9.26,1-.56,2.42,9.34c4.26,23.1-3.43,27.13-3.76,27.29l-.17-.75-.17-.74c.07-.04,7.04-3.83,3.08-25.31ZM73.83,26.34c.39.06,9.27,1.53,11.69,8.59-.31-3.25-1.43-10.93-5.09-13.17l.41-1.45c4.34,2.65,5.49,11.4,5.78,14.72.67-2.52,2.53-8.77,5.06-11.24l.6,1.31c-2.83,2.76-4.89,11.42-4.91,11.51l-.66-.33s0,.02,0,.03l-1.07.09s-.01-.31-.05-.8l-.87.52c-1.87-6.7-10.91-8.2-11-8.21l.11-1.56ZM84.46,86.46c1.3,2.78,3.65,2.69,3.68,2.69l.04,1.57s-.03,0-.07,0c-.47,0-3.02-.15-4.53-3.37-1.73-3.68-1.36-9.79,1.1-18.16l.99.62c-2.27,7.73-2.68,13.49-1.2,16.65ZM73.36,56.7c1.32-2.57,3.29-3.99,5.87-4.22l.07,1.57c-2.25.2-3.96,1.41-5.08,3.59-2.64,5.13-1.31,14.04-1.3,14.13l-1.05.35c-.06-.39-1.45-9.7,1.48-15.42ZM73.16,80.98s4.52,7.03-2.19,10.36c-6.71,3.33-5.86-8.49-5.86-8.49l1.08-1.46c3.76-3.91,6.97-.42,6.97-.42ZM51.11,137.31c3.44,41.6,2.94,56.19,2.93,56.33-.04,1.3-1.02,32.3-9.16,42.04l-.68-1.22c7.77-9.3,8.76-40.59,8.77-40.9,0-.15.5-14.65-2.93-56.07-1.3-15.69.34-27.48,4.87-35.05,4.77-7.96,10.95-8.16,11.21-8.16v1.57s-5.97.21-10.41,7.65c-4.31,7.22-5.86,18.59-4.6,33.8ZM43.36,106.62c.97-24.79,14.29-29.38,14.42-29.42l.23,1.53c-.52.17-12.65,4.41-13.58,27.98l-1.07-.09ZM29.22,69.9l-.93-.8c.48-1.19,11.82-29.12,25.05-32.52,4.34-1.12,8.4.57,12.08,5.02l.08.11,2.66,4.82-.84.99-2.62-4.75c-3.41-4.1-7.16-5.66-11.16-4.63-12.74,3.28-24.2,31.48-24.31,31.77ZM39.22,65.47l-.76-1.11c6.94-10.14,18.57-1.76,22.61,1.65-.5-2.2-.98-5.63-.12-8.63.66-2.32,2-3.95,3.97-4.87l.32,1.5c-1.65.77-2.76,2.1-3.3,3.97-1.17,4.1.69,9.53.71,9.59l.93,2.68-1.71-1.66c-.15-.14-14.96-14.35-22.66-3.11ZM64.83,152.26c3.23,29.35-1.78,43.69-2.69,45.99.68,3.47,5.8,32.14-5.31,49.66-11.63,18.34-19.45,24.97-19.53,25.03l-.53-1.36c.08-.06,7.77-6.6,19.27-24.74,11.36-17.91,5.07-48.16,5.01-48.47l-.07-.35.13-.31c.06-.14,6.06-14.36,2.67-45.21-3.48-31.57,7.33-50.75,7.44-50.94l.82,1.01c-.11.18-10.59,18.85-7.2,49.68ZM70.4,137.11l-1.08-.02c0-.17.24-17.21,10.51-17.77l.04,1.57c-9.25.5-9.47,15.57-9.48,16.21ZM91.45,237.23c-4.51,27.72-8.77,30.57-9.24,30.8l-.35-1.49s4.17-2.79,8.54-29.67c4.47-27.43-10.84-60.59-10.99-60.92l.89-.89c.16.34,15.73,34.06,11.15,62.17ZM92.85,120.89c-1.78,0-2.97-2.35-3.61-4.15-1.02,2.02-3.36,3-3.49,3.05l-.29-1.51c.87-.36,3.33-1.8,3.17-3.69l1.05-.34c.01.05,1.14,5.07,3.18,5.07v1.57ZM94.05,107.61l-5.16,3.88-2.85-3.16s-5.54-5.44-3.6-9.82c1.93-4.38,6.45-3.33,6.45-3.33l2.12.17s3.19-.17,4.82,4.05c1.63,4.22-1.78,8.21-1.78,8.21ZM97.29,118.67l.47-1.41c.1.07,10.2,7.5,9.07,21.93l-1.07-.18c1.04-13.32-8.39-20.28-8.48-20.35ZM110.78,223.45l-.94.76c-.34-.89-8.14-22.18-.86-66.39,7.13-43.25-10.11-53.71-10.29-53.81l.39-1.46c.19.11,4.69,2.76,8.31,11.01,3.31,7.55,6.46,21.41,2.63,44.63-7.18,43.54.67,65.05.75,65.26ZM120.86,244.23c-.03-.54-2.94-53.67-3.66-66.63-.28-5.02.34-10.71,1.05-17.29,1.19-10.97,2.67-24.63.97-42.88-1.11-11.86-5.84-19.62-14.07-23.08-6.21-2.61-12.18-1.66-12.24-1.65l-.12-1.56c.24-.04,24.71-3.78,27.5,26.07,1.72,18.49.23,32.27-.97,43.34-.7,6.48-1.31,12.08-1.04,16.91.72,12.96,3.63,66.1,3.66,66.63l-1.07.13ZM128.98,110.1l-1.07-.05c.53-22.33-8.45-31.34-8.54-31.43l.59-1.31c.39.38,9.58,9.54,9.02,32.79ZM149.56,268.01c-8.92-5.5-15.76-39.66-16.05-41.11l1.03-.44c.07.35,6.98,34.89,15.43,40.1l-.42,1.45Z"/>
    </g>
  </g>
</svg>