<?xml version="1.0" encoding="UTF-8"?>
<svg xmlns="http://www.w3.org/2000/svg" version="1.1" viewBox="0 0 175.66 296.14">
  <defs>
    <style>
      .cls-1 {
        fill: #f190b8;
      }
    </style>
  </defs>
  <!-- Generator: Adobe Illustrator 28.7.1, SVG Export Plug-In . SVG Version: 1.2.0 Build 142)  -->
  <g>
    <g id="Capa_1">
      <g>
        <path class="cls-1" d="M134.09,258.25c.79-5.96-.91-18.61-2.69-29.23-3.01,7.52-12.16,29.34-17.37,30.59-5.15,1.24-12.08,12.21-12.87,13.49l.02.03v4.44c3.14-1.16,8.98.49,8.98.49,7.83,8.68,25.88,10.04,29.72,10.24-.96-2.47-7.24-19.16-5.79-30.05Z"/>
        <path class="cls-1" d="M174.59,293.03s-2.55-8-10.02-13.4c-7.47-5.39-6.8-22.62-6.8-22.62,0,0,0-29.23,3.06-44.89s-6.12-31.84-6.12-31.84c9.68-26.62-1.05-44.7-1.05-44.7,0,0-2.17-6.18-2.63-12.05-.47-5.87-3.74-13.37-3.74-13.37l.4-.26,2.56-5.5-5.18-3.39h-.85l-4.36-5.94s2.6-4.76,2.66-8.24c.06-3.48-5.66-10.32-5.66-10.32l.38-3.97,1.84-10.12s.34.7,3.96,5.74c3.62,5.05,6.63.2,6.63.2,0,0,3.23-7.39,7.47-10.35,4.25-2.96,8.66-14.01,8.66-14.01,0,0,2.04-4,3.34-10.5,1.3-6.5-10.33-12.67-10.33-12.67,0,0-11.21-3.91-17.16-8.18-5.95-4.26-14.3-2.49-14.3-2.49l-3.71,4.13s-7.22-2.7-14.95-4.44c-7.73-1.74-17.16-.71-17.16-.71l.18-.75c1.02-3.89-4.19-6.84-4.19-6.84,0,0-5.27-2.73-11.67,0-6.4,2.73-11.3,1.3-11.3,1.3,0,0-2.77-.7-10.53.93-7.76,1.62-8.55,8.22-8.55,8.22,0,0,1.19,2,1.61,3.83.42,1.83,0,8.79,0,8.79,0,0,.93,9.66,3.71,13.43,2.77,3.77,5.04,12.53,5.04,12.53l.62.41c3.4-.58,8.15-6.96,8.15-6.96,0,0-1.93,7.77-2.38,13.69-.45,5.92,4.87,13.46,4.87,13.46-1.7.93,2.72,27.14,2.72,27.14,0,0-5.59,2.55-10.94,23.69-5.35,21.14-6.48,24.68-6.48,24.68l-1.87,1.7c-14.78,6.4-21.83,42.75-21.83,42.75,0,0-8.28,5.61-15.97,18.1h0s-4.19-24.87-4.19-24.87l-3.73,13.31c-3.73,13.31,0,30.23,0,30.24-3.61,15.37-1.77,31.08-1.77,31.08-6.12,7.31-1.19,15.75-1.19,15.75-.25,19.31,19.11,14.35,19.11,14.35,0,0-1.02,4.44,14.02,4.44s16.79-7.39,16.79-7.39h1.93c6.91,2.67,14.86-.93,14.86-.93l-.57-.35s.52-.93,1.13-2.75c-.57.08-1.14.12-1.7.12-5.51,0-10.37-3.6-10.61-3.78l.79-1.1c.06.05,6.12,4.52,11.97,3.3,1.28-4.55,2.6-12.87.83-25.38-2.9-20.43-10.75-39.2-10.82-39.38l-.04-.12c-.18-.82-4.46-20.21-1.24-26.54l1.18.63c-2.91,5.72,1.09,24.35,1.35,25.54.5,1.19,8.05,19.63,10.9,39.67,2.94,20.76-2.35,30.1-2.58,30.49l-.57-.35c-3.91,5.57,2.38,7.66,2.38,7.66,0,0,1.7.7,16.48,0,14.78-.7,13.08-14.96,13.08-14.96,0,0,0,0,0,0h-.67v-4.36l-4.61-7.48v-13.65c-.33-.91-2.25-6.45-1.3-9.47l-.23-.95-4.23-8.65-.9-8.17v-20.59l2.27-5.01,1.21.57-2.15,4.74v20.26l.86,7.82,4.19,8.57.36,1.5-.07.2c-.83,2.22.64,7.12,1.27,8.82l.04.12v13.5l3.81,6.17c1.7-2.69,8.11-12.28,13.35-13.54,3.97-.96,12.45-19.47,17.24-31.8-1.43-8.21-2.78-14.65-2.82-14.8v-.14s-.01-7.48-.01-7.48h1.33v7.41c.47,2.25,7.45,35.65,5.94,46.97-1.49,11.17,5.74,29.45,5.82,29.64l-.62.26s5.78,3.13,21.4,6.85c15.63,3.72,12.57-2.15,12.57-2.15ZM50.37,285.27s-.36-3.41-2.13-9.29c-1.6-5.32-6.01-4.01-6.19-3.96l-.42.13-1.84-2.28c-1.59-1.47-3.24-2.13-4.9-1.95-3.07.32-5.27,3.36-5.29,3.39l-.28.4-.46-.15c-1.18-.39-2.22-.3-3.2.25-2.58,1.47-3.65,5.72-3.66,5.76l-1.29-.33c.05-.2,1.22-4.86,4.3-6.62,1.17-.67,2.44-.83,3.8-.49.76-.93,2.94-3.25,5.93-3.56,2.07-.22,4.08.56,5.98,2.33l.07.07,1.33,1.65c1.41-.26,5.74-.56,7.4,4.96,1.81,6.03,2.16,9.41,2.18,9.56l-1.32.14ZM54.4,156.16c2.31,3.74,2.68,12.78,2.68,12.78l-2.68-12.78ZM131.38,14.4c1.26.43,1.41,2.44,1.41,3.92,0,5.89.74,16.85.79,17.55.15.86,2.99,17.39,4.91,21.23l.05.12,1.22,4.2-1.28.39-1.2-4.15c-2.06-4.2-4.9-20.88-5.02-21.6v-.07c-.02-.12-.8-11.58-.8-17.68,0-2.39-.49-2.63-.5-2.63-.23-.08-.98.52-1.48,1.18l-1.06-.82c.26-.36,1.64-2.11,2.96-1.65ZM129.7,42.16l-.83,1.06c-5.54-4.54-12.26-1.36-12.32-1.32l-.57-1.23c.3-.15,7.53-3.59,13.73,1.49ZM126.32,53.55s-2.27,3.71-7.02,2.15c-4.76-1.57,1.93-7.31,1.93-7.31,0,0,4.93.35,5.66,1.04.74.7-.57,4.12-.57,4.12ZM114.32,29.88c-2.88,6.48-9.58,24.34-5.97,29.11,4.69,6.21,7.6,22.57,7.72,23.26l-1.31.24c-.03-.17-2.97-16.73-7.46-22.67-4.83-6.4,5.37-29.53,5.81-30.51l1.21.57ZM96.98,55.93c2.11-9.71,2.02-28.35,2.02-28.54v-.04s0-.04,0-.04c.04-.42,1.13-10.39,5.73-13.11,1.51-.89,3.21-.92,5.05-.08l-.54,1.25c-1.45-.66-2.71-.65-3.85.02-3.9,2.3-4.99,11.4-5.07,12.04,0,.99.04,19.16-2.05,28.8-2.22,10.21-8.3,11.57-8.56,11.62l-.26-1.34c.22-.05,5.51-1.29,7.52-10.58ZM91.74,103.81c-5.89.35-7.36-3.13-7.36-3.13,0,0-3.74-3.71-3.17-12.18.57-8.47,11.89-6.84,11.89-6.84,0,0,5.78.35,9.63,5.22,3.85,4.87-2.58,14.27-2.58,14.27,0,0-2.52,2.32-8.41,2.67ZM99.61,109.27s-3.91,1.39-9.85,0c-5.95-1.39-6.85-2.03-6.85-2.03l7.36-.99,9.34,3.02ZM91.11,32.13l-.84,1.06c-4.55-3.77-14.74,1-14.85,1.05l-.56-1.24c.45-.21,11.05-5.18,16.24-.87ZM65.23,44.03l-1.12-.74c6.31-10.01,18.38-30.04,18.94-34.23.34-2.53,1.08-4.15,2.2-4.84.91-.55,1.71-.27,1.8-.23l.15.06.11.12c.07.08.68.8.77,2.27l-1.33.09c-.04-.65-.21-1.07-.33-1.28-.13,0-.31.03-.53.17-.42.27-1.17,1.13-1.53,3.83-.74,5.54-18.39,33.6-19.14,34.79ZM74.41,42.33c.74-.7,5.66-1.04,5.66-1.04,0,0,6.68,5.74,1.93,7.31-4.76,1.57-7.02-2.15-7.02-2.15,0,0-1.3-3.42-.57-4.12ZM107.07,160.68l-1.33-.09c.15-2.21-.07-6.09-1.3-7.07-.19-.15-.52-.33-1.14-.13-.21.09-.51.31-.54.49-.02.12.09.35.46.68l-.87,1.03c-.7-.62-1.01-1.28-.9-1.94.17-1.01,1.25-1.48,1.37-1.53h.04c1.14-.4,1.93-.04,2.4.33,2.19,1.74,1.86,7.58,1.81,8.24ZM127.98,85.72c-.05.03-3.32,2-7.43,11.98-3.83,9.29-9.99,11.22-11.74,11.58-.49,1.54-2.9,5.92-14.53,6.93-.84.07-1.65.11-2.43.11-11.9,0-16.15-7.99-16.33-8.36l1.18-.64c.18.35,4.64,8.63,17.48,7.53,12.62-1.09,13.43-6.19,13.44-6.24l.07-.53.52-.07c.28-.03,7.04-.93,11.12-10.84,4.35-10.54,7.85-12.55,8-12.63.03-.02,5.65-3.51,7.03-9.08l1.29.34c-1.52,6.12-7.42,9.78-7.67,9.93Z"/>
      </g>
    </g>
  </g>
</svg>