<?xml version="1.0" encoding="UTF-8"?>
<svg xmlns="http://www.w3.org/2000/svg" version="1.1" viewBox="0 0 175.66 296.14">
  <defs>
    <style>
      .cls-1 {
        fill: #f190b8;
      }
    </style>
  </defs>
  <!-- Generator: Adobe Illustrator 28.7.1, SVG Export Plug-In . SVG Version: 1.2.0 Build 142)  -->
  <g>
    <g id="Capa_1">
      <g>
        <path class="cls-1" d="M85.9,104.81c-1.93,4.05-3.95,6.06-6.17,6.06-.07,0-.15,0-.22,0-2.9-.17-4.83-3.79-5.68-5.78-.8.29-1.7.64-2.71,1.07-.2.09-.41.15-.61.23.04,1.7.38,5.42,2.56,8.11,1.77,2.19,4.43,3.3,7.91,3.3s5.97-1.05,7.38-3.11c1.82-2.66,1.47-6.42,1.27-7.78-1.29-.96-2.56-1.62-3.75-2.09Z"/>
        <path class="cls-1" d="M79.65,108.02c1.14.09,2.44-1.33,3.77-3.95-2.03-.42-3.42-.26-3.45-.26l-.3.04-.28-.12s-.05,0-.18,0c-.34,0-1.22.06-2.93.55.75,1.61,2.01,3.67,3.36,3.75Z"/>
        <path class="cls-1" d="M168.77,250.71s-13.59-1.94-11.04-7.5c2.55-5.56,10.62-29.28,10.62-29.28,0,0,16.73-52.2-12.43-85.41l-3.82-5.81s11.15-18.51,5.73-53.71c-5.42-35.2-10.83-52.26-10.83-52.26,0,0-9.24-30.12-42.37-9.44,0,0-4.14,6.17-14.97,6.17s-33.13-.73-33.13-.73c0,0-36-21.41-40.78,3.99-4.78,25.4,0,28.67,0,28.67,0,0-22.3,19.6-4.46,65.33l.64,4.36S-7.2,159.01,2.99,195.3c10.2,36.29,13.7,48.63,13.7,48.63l9.35,34.6s-15.72,14.27,0,17.18c15.72,2.9,25.28-9.92,25.28-9.92,0,0,15.29-15.97,31.01-15.97s21.24,13.16,21.24,13.16c0,0,13.38,13.1,32.71,13.16,19.33.06,11.68-8.9,11.68-8.9,0,0-11.04-12.1-7.43-18.39,1.23-2.14,2.77-3.4,4.28-4.14-2.86-1.06-7.77-3.84-9.26-10.7l2.42-.68c1.68,7.77,9,9.12,9.31,9.17l-.18,1.41c1.93-.41,3.42-.14,3.42-.14,0,0,21.88,6.59,24.64-.09,2.76-6.68-6.37-12.97-6.37-12.97ZM96,73.3c2.48-1.59,5.02,0,5.02,0,0,0,6.37,3.9,2.47,9.53-1.95,2.81-4.24,2.56-6.04,1.61-2.38-1.26-3.99-3.93-3.78-6.9.11-1.55.68-3.18,2.34-4.23ZM91.31,104.72c1,.32,6.36,1.84,9.8-.84l1.41,2.35c-2.04,1.59-4.49,2.05-6.65,2.05-1.38,0-2.63-.19-3.59-.4.15,2.23,0,5.71-1.91,8.52-1.91,2.8-5.06,4.23-9.36,4.23s-7.5-1.42-9.76-4.23c-2.45-3.04-3.05-6.92-3.18-9.22-6.55,1.71-12.34.18-12.62.1l.58-2.77c.07.02,7.28,1.91,14.25-1.04,6.17-2.61,8.7-2.68,9.64-2.52,1.11-.1,6.19-.27,11.41,3.76ZM76.7,82.86s5.84-.73,8.07,6.05c2.23,6.77-5.31,10.16-5.31,10.16,0,0-7.86,1.45-9.88-6.41-2.02-7.86,7.12-9.8,7.12-9.8ZM56.2,73.3s2.54-1.59,5.02,0c2.73,1.74,2.53,5.04,2.11,6.99-.22,1.02-.72,1.92-1.43,2.59-1.71,1.61-5.3,4.08-8.17-.05-3.9-5.63,2.47-9.53,2.47-9.53ZM23.99,15.39c.68-1.35,1.65-2.23,2.89-2.62,6.06-1.86,8.51.81,8.77,1.12l-1.81,1.96s-1.72-1.74-6.31-.33c-.59.18-1.03.59-1.37,1.28-1.62,3.24-.31,10.79.34,13.42l-2.4.76c-.27-1.09-2.53-10.75-.1-15.59ZM6.37,170.93c.22-6.16,1.33-10.82,2.75-14.35l-1.72-.08c.66-18.79,9.67-23.91,10.05-24.12l.54,1.28.54,1.28c-.31.18-7.39,4.36-8.51,19.6,2.79-5.66,6.17-7.6,6.4-7.73l.54,1.28.54,1.28c-.33.18-8.05,4.71-8.64,21.67l-2.49-.11ZM16.04,201.8l-2.49-.11c.66-18.79,9.67-23.91,10.05-24.12l.54,1.28.54,1.28c-.33.18-8.05,4.71-8.64,21.67ZM38.36,130.57c-3.51-2.38-6.12-4.88-8.08-7.29l-.19.36c-14.17-9.63-13.82-21.1-13.8-21.58l1.25.07,1.25.07c-.01.36-.15,7.63,7.79,15.16-2.13-4.64-2.03-8.11-2.02-8.37l2.49.14c-.01.42-.21,10.31,12.58,19l-1.28,2.44ZM42,126.1c-14.17-9.63-13.82-21.1-13.8-21.58l2.49.14c-.01.42-.21,10.31,12.59,19l-1.28,2.44ZM55.23,267.64l-2.21-1.32c.05-.1,4.51-10.05,3.9-24.92-.64-15.46.05-20.42.08-20.62l2.46.46s-.66,4.98-.04,20.03c.65,15.69-3.98,25.94-4.18,26.37ZM102.92,265.54c-.32-.38-7.81-9.57-6.71-22.89l2.48.27c-.99,12,5.97,20.58,6.04,20.67l-1.81,1.95ZM87,135.04c-3.32,1.02-6.48,1.46-9.44,1.46-18,0-28.98-16.25-29.1-16.44l1.99-1.71c.14.21,14.02,20.67,35.9,13.94,21.63-6.65,24.36-13.52,24.38-13.59l2.35.97c-.25.83-3.11,8.3-26.08,15.37ZM114.69,22.88c.65-1.3,6.53-12.73,12.47-13.78,1.69-.31,3.28.27,4.6,1.64,6.17,6.47,8.93,13.23,9.05,13.52l-2.27,1.19c-.03-.07-2.7-6.55-8.47-12.62-.76-.8-1.56-1.09-2.52-.93-4.03.71-9.08,9.18-10.68,12.38l-2.17-1.41ZM122.41,130.57l-1.28-2.44c4.6-3.13,7.52-6.41,9.37-9.34-1.95,2.42-4.57,4.92-8.09,7.31l-1.28-2.44c12.79-8.7,12.6-18.58,12.58-19l2.49-.14c0,.18.06,1.91-.62,4.51l.62-.03c.02.48.38,11.95-13.8,21.58ZM132.76,126.1l-1.28-2.44c12.9-8.76,12.59-18.89,12.59-18.99l2.49-.15c.02.48.37,11.95-13.8,21.58ZM146.19,145.21l.46-2.79c.42.09,10.29,2.35,15.24,20.29l-2.38.85c-4.46-16.19-12.95-18.26-13.31-18.34ZM151.55,168.69l1.08-2.56c.38.21,9.39,5.33,10.05,24.12l-2.49.11c-.6-16.96-8.32-21.48-8.64-21.67Z"/>
      </g>
    </g>
  </g>
</svg>