<?xml version="1.0" encoding="UTF-8"?>
<svg xmlns="http://www.w3.org/2000/svg" version="1.1" viewBox="0 0 1187.75 637.04">
  <defs>
    <style>
      .cls-1 {
        fill: #a6cff0;
      }

      .cls-2 {
        fill: #fff;
      }

      .cls-3 {
        fill: #f190b8;
      }
    </style>
  </defs>
  <!-- Generator: Adobe Illustrator 28.7.1, SVG Export Plug-In . SVG Version: 1.2.0 Build 142)  -->
  <g>
    <g id="Capa_1">
      <g>
        <path class="cls-2" d="M417.93,32.02V2.76h9.6c2.16,0,4.1.29,5.82.87,1.72.58,3.09,1.53,4.11,2.86,1.01,1.33,1.52,3.15,1.52,5.47s-.51,4.03-1.52,5.47c-1.01,1.44-2.37,2.5-4.07,3.18-1.7.69-3.6,1.03-5.71,1.03h-3.91v10.38h-5.84ZM423.77,17.02h3.51c2,0,3.5-.42,4.48-1.26.99-.84,1.48-2.11,1.48-3.79s-.52-2.86-1.56-3.53c-1.04-.67-2.57-1.01-4.6-1.01h-3.32v9.6Z"/>
        <path class="cls-2" d="M452.21,32.58c-2.05,0-3.91-.46-5.57-1.38-1.66-.92-2.98-2.25-3.97-3.99-.99-1.74-1.48-3.82-1.48-6.24,0-1.79.28-3.4.85-4.82.57-1.42,1.34-2.64,2.33-3.65s2.09-1.79,3.32-2.33c1.22-.54,2.49-.81,3.81-.81,2.03,0,3.72.45,5.09,1.36s2.4,2.16,3.1,3.75c.7,1.59,1.05,3.42,1.05,5.47,0,.53-.03,1.03-.08,1.52s-.12.88-.2,1.16h-13.62c.16,1.19.51,2.19,1.07,3,.55.82,1.26,1.43,2.13,1.84.87.41,1.86.61,2.96.61.89,0,1.74-.12,2.53-.38.79-.25,1.59-.62,2.41-1.12l1.97,3.55c-1.08.74-2.29,1.33-3.63,1.78s-2.7.67-4.07.67ZM446.72,18.72h9.04c0-1.47-.34-2.65-1.01-3.53-.67-.88-1.73-1.32-3.18-1.32-.76,0-1.49.18-2.17.53-.68.36-1.26.9-1.74,1.62-.47.72-.79,1.63-.95,2.71Z"/>
        <path class="cls-2" d="M465.51,32.02V9.91h4.74l.43,3.91h.12c.82-1.45,1.78-2.55,2.88-3.32s2.24-1.15,3.4-1.15c.63,0,1.14.05,1.52.14.38.09.73.21,1.05.34l-.95,5.02c-.42-.11-.8-.19-1.12-.26-.33-.07-.74-.1-1.24-.1-.84,0-1.73.33-2.67.99-.94.66-1.72,1.78-2.35,3.36v13.19h-5.81Z"/>
        <path class="cls-2" d="M482.77,32.02V9.91h4.74l.43,3.91h.12c.82-1.45,1.78-2.55,2.88-3.32s2.24-1.15,3.4-1.15c.63,0,1.14.05,1.52.14.38.09.73.21,1.05.34l-.95,5.02c-.42-.11-.8-.19-1.12-.26-.33-.07-.74-.1-1.24-.1-.84,0-1.73.33-2.67.99-.94.66-1.72,1.78-2.35,3.36v13.19h-5.81Z"/>
        <path class="cls-2" d="M508.6,32.58c-1.84,0-3.57-.46-5.19-1.38s-2.93-2.24-3.93-3.97c-1-1.72-1.5-3.81-1.5-6.26s.5-4.53,1.5-6.26c1-1.72,2.31-3.05,3.93-3.97,1.62-.92,3.35-1.38,5.19-1.38,1.39,0,2.72.26,3.99.79s2.39,1.28,3.4,2.27c1,.99,1.79,2.2,2.37,3.63s.87,3.07.87,4.92c0,2.45-.5,4.54-1.5,6.26-1,1.72-2.31,3.05-3.93,3.97s-3.35,1.38-5.19,1.38ZM508.6,27.84c1,0,1.85-.28,2.55-.85.7-.57,1.22-1.36,1.58-2.39.36-1.03.53-2.24.53-3.63s-.18-2.61-.53-3.63-.88-1.82-1.58-2.39c-.7-.57-1.55-.85-2.55-.85s-1.85.28-2.55.85-1.22,1.36-1.58,2.39-.53,2.24-.53,3.63.18,2.61.53,3.63c.36,1.03.88,1.82,1.58,2.39s1.55.85,2.55.85Z"/>
        <path class="cls-2" d="M530,32.58c-1.47,0-2.97-.29-4.48-.87-1.51-.58-2.82-1.32-3.93-2.21l2.65-3.67c.97.74,1.94,1.32,2.9,1.76.96.43,1.97.65,3.02.65,1.11,0,1.92-.22,2.43-.65.51-.43.77-.99.77-1.68,0-.55-.22-1.02-.67-1.4-.45-.38-1.03-.72-1.74-1.03s-1.45-.6-2.21-.89c-.92-.37-1.84-.82-2.74-1.34-.91-.53-1.67-1.2-2.27-2.03-.61-.83-.91-1.86-.91-3.1,0-1.32.34-2.48,1.03-3.49s1.64-1.81,2.86-2.39c1.22-.58,2.68-.87,4.36-.87s3.03.28,4.28.83,2.32,1.18,3.22,1.9l-2.61,3.51c-.79-.58-1.57-1.04-2.35-1.38-.78-.34-1.57-.51-2.39-.51-1.03,0-1.78.2-2.25.59-.47.4-.71.91-.71,1.54,0,.53.2.97.59,1.32.39.36.93.67,1.62.93.68.26,1.41.54,2.17.83.74.26,1.47.57,2.19.93.72.36,1.39.78,1.99,1.28.61.5,1.09,1.11,1.44,1.84.36.72.53,1.6.53,2.63,0,1.29-.34,2.47-1.01,3.53-.67,1.07-1.66,1.91-2.96,2.53-1.3.62-2.92.93-4.84.93Z"/>
        <path class="cls-2" d="M561.27,32.54c-1.92,0-3.66-.45-5.21-1.34-1.55-.89-2.78-2.18-3.69-3.85s-1.36-3.68-1.36-6.02c0-1.76.26-3.34.79-4.72s1.24-2.57,2.15-3.55,1.94-1.74,3.1-2.25c1.16-.51,2.34-.77,3.55-.77,1.84,0,3.4.41,4.66,1.22,1.26.82,2.23,1.98,2.9,3.49.67,1.51,1.01,3.3,1.01,5.35,0,.39-.01.76-.04,1.11-.03.34-.07.66-.12.95h-14.45c.08,1.53.43,2.85,1.05,3.97.62,1.12,1.44,1.99,2.47,2.61,1.03.62,2.22.93,3.59.93,1.05,0,2.01-.15,2.86-.45s1.69-.72,2.51-1.24l1.26,2.41c-.92.61-1.96,1.12-3.12,1.54s-2.46.63-3.91.63ZM554.52,19.59h11.49c0-2.16-.47-3.81-1.4-4.96s-2.25-1.72-3.93-1.72c-1,0-1.94.26-2.82.79s-1.62,1.28-2.21,2.25c-.59.97-.97,2.19-1.12,3.63Z"/>
        <path class="cls-2" d="M574.46,32.02V10.58h2.96l.36,3.12h.08c1.03-1.03,2.11-1.9,3.26-2.61,1.14-.71,2.45-1.07,3.93-1.07,2.26,0,3.92.72,4.98,2.15,1.05,1.44,1.58,3.52,1.58,6.26v13.58h-3.59v-13.11c0-2.03-.32-3.49-.97-4.38-.65-.89-1.68-1.34-3.1-1.34-1.11,0-2.09.28-2.96.83-.87.55-1.83,1.37-2.88,2.45v15.56h-3.63Z"/>
        <path class="cls-2" d="M603.6,32.02l9.36-29.26h6.91l9.36,29.26h-6.16l-4.15-15.24c-.45-1.53-.88-3.11-1.28-4.76-.41-1.64-.84-3.24-1.28-4.8h-.16c-.37,1.58-.77,3.19-1.2,4.82-.43,1.63-.86,3.21-1.28,4.74l-4.19,15.24h-5.92ZM609.41,24.52v-4.54h13.9v4.54h-13.9Z"/>
        <path class="cls-2" d="M632.19,32.02V9.91h4.74l.43,3.91h.12c.82-1.45,1.78-2.55,2.88-3.32s2.24-1.15,3.4-1.15c.63,0,1.14.05,1.52.14.38.09.73.21,1.05.34l-.95,5.02c-.42-.11-.8-.19-1.12-.26-.33-.07-.74-.1-1.24-.1-.84,0-1.73.33-2.67.99-.94.66-1.72,1.78-2.35,3.36v13.19h-5.81Z"/>
        <path class="cls-2" d="M656.56,41.62c-1.74,0-3.3-.2-4.7-.61s-2.49-1.03-3.3-1.86c-.8-.83-1.2-1.9-1.2-3.22,0-.92.26-1.78.79-2.57s1.32-1.46,2.37-2.01v-.2c-.58-.37-1.06-.86-1.44-1.46-.38-.61-.57-1.37-.57-2.29,0-.82.24-1.59.73-2.31s1.06-1.32,1.72-1.8v-.16c-.76-.55-1.45-1.33-2.05-2.33-.61-1-.91-2.16-.91-3.47,0-1.74.41-3.2,1.24-4.38.83-1.19,1.93-2.08,3.3-2.69,1.37-.61,2.82-.91,4.34-.91.66,0,1.27.05,1.84.16s1.09.24,1.56.39h7.94v4.26h-3.75c.29.39.53.88.71,1.46.18.58.28,1.21.28,1.9,0,1.66-.38,3.05-1.15,4.17-.76,1.12-1.79,1.96-3.08,2.51-1.29.55-2.74.83-4.34.83-.39,0-.84-.05-1.34-.14-.5-.09-1-.22-1.5-.38-.29.26-.52.53-.69.81-.17.28-.26.65-.26,1.13,0,.55.26.99.77,1.3.51.32,1.41.47,2.7.47h3.79c2.66,0,4.7.44,6.12,1.32s2.13,2.28,2.13,4.21c0,1.5-.49,2.84-1.48,4.01-.99,1.17-2.38,2.11-4.19,2.8-1.8.7-3.93,1.05-6.38,1.05ZM657.43,37.91c1.13,0,2.11-.14,2.94-.43.83-.29,1.48-.67,1.96-1.14s.71-1,.71-1.58c0-.79-.32-1.32-.95-1.6s-1.54-.42-2.72-.42h-2.72c-.66,0-1.22-.02-1.7-.06-.47-.04-.92-.11-1.34-.22-.5.39-.86.81-1.09,1.24-.22.43-.34.89-.34,1.36,0,.89.47,1.59,1.42,2.09.95.5,2.22.75,3.83.75ZM656.87,21.44c.66,0,1.25-.16,1.78-.47.53-.32.95-.78,1.26-1.4.32-.62.47-1.36.47-2.23s-.16-1.6-.47-2.19c-.32-.59-.74-1.04-1.26-1.34-.53-.3-1.12-.45-1.78-.45s-1.21.15-1.74.45c-.53.3-.94.75-1.24,1.34-.3.59-.45,1.32-.45,2.19s.15,1.61.45,2.23.72,1.09,1.24,1.4c.53.32,1.11.47,1.74.47Z"/>
        <path class="cls-2" d="M681,32.58c-2.05,0-3.91-.46-5.57-1.38-1.66-.92-2.98-2.25-3.97-3.99-.99-1.74-1.48-3.82-1.48-6.24,0-1.79.28-3.4.85-4.82.57-1.42,1.34-2.64,2.33-3.65s2.09-1.79,3.32-2.33c1.22-.54,2.49-.81,3.81-.81,2.03,0,3.72.45,5.09,1.36s2.4,2.16,3.1,3.75c.7,1.59,1.05,3.42,1.05,5.47,0,.53-.03,1.03-.08,1.52s-.12.88-.2,1.16h-13.62c.16,1.19.51,2.19,1.07,3,.55.82,1.26,1.43,2.13,1.84.87.41,1.86.61,2.96.61.89,0,1.74-.12,2.53-.38.79-.25,1.59-.62,2.41-1.12l1.97,3.55c-1.08.74-2.29,1.33-3.63,1.78s-2.7.67-4.07.67ZM675.51,18.72h9.04c0-1.47-.34-2.65-1.01-3.53-.67-.88-1.73-1.32-3.18-1.32-.76,0-1.49.18-2.17.53-.68.36-1.26.9-1.74,1.62-.47.72-.79,1.63-.95,2.71Z"/>
        <path class="cls-2" d="M694.31,32.02V9.91h4.74l.43,2.92h.12c.97-.95,2.04-1.76,3.2-2.45,1.16-.68,2.49-1.03,3.99-1.03,2.4,0,4.13.78,5.21,2.35,1.08,1.57,1.62,3.75,1.62,6.54v13.78h-5.8v-13.07c0-1.71-.24-2.91-.73-3.59-.49-.68-1.28-1.03-2.39-1.03-.9,0-1.68.21-2.35.63-.67.42-1.42,1.04-2.23,1.86v15.2h-5.81Z"/>
        <path class="cls-2" d="M727.71,32.58c-1.74,0-3.15-.35-4.23-1.05s-1.86-1.67-2.33-2.9c-.47-1.24-.71-2.67-.71-4.3v-9.83h-3.12v-4.3l3.44-.28.67-5.96h4.78v5.96h5.49v4.58h-5.49v9.79c0,1.26.26,2.2.79,2.8.53.61,1.28.91,2.25.91.37,0,.75-.05,1.15-.16.39-.1.74-.21,1.03-.32l.99,4.22c-.61.18-1.3.37-2.07.55-.78.18-1.65.28-2.63.28Z"/>
        <path class="cls-2" d="M739.17,6.32c-1.03,0-1.84-.28-2.45-.85-.61-.57-.91-1.34-.91-2.31s.3-1.71.91-2.29c.61-.58,1.42-.87,2.45-.87.97,0,1.78.29,2.41.87s.95,1.34.95,2.29-.32,1.75-.95,2.31c-.63.57-1.43.85-2.41.85ZM736.24,32.02V9.91h5.81v22.11h-5.81Z"/>
        <path class="cls-2" d="M748.25,32.02V9.91h4.74l.43,2.92h.12c.97-.95,2.04-1.76,3.2-2.45,1.16-.68,2.49-1.03,3.99-1.03,2.4,0,4.13.78,5.21,2.35,1.08,1.57,1.62,3.75,1.62,6.54v13.78h-5.8v-13.07c0-1.71-.24-2.91-.73-3.59-.49-.68-1.28-1.03-2.39-1.03-.9,0-1.68.21-2.35.63-.67.42-1.42,1.04-2.23,1.86v15.2h-5.81Z"/>
        <path class="cls-2" d="M778.97,32.58c-1.29,0-2.43-.28-3.42-.85-.99-.57-1.75-1.35-2.29-2.35-.54-1-.81-2.13-.81-3.4,0-2.34,1.01-4.17,3.04-5.47,2.03-1.3,5.25-2.19,9.67-2.67-.03-.74-.16-1.39-.4-1.96-.24-.57-.62-1.02-1.17-1.36-.54-.34-1.27-.51-2.19-.51-1.03,0-2.04.2-3.04.59-1,.39-2.01.91-3.04,1.54l-2.05-3.87c.87-.55,1.79-1.04,2.76-1.46.97-.42,2-.77,3.08-1.05,1.08-.28,2.2-.41,3.36-.41,1.87,0,3.44.37,4.7,1.11,1.26.74,2.21,1.83,2.84,3.28.63,1.45.95,3.24.95,5.37v12.91h-4.74l-.39-2.37h-.2c-.95.84-1.97,1.54-3.08,2.09s-2.3.83-3.59.83ZM780.9,28.04c.82,0,1.56-.19,2.23-.57.67-.38,1.35-.91,2.03-1.6v-4.42c-1.79.21-3.21.51-4.26.91-1.05.4-1.8.86-2.25,1.4-.45.54-.67,1.14-.67,1.8,0,.87.27,1.5.81,1.9.54.39,1.24.59,2.11.59Z"/>
      </g>
      <g>
        <g>
          <path class="cls-2" d="M73.23,189.01v42.03c0,15.76-1.64,22-11.17,36.78l-11.49,18.39c-6.24,10.18-6.9,17.08-6.9,27.91v16.09c0,8.87,1.97,11.49,8.21,11.49,6.57,0,8.21-3.28,8.21-11.49v-37.44h40.72v38.75c0,27.26-6.9,49.91-44.66,49.91h-8.87C11.83,381.45,0,362.73,0,333.83v-17.08c0-19.7,2.63-31.85,14.78-47.62l16.09-22c6.57-9.19,8.21-12.15,8.21-27.91v-30.21h34.15ZM36.45,134.17h39.08v47.29h-39.08v-47.29Z"/>
          <path class="cls-1" d="M163.21,314.45c-36.12,0-52.54-29.55-52.54-63.71v-120.52c0-36.45,18.06-67.32,69.62-67.32h9.52c52.87,0,67.65,31.2,67.65,60.75v29.88h-63.38v-27.91c0-6.24-1.64-9.85-7.88-9.85s-7.55,3.61-7.55,9.85v125.44c0,8.21,3.28,12.15,9.52,12.15s9.52-3.94,9.52-12.15v-37.44h-14.12v-48.93h76.84v146.13h-44.33c-.99-4.6-4.93-18.06-6.57-21.67-9.19,12.81-22.99,25.29-44.33,25.29h-1.97Z"/>
          <path class="cls-1" d="M334.95,310.84h-65.68V66.52h65.68v244.32Z"/>
          <path class="cls-1" d="M396.68,314.45c-36.12,0-52.54-29.55-52.54-63.71v-120.52c0-36.45,18.06-67.32,69.62-67.32h9.52c52.87,0,67.65,31.2,67.65,60.75v29.88h-63.38v-27.91c0-6.24-1.64-9.85-7.88-9.85s-7.55,3.61-7.55,9.85v125.44c0,8.21,3.28,12.15,9.52,12.15s9.52-3.94,9.52-12.15v-37.44h-14.12v-48.93h76.84v146.13h-44.33c-.99-4.6-4.93-18.06-6.57-21.67-9.19,12.81-22.99,25.29-44.33,25.29h-1.97Z"/>
          <path class="cls-1" d="M580.25,280.63h-23.97l-2.96,30.21h-56.48l31.85-244.32h82.42l35.47,244.32h-63.38l-2.96-30.21ZM561.86,225.79h12.81l-6.57-64.36-6.24,64.36Z"/>
          <path class="cls-1" d="M715.54,66.52l25.29,110.99v-110.99h55.17v244.32h-59.11l-30.54-120.52v120.52h-55.83V66.52h65.02Z"/>
          <path class="cls-1" d="M928.99,66.52v58.78h-29.55v185.54h-65.35V125.31h-29.55v-58.78h124.46Z"/>
          <path class="cls-1" d="M1049.5,66.52v58.78h-48.27v29.23h39.73v60.09h-39.73v36.78h49.91v59.44h-113.95V66.52h112.31Z"/>
          <path class="cls-2" d="M1130.61,353.86h-42.69l48.27-308.35h42.69l-48.27,308.35Z"/>
          <path class="cls-2" d="M1114.52,582.2v-42.03c0-15.76,1.64-22,11.17-36.78l11.49-18.39c6.24-10.18,6.9-17.08,6.9-27.91v-16.09c0-8.87-1.97-11.49-8.21-11.49-6.57,0-8.21,3.28-8.21,11.49v37.44h-40.72v-38.75c0-27.26,6.9-49.91,44.66-49.91h8.87c35.47,0,47.29,18.72,47.29,47.62v17.08c0,19.7-2.63,31.85-14.78,47.62l-16.09,22c-6.57,9.19-8.21,12.15-8.21,27.91v30.21h-34.15ZM1151.3,637.04h-39.08v-47.29h39.08v47.29Z"/>
        </g>
        <rect class="cls-2" x="27.68" y="337.14" width="1040.21" height="294.23"/>
        <g>
          <path class="cls-3" d="M101.43,392.96v23.97c14.78-20.69,26.93-26.6,41.38-26.6h1.64c23.64,0,34.48,19.05,34.48,47.94v89.65c0,26.27-17.4,45.32-38.09,45.32h-.99c-14.78,0-26.27-6.24-37.76-21.67v79.8H38.05v-238.41h63.38ZM102.09,522.35c0,3.94.66,8.54,5.91,8.54s6.24-4.6,6.24-8.54v-79.8c0-4.93-1.31-8.54-6.24-8.54-5.25,0-5.91,3.61-5.91,8.54v79.8Z"/>
          <path class="cls-3" d="M261.02,388.69c34.15,0,60.09,16.09,60.09,60.75v38.42h-72.24v35.47c0,6.57,1.97,8.54,5.91,8.54,5.25,0,6.24-3.28,6.24-8.54v-23.64h60.09v16.09c0,37.11-22.99,58.12-60.09,58.12h-12.15c-39.41,0-62.39-18.39-62.39-60.42v-63.05c0-38.42,20.36-61.74,62.39-61.74h12.15ZM248.87,454.37h12.15v-18.06c0-7.55-.66-10.18-6.24-10.18-4.93,0-5.91,2.63-5.91,10.18v18.06Z"/>
          <path class="cls-3" d="M469.55,392.96v238.41h-63.71v-81.11c-10.84,14.12-22.66,22.99-38.09,22.99h-1.64c-19.7,0-37.76-19.38-37.76-45.65v-87.02c0-31.52,14.78-50.57,41.38-50.57h2.3c21.02,0,32.51,13.46,43.02,26.6,1.97-3.61,5.58-17.73,5.58-23.64h48.93ZM405.84,442.22c0-4.27-.66-9.52-6.9-9.52-4.27,0-5.58,3.94-5.58,8.21v81.44c0,4.93.66,8.87,6.24,8.87,4.93,0,6.24-4.27,6.24-11.82v-77.17Z"/>
          <path class="cls-3" d="M618.96,569.63h-63.05v-23.64c-9.52,13.13-22.66,25.61-42.36,25.61h-1.97c-25.29,0-33.5-22.66-33.5-35.79v-142.85h64.69v123.47c0,4.27,1.64,8.21,6.57,8.21s5.91-3.61,5.91-8.54v-123.14h63.71v176.67Z"/>
          <path class="cls-3" d="M701.71,388.69c34.15,0,60.09,16.09,60.09,60.75v38.42h-72.24v35.47c0,6.57,1.97,8.54,5.91,8.54,5.25,0,6.24-3.28,6.24-8.54v-23.64h60.09v16.09c0,37.11-22.99,58.12-60.09,58.12h-12.15c-39.41,0-62.39-18.39-62.39-60.42v-63.05c0-38.42,20.36-61.74,62.39-61.74h12.15ZM689.56,454.37h12.15v-18.06c0-7.55-.66-10.18-6.24-10.18-4.93,0-5.91,2.63-5.91,10.18v18.06Z"/>
          <path class="cls-3" d="M769.36,392.96h63.38v23.32c9.52-12.81,22.66-25.94,41.7-25.94h2.63c27.26,0,34.15,23.31,34.15,36.45v142.85h-64.69v-123.14c0-4.27-1.31-8.54-6.9-8.54-5.25,0-6.24,3.94-6.24,8.87v122.82h-64.03v-176.67ZM885.6,337.14v25.61c0,13.14-6.9,23.31-22.66,23.31h-1.31c-6.24,0-12.81-1.64-22-6.57-4.93-2.63-8.21-4.93-10.51-4.93-1.64,0-2.3,1.31-2.3,3.94v8.54h-33.17v-25.61c0-13.13,7.22-23.31,22.99-23.31h.99c6.24,0,11.49,1.31,21.67,6.24,4.93,2.3,8.87,5.25,11.17,5.25,1.64,0,2.3-1.31,2.3-3.94v-8.54h32.84Z"/>
          <path class="cls-3" d="M919.1,456.67c0-45.97,23.32-67.98,65.68-67.98h10.84c43.68,0,65.68,22.66,65.68,67.98v48.93c0,46.96-25.29,68.3-66.01,68.3h-10.84c-44.66,0-65.35-21.67-65.35-67.98v-49.26ZM983.46,516.76c0,6.57,2.3,9.85,6.57,9.85,5.25,0,6.9-3.28,6.9-9.85v-71.59c0-5.58-1.31-10.18-6.9-10.18s-6.57,4.6-6.57,10.18v71.59Z"/>
        </g>
      </g>
    </g>
  </g>
</svg>