<?xml version="1.0" encoding="UTF-8"?>
<svg xmlns="http://www.w3.org/2000/svg" version="1.1" viewBox="0 0 1187.75 637.04">
  <defs>
    <style>
      .cls-1 {
        fill: #f190b8;
      }

      .cls-1, .cls-2, .cls-3, .cls-4 {
        font-family: Druk-Super, Druk;
      }

      .cls-1, .cls-5 {
        font-size: 328.38px;
      }

      .cls-6, .cls-7, .cls-4 {
        fill: #fff;
      }

      .cls-7, .cls-8 {
        font-family: Druk-Bold, Druk;
        font-weight: 700;
      }

      .cls-3 {
        fill: #a6cff0;
      }
    </style>
  </defs>
  <!-- Generator: Adobe Illustrator 28.7.1, SVG Export Plug-In . SVG Version: 1.2.0 Build 142)  -->
  <g>
    <g id="Capa_1">
      <g>
        <path class="cls-6" d="M417.93,32.02V2.76h9.6c2.16,0,4.1.29,5.82.87,1.72.58,3.09,1.53,4.11,2.86,1.01,1.33,1.52,3.15,1.52,5.47s-.51,4.03-1.52,5.47c-1.01,1.44-2.37,2.5-4.07,3.18-1.7.69-3.6,1.03-5.71,1.03h-3.91v10.38h-5.84ZM423.77,17.02h3.51c2,0,3.5-.42,4.48-1.26.99-.84,1.48-2.11,1.48-3.79s-.52-2.86-1.56-3.53c-1.04-.67-2.57-1.01-4.6-1.01h-3.32v9.6Z"/>
        <path class="cls-6" d="M452.21,32.58c-2.05,0-3.91-.46-5.57-1.38-1.66-.92-2.98-2.25-3.97-3.99-.99-1.74-1.48-3.82-1.48-6.24,0-1.79.28-3.4.85-4.82.57-1.42,1.34-2.64,2.33-3.65s2.09-1.79,3.32-2.33c1.22-.54,2.49-.81,3.81-.81,2.03,0,3.72.45,5.09,1.36s2.4,2.16,3.1,3.75c.7,1.59,1.05,3.42,1.05,5.47,0,.53-.03,1.03-.08,1.52s-.12.88-.2,1.16h-13.62c.16,1.19.51,2.19,1.07,3,.55.82,1.26,1.43,2.13,1.84.87.41,1.86.61,2.96.61.89,0,1.74-.12,2.53-.38.79-.25,1.59-.62,2.41-1.12l1.97,3.55c-1.08.74-2.29,1.33-3.63,1.78s-2.7.67-4.07.67ZM446.72,18.72h9.04c0-1.47-.34-2.65-1.01-3.53-.67-.88-1.73-1.32-3.18-1.32-.76,0-1.49.18-2.17.53-.68.36-1.26.9-1.74,1.62-.47.72-.79,1.63-.95,2.71Z"/>
        <path class="cls-6" d="M465.51,32.02V9.91h4.74l.43,3.91h.12c.82-1.45,1.78-2.55,2.88-3.32s2.24-1.15,3.4-1.15c.63,0,1.14.05,1.52.14.38.09.73.21,1.05.34l-.95,5.02c-.42-.11-.8-.19-1.12-.26-.33-.07-.74-.1-1.24-.1-.84,0-1.73.33-2.67.99-.94.66-1.72,1.78-2.35,3.36v13.19h-5.81Z"/>
        <path class="cls-6" d="M482.77,32.02V9.91h4.74l.43,3.91h.12c.82-1.45,1.78-2.55,2.88-3.32s2.24-1.15,3.4-1.15c.63,0,1.14.05,1.52.14.38.09.73.21,1.05.34l-.95,5.02c-.42-.11-.8-.19-1.12-.26-.33-.07-.74-.1-1.24-.1-.84,0-1.73.33-2.67.99-.94.66-1.72,1.78-2.35,3.36v13.19h-5.81Z"/>
        <path class="cls-6" d="M508.6,32.58c-1.84,0-3.57-.46-5.19-1.38s-2.93-2.24-3.93-3.97c-1-1.72-1.5-3.81-1.5-6.26s.5-4.53,1.5-6.26c1-1.72,2.31-3.05,3.93-3.97,1.62-.92,3.35-1.38,5.19-1.38,1.39,0,2.72.26,3.99.79s2.39,1.28,3.4,2.27c1,.99,1.79,2.2,2.37,3.63s.87,3.07.87,4.92c0,2.45-.5,4.54-1.5,6.26-1,1.72-2.31,3.05-3.93,3.97s-3.35,1.38-5.19,1.38ZM508.6,27.84c1,0,1.85-.28,2.55-.85.7-.57,1.22-1.36,1.58-2.39.36-1.03.53-2.24.53-3.63s-.18-2.61-.53-3.63-.88-1.82-1.58-2.39c-.7-.57-1.55-.85-2.55-.85s-1.85.28-2.55.85-1.22,1.36-1.58,2.39-.53,2.24-.53,3.63.18,2.61.53,3.63c.36,1.03.88,1.82,1.58,2.39s1.55.85,2.55.85Z"/>
        <path class="cls-6" d="M530,32.58c-1.47,0-2.97-.29-4.48-.87-1.51-.58-2.82-1.32-3.93-2.21l2.65-3.67c.97.74,1.94,1.32,2.9,1.76.96.43,1.97.65,3.02.65,1.11,0,1.92-.22,2.43-.65.51-.43.77-.99.77-1.68,0-.55-.22-1.02-.67-1.4-.45-.38-1.03-.72-1.74-1.03s-1.45-.6-2.21-.89c-.92-.37-1.84-.82-2.74-1.34-.91-.53-1.67-1.2-2.27-2.03-.61-.83-.91-1.86-.91-3.1,0-1.32.34-2.48,1.03-3.49s1.64-1.81,2.86-2.39c1.22-.58,2.68-.87,4.36-.87s3.03.28,4.28.83,2.32,1.18,3.22,1.9l-2.61,3.51c-.79-.58-1.57-1.04-2.35-1.38-.78-.34-1.57-.51-2.39-.51-1.03,0-1.78.2-2.25.59-.47.4-.71.91-.71,1.54,0,.53.2.97.59,1.32.39.36.93.67,1.62.93.68.26,1.41.54,2.17.83.74.26,1.47.57,2.19.93.72.36,1.39.78,1.99,1.28.61.5,1.09,1.11,1.44,1.84.36.72.53,1.6.53,2.63,0,1.29-.34,2.47-1.01,3.53-.67,1.07-1.66,1.91-2.96,2.53-1.3.62-2.92.93-4.84.93Z"/>
        <path class="cls-6" d="M561.27,32.54c-1.92,0-3.66-.45-5.21-1.34-1.55-.89-2.78-2.18-3.69-3.85s-1.36-3.68-1.36-6.02c0-1.76.26-3.34.79-4.72s1.24-2.57,2.15-3.55,1.94-1.74,3.1-2.25c1.16-.51,2.34-.77,3.55-.77,1.84,0,3.4.41,4.66,1.22,1.26.82,2.23,1.98,2.9,3.49.67,1.51,1.01,3.3,1.01,5.35,0,.39-.01.76-.04,1.11-.03.34-.07.66-.12.95h-14.45c.08,1.53.43,2.85,1.05,3.97.62,1.12,1.44,1.99,2.47,2.61,1.03.62,2.22.93,3.59.93,1.05,0,2.01-.15,2.86-.45s1.69-.72,2.51-1.24l1.26,2.41c-.92.61-1.96,1.12-3.12,1.54s-2.46.63-3.91.63ZM554.52,19.59h11.49c0-2.16-.47-3.81-1.4-4.96s-2.25-1.72-3.93-1.72c-1,0-1.94.26-2.82.79s-1.62,1.28-2.21,2.25c-.59.97-.97,2.19-1.12,3.63Z"/>
        <path class="cls-6" d="M574.46,32.02V10.58h2.96l.36,3.12h.08c1.03-1.03,2.11-1.9,3.26-2.61,1.14-.71,2.45-1.07,3.93-1.07,2.26,0,3.92.72,4.98,2.15,1.05,1.44,1.58,3.52,1.58,6.26v13.58h-3.59v-13.11c0-2.03-.32-3.49-.97-4.38-.65-.89-1.68-1.34-3.1-1.34-1.11,0-2.09.28-2.96.83-.87.55-1.83,1.37-2.88,2.45v15.56h-3.63Z"/>
        <path class="cls-6" d="M603.6,32.02l9.36-29.26h6.91l9.36,29.26h-6.16l-4.15-15.24c-.45-1.53-.88-3.11-1.28-4.76-.41-1.64-.84-3.24-1.28-4.8h-.16c-.37,1.58-.77,3.19-1.2,4.82-.43,1.63-.86,3.21-1.28,4.74l-4.19,15.24h-5.92ZM609.41,24.52v-4.54h13.9v4.54h-13.9Z"/>
        <path class="cls-6" d="M632.19,32.02V9.91h4.74l.43,3.91h.12c.82-1.45,1.78-2.55,2.88-3.32s2.24-1.15,3.4-1.15c.63,0,1.14.05,1.52.14.38.09.73.21,1.05.34l-.95,5.02c-.42-.11-.8-.19-1.12-.26-.33-.07-.74-.1-1.24-.1-.84,0-1.73.33-2.67.99-.94.66-1.72,1.78-2.35,3.36v13.19h-5.81Z"/>
        <path class="cls-6" d="M656.56,41.62c-1.74,0-3.3-.2-4.7-.61s-2.49-1.03-3.3-1.86c-.8-.83-1.2-1.9-1.2-3.22,0-.92.26-1.78.79-2.57s1.32-1.46,2.37-2.01v-.2c-.58-.37-1.06-.86-1.44-1.46-.38-.61-.57-1.37-.57-2.29,0-.82.24-1.59.73-2.31s1.06-1.32,1.72-1.8v-.16c-.76-.55-1.45-1.33-2.05-2.33-.61-1-.91-2.16-.91-3.47,0-1.74.41-3.2,1.24-4.38.83-1.19,1.93-2.08,3.3-2.69,1.37-.61,2.82-.91,4.34-.91.66,0,1.27.05,1.84.16s1.09.24,1.56.39h7.94v4.26h-3.75c.29.39.53.88.71,1.46.18.58.28,1.21.28,1.9,0,1.66-.38,3.05-1.15,4.17-.76,1.12-1.79,1.96-3.08,2.51-1.29.55-2.74.83-4.34.83-.39,0-.84-.05-1.34-.14-.5-.09-1-.22-1.5-.38-.29.26-.52.53-.69.81-.17.28-.26.65-.26,1.13,0,.55.26.99.77,1.3.51.32,1.41.47,2.7.47h3.79c2.66,0,4.7.44,6.12,1.32s2.13,2.28,2.13,4.21c0,1.5-.49,2.84-1.48,4.01-.99,1.17-2.38,2.11-4.19,2.8-1.8.7-3.93,1.05-6.38,1.05ZM657.43,37.91c1.13,0,2.11-.14,2.94-.43.83-.29,1.48-.67,1.96-1.14s.71-1,.71-1.58c0-.79-.32-1.32-.95-1.6s-1.54-.42-2.72-.42h-2.72c-.66,0-1.22-.02-1.7-.06-.47-.04-.92-.11-1.34-.22-.5.39-.86.81-1.09,1.24-.22.43-.34.89-.34,1.36,0,.89.47,1.59,1.42,2.09.95.5,2.22.75,3.83.75ZM656.87,21.44c.66,0,1.25-.16,1.78-.47.53-.32.95-.78,1.26-1.4.32-.62.47-1.36.47-2.23s-.16-1.6-.47-2.19c-.32-.59-.74-1.04-1.26-1.34-.53-.3-1.12-.45-1.78-.45s-1.21.15-1.74.45c-.53.3-.94.75-1.24,1.34-.3.59-.45,1.32-.45,2.19s.15,1.61.45,2.23.72,1.09,1.24,1.4c.53.32,1.11.47,1.74.47Z"/>
        <path class="cls-6" d="M681,32.58c-2.05,0-3.91-.46-5.57-1.38-1.66-.92-2.98-2.25-3.97-3.99-.99-1.74-1.48-3.82-1.48-6.24,0-1.79.28-3.4.85-4.82.57-1.42,1.34-2.64,2.33-3.65s2.09-1.79,3.32-2.33c1.22-.54,2.49-.81,3.81-.81,2.03,0,3.72.45,5.09,1.36s2.4,2.16,3.1,3.75c.7,1.59,1.05,3.42,1.05,5.47,0,.53-.03,1.03-.08,1.52s-.12.88-.2,1.16h-13.62c.16,1.19.51,2.19,1.07,3,.55.82,1.26,1.43,2.13,1.84.87.41,1.86.61,2.96.61.89,0,1.74-.12,2.53-.38.79-.25,1.59-.62,2.41-1.12l1.97,3.55c-1.08.74-2.29,1.33-3.63,1.78s-2.7.67-4.07.67ZM675.51,18.72h9.04c0-1.47-.34-2.65-1.01-3.53-.67-.88-1.73-1.32-3.18-1.32-.76,0-1.49.18-2.17.53-.68.36-1.26.9-1.74,1.62-.47.72-.79,1.63-.95,2.71Z"/>
        <path class="cls-6" d="M694.31,32.02V9.91h4.74l.43,2.92h.12c.97-.95,2.04-1.76,3.2-2.45,1.16-.68,2.49-1.03,3.99-1.03,2.4,0,4.13.78,5.21,2.35,1.08,1.57,1.62,3.75,1.62,6.54v13.78h-5.8v-13.07c0-1.71-.24-2.91-.73-3.59-.49-.68-1.28-1.03-2.39-1.03-.9,0-1.68.21-2.35.63-.67.42-1.42,1.04-2.23,1.86v15.2h-5.81Z"/>
        <path class="cls-6" d="M727.71,32.58c-1.74,0-3.15-.35-4.23-1.05s-1.86-1.67-2.33-2.9c-.47-1.24-.71-2.67-.71-4.3v-9.83h-3.12v-4.3l3.44-.28.67-5.96h4.78v5.96h5.49v4.58h-5.49v9.79c0,1.26.26,2.2.79,2.8.53.61,1.28.91,2.25.91.37,0,.75-.05,1.15-.16.39-.1.74-.21,1.03-.32l.99,4.22c-.61.18-1.3.37-2.07.55-.78.18-1.65.28-2.63.28Z"/>
        <path class="cls-6" d="M739.17,6.32c-1.03,0-1.84-.28-2.45-.85-.61-.57-.91-1.34-.91-2.31s.3-1.71.91-2.29c.61-.58,1.42-.87,2.45-.87.97,0,1.78.29,2.41.87s.95,1.34.95,2.29-.32,1.75-.95,2.31c-.63.57-1.43.85-2.41.85ZM736.24,32.02V9.91h5.81v22.11h-5.81Z"/>
        <path class="cls-6" d="M748.25,32.02V9.91h4.74l.43,2.92h.12c.97-.95,2.04-1.76,3.2-2.45,1.16-.68,2.49-1.03,3.99-1.03,2.4,0,4.13.78,5.21,2.35,1.08,1.57,1.62,3.75,1.62,6.54v13.78h-5.8v-13.07c0-1.71-.24-2.91-.73-3.59-.49-.68-1.28-1.03-2.39-1.03-.9,0-1.68.21-2.35.63-.67.42-1.42,1.04-2.23,1.86v15.2h-5.81Z"/>
        <path class="cls-6" d="M778.97,32.58c-1.29,0-2.43-.28-3.42-.85-.99-.57-1.75-1.35-2.29-2.35-.54-1-.81-2.13-.81-3.4,0-2.34,1.01-4.17,3.04-5.47,2.03-1.3,5.25-2.19,9.67-2.67-.03-.74-.16-1.39-.4-1.96-.24-.57-.62-1.02-1.17-1.36-.54-.34-1.27-.51-2.19-.51-1.03,0-2.04.2-3.04.59-1,.39-2.01.91-3.04,1.54l-2.05-3.87c.87-.55,1.79-1.04,2.76-1.46.97-.42,2-.77,3.08-1.05,1.08-.28,2.2-.41,3.36-.41,1.87,0,3.44.37,4.7,1.11,1.26.74,2.21,1.83,2.84,3.28.63,1.45.95,3.24.95,5.37v12.91h-4.74l-.39-2.37h-.2c-.95.84-1.97,1.54-3.08,2.09s-2.3.83-3.59.83ZM780.9,28.04c.82,0,1.56-.19,2.23-.57.67-.38,1.35-.91,2.03-1.6v-4.42c-1.79.21-3.21.51-4.26.91-1.05.4-1.8.86-2.25,1.4-.45.54-.67,1.14-.67,1.8,0,.87.27,1.5.81,1.9.54.39,1.24.59,2.11.59Z"/>
      </g>
      <g>
        <text class="cls-5" transform="translate(-2.95 310.84)"><tspan class="cls-7" x="0" y="0">¿</tspan><tspan class="cls-3" x="109.35" y="0">GIGANTE</tspan><tspan class="cls-4" x="1057.38" y="0" xml:space="preserve"> /</tspan><tspan class="cls-7" x="1180.19" y="0"> </tspan><tspan class="cls-6"><tspan class="cls-2" x="19.05" y="326.2" xml:space="preserve">                            </tspan><tspan class="cls-8" x="1085.62" y="326.2">?</tspan></tspan></text>
        <rect class="cls-6" x="27.68" y="12" width="1040.21" height="294.23"/>
        <text class="cls-1" transform="translate(33.78 569.63)"><tspan x="0" y="0">pequeño</tspan></text>
      </g>
    </g>
  </g>
</svg>